<?xml version="1.0" encoding="utf-8"?>
<!-- Generator: Adobe Illustrator 21.0.0, SVG Export Plug-In . SVG Version: 6.00 Build 0)  -->
<svg version="1.1" id="logo" xmlns="http://www.w3.org/2000/svg" xmlns:xlink="http://www.w3.org/1999/xlink" x="0px" y="0px"
	 viewBox="0 0 500 500" style="enable-background:new 0 0 500 500;" xml:space="preserve">
<style type="text/css">
	.st0{fill:#1B314F;}
	.st1{fill:none;stroke:#FFFFFF;stroke-width:8;stroke-linecap:round;stroke-linejoin:round;}
	.st2{fill:#FFFFFF;}
	.st3{fill:#94A6C3;}
</style>
<circle class="st0" cx="250" cy="250" r="237.5"/>
<g>
	<g>
		<path class="st1" d="M160.7,270.2l9-67.8l-78.3-54.3l71.5,24.2l16.9-25.9l61.7-38.3l135.9,74.9l7,114.2l-60.6,84.2l-47.8,7.4
			l24.7-45.3V300l-18-34.1l-18.3-12.1l-28.1,29v30.7l-21.9,20.6l-27.9,3.4l-12.4,7l-20.3-6.5l-8.5-30.4l15.2-21.4L160.7,270.2
			L160.7,270.2z"/>
		<path class="st1" d="M285.7,147.5c-14.9-3-31.3-2.3-31.3-2.3s-5.3,24.8-38.5,31.3C216.1,176.6,259.8,191.5,285.7,147.5z"/>
		<path class="st1" d="M299.1,372.2c18-14.1,31.5-33.5,37.7-55.4c0.3-0.8,2.8-2.3,4.5-3.4c2.8-1.7,5.6-3,6.2-5.3
			c1.1-6.5,1.7-13.2,1.7-20c0-2.5-2.6-5.1-5.1-7.6c-1.9-1.7-4-3.7-4-5.1c-2.8-25.6-14.7-49.6-33.5-66.9l-1.9,1.9
			c18.3,17.1,30.1,40.6,32.6,65.3c0.3,2.3,2.5,4.5,4.8,6.7c1.9,1.7,4.2,4.2,4.2,5.3c0,6.5-0.6,12.9-1.7,19.4
			c-0.3,1.1-2.8,2.3-4.8,3.4c-2.8,1.4-5.3,2.8-5.9,5.1c-6.7,24-22.2,44.8-42.8,58.3c3.7-7.8,15.2-33.5,21.4-46.5l-1.1-41.7
			l-35.8-34.5l-20.3,2.8l-22.2,36c0,0,10.4,13.2-4.2,28.7c-14.3,15.2-25.6,18.6-25.6,18.6l-10.4-5.6c3-4,9.3-9.9,14.1-13.8
			c8.1-6.7,16.3-7.4,16.3-14.7c0.4-15.2-16-11.1-16-11.1l-5.9,5.6l-2.5,20.8l-12.4,15.6l-1.4-0.3l-20.3-4.5c0,0,12.4-6.5,14.4-13.8
			c1.9-7-4-30.4-4.2-31.8c0.3,0.3,5.9,5.1,8.5,12.9c4.5-12.4,10.4-24.2,12.1-25.4c1.7-1.1,24.4-13.2,24.4-13.2l-7.6,20l5.6-3
			l13.6-33.2c0,0,13.2-6.5,23-6.5c17.7-0.3,43.9-21.9,32.1-60.8c3.4,1.4,61.9,30.7,72,88.1C366.4,306.9,341.4,348.2,299.1,372.2z"/>
		<path class="st1" d="M232.2,153.7c6.5-7.7,4-18.9,4-18.9l-18.9,27.9C217,162.7,224,163,232.2,153.7z"/>
		<path class="st1" d="M168.9,306l2.3-11.2c0,0-9.3,16.3-10.1,18.6c-0.8,2.6,0.6,7,4.2,6.7c3.7-0.3,8.1-5.6,8.1-9.6
			C173.3,305.5,168.9,306,168.9,306z"/>
		<path class="st1" d="M336,127.1c0,0,14.1,0.6,28.7,2.3c-32.9-25.9-64.2-33.5-89.5-33.5c-34.8,0-58.5,14.4-60,15.2l11-17.4
			c0,0-43.9-4.2-59.4,42.2c-4-9.9-7.6-24.2-7.6-24.2s-22.9,20-12.1,53.2c-26.2-9.6-63.6-22.9-65.1-23c-1.9-0.3-2.6,0.6-2.6,0.6
			s-0.6,0.8,1.1,2.3c3.1,2.5,62.2,46.1,75.2,54.6c-2.8,10.1-2.8,14.9,0,19.7c4,6.5,4.2,9.9,3.7,14.7c-0.6,4.8-5.6,46.2-6.7,51.3
			s-12.9,23-12.4,28.4c0.6,5.3,7.8,28.1,14.4,30.7c4.8,1.7,16.6,5.3,24.4,5.3c2.8,0,5.3-0.6,6.5-1.7c4.8-4.2,6.2-5.1,9.6-5.1
			c0.3,0,0.6,0,0.8,0c1.4,0,3,0.3,5.1,0.3c4.5,0,10.4-0.8,14.7-4.8c6.2-6.2,16.9-14.7,20.3-18.6c4.2-5.3,6.5-12.6,5.3-20
			c-0.8-6.7,2.8-12.7,7-18.6c5.3-7,15.2-19.7,15.2-19.7c19.5,14.6,31.5,36.8,31.5,61.6c0,43.9-38.3,79.4-85.6,79.4
			c-7.4,0-14.3-0.8-21.4-2.5c21.7,7.6,39.9,10.1,54.9,10.1c31.8,0,48.7-11.5,48.7-11.5s-5.9,7.7-15.5,16.3c0.3,0,0.3,0,0.3,0
			c52.6-7.4,78.3-50.7,78.3-50.7s-1.9,14.1-4.5,23.6c70-52.6,58.2-118.5,57.9-120.7c0.6,0.8,7.7,9.2,11.2,13.8
			C430.9,164.5,336,127.1,336,127.1z M228.2,312.3c-1.1,1.4-5.9,5.6-9.2,8.8c-3.4,3-7,6.2-9.9,9c-1.1,1.1-3.4,1.7-6.7,1.7
			c-1.1,0-2.3,0-3,0c-0.6,0-1.1,0-1.7,0s-0.8,0-1.1,0c-0.8,0-1.7,0-2.6,0c4.2-5.6,16.6-18.6,20.8-21.4c5.1-3.4,7.7-6.7,4.5-12.6
			c-3-5.9-11.2-4.5-11.2-4.5s4.8-1.9,9-1.9c-5.3-1.4-12.1,0-15.2,3c-3.4,3-2.8,14.1-4.2,21.1c-1.4,7.4-6.2,11-13.6,17.8
			c-4,3.7-6.7,4.8-9,4.8c-4.8-0.8-10.4-2.3-14.4-3.7c-2.8-3.7-7-15.8-8.1-20.8c0.8-2.8,4.2-8.8,5.9-12.1c3.4-6.5,5.3-10.1,5.9-13.6
			c1.1-4.8,4.8-34.4,6.2-46.7c3.7,4.8,8.8,12.7,7.6,17.8c8.1-11.5,2.3-22.9-0.6-27.3c-2.5-4.5-5.9-13.6-3-23
			c2.8-9.6,12.9-36,12.9-36s3.4,5.9,8.1,4.8c4.8-1.1,43.3-59.1,43.3-59.1s10.4,22.8-0.6,39.5c-11.2,16.6-22.2,19.7-22.2,19.7
			s15.5,2.8,29.8-7.7c5.9,13.8,11.5,28.1,11.8,30.1c-0.8,1.9-12.1,29-13.2,30.7c-0.6,0.6-4.5,1.7-7.4,2.3c-4.8,1.4-7.6,2.3-8.8,3
			c-1.9,1.7-11,26.5-15.2,38.5c-5.1,1.4-10.1,4.2-13.8,9.9c1.9-1.4,8.1-2.3,12.7-2.8c4-0.3,16,6.2,19.2,18.3c0,0.3,0,0.3,0,0.6
			C231.9,304.6,230.4,308.9,228.2,312.3z M201.8,315.6c2.6-3.7,2.3-9.9,2.6-11.8c0.3-1.9,0.8-5.6,3-6.2c2.3-0.6,7.7,0.3,7.7,4.2
			c0,3.7-4,4.5-6.7,7C206.3,310.8,202.3,315,201.8,315.6z M314.1,261.8c2.8-14.3,3-26.7,2.3-36.9c11,14.7,17.7,32.4,19.7,50.7
			c0.3,2.3,2.5,4.5,4.8,6.7c1.9,1.7,4.2,4,4.2,5.3c0,6.5-0.6,12.9-1.7,19.5c-0.3,0.8-2.8,2.3-4.8,3.4c-2.8,1.4-5.3,2.8-5.9,5.1
			c-6.2,21.7-19.5,40.8-37.2,54.3C321.7,342.7,334.3,297.6,314.1,261.8z M296.4,372.5c18.3-14.1,32.4-33.7,38.5-56.1
			c0.3-0.8,2.8-2.3,4.5-3.4c2.8-1.4,5.6-3,6.2-5.3c1.1-6.5,1.7-13.2,1.7-20c0-2.5-2.6-5.1-5.1-7.6c-1.4-1.7-3.7-3.7-3.7-5.1
			c-2.3-20.6-10.4-39.9-23-56.1c-5.6-33.7-28.1-44.2-28.7-44.5c0.6,0.8,15.2,21.9,5.1,46.7c-10.4,25.1-37.2,21.1-39.5,21.4
			c-2.3,0-11,11.2-21.9,32.1c-1.4-0.6-7.4-1.9-14.1-0.8c5.1-14.1,12.7-34.1,14.1-35.8c0.6-0.6,4.8-1.7,7.7-2.5
			c5.3-1.4,7.8-2.3,8.8-3.4c0.6-0.8,3.4-7.4,6.2-14.1c2.6,0,9-0.6,9.6-0.8c0.6-0.6,5.9-14.3,5.9-16c0-1.4-11-28.7-15.2-39.1
			c1.9-2.3,4-5.1,5.9-8.1c57.7,6.3,102.8,55.2,102.8,114.6C361.9,314.2,335.2,353.8,296.4,372.5z"/>
		<path class="st1" d="M221.5,220.4c5.3-6.2,2.6-17.7-7.4-19.7c2.6-5.9,6.2-17.7,6.2-17.7s-28.7,45-31.3,45.9c-2.6,0.8-5.1-9-5.1-9
			c-5.3,20.6,9,23.3,10.7,16.9C202.6,234.8,216.1,226.3,221.5,220.4z"/>
		<path class="st1" d="M197,231.4l14.7-25.1c0,0,8.5,4.2,4.2,11C210.4,225.2,197,231.4,197,231.4z"/>
		<path class="st1" d="M378,347.4c-4.2,5.6-9,11.5-14.7,17.1c36.3-69.8,1.7-133.7,0.3-136.2c2.6,2.6,5.1,5.3,7.4,7.8
			C398.8,267.2,402.2,313.7,378,347.4z"/>
		<path class="st1" d="M411.7,257.6c-12.7-34.1-30.7-63.1-70.3-89.2c-38.3-25.4-79.4-23.3-81.7-23c-0.3,0-0.6,0-0.6,0
			c1.4-0.6,2.8-0.8,4.2-1.1c8.8-2.8,20-5.1,31.3-6.5c29.9-4.3,60,5.8,80.6,27.6c0.3,0.3,0.3,0.3,0.6,0.6
			C399.1,190.7,411.2,221.6,411.7,257.6z"/>
		<path class="st1" d="M332.3,118.3c-41.9-7.8-69-4-88.4,3.4c-0.6-2.3-2.6-6.7-4.2-10.4c-5.8,7-12.1,15.5-15.9,20.8
			c-10.7,7.4-15.2,14.4-15.2,14.4c6.2-21.1,24.2-36.9,46.2-40.8c6.2-1.1,12.9-1.7,20.3-1.7C294.3,104.2,313.8,109,332.3,118.3z"/>
		<path class="st1" d="M177.3,172.3c-32.9-1.1-21.9-39.5-21.4-41.7C155.9,130.9,158.1,160.8,177.3,172.3z"/>
		<path class="st1" d="M209.6,103.4c-25.4,15.2-20.3,51.4-20.3,51.4C165.2,118,207.7,104.2,209.6,103.4z"/>
		<path class="st1" d="M168,182.5c1.7,1.4,3.4,4,1.4,7.7c-1.1,1.9-2.8,1.7-5.3,0.6c-3.4-1.7-23.6-13.6-41.9-25.6
			c20.8,7.4,41.9,15.2,45.3,16.9C167.4,181.9,167.8,182.2,168,182.5z"/>
	</g>
	<g>
		<path class="st2" d="M160.7,270.2l9-67.8l-78.3-54.3l71.5,24.2l16.9-25.9l61.7-38.3l135.9,74.9l7,114.2l-60.6,84.2l-47.8,7.4
			l24.7-45.3V300l-18-34.1l-18.3-12.1l-28.1,29v30.7l-21.9,20.6l-27.9,3.4l-12.4,7l-20.3-6.5l-8.5-30.4l15.2-21.4L160.7,270.2
			L160.7,270.2z"/>
		<path class="st3" d="M285.7,147.5c-14.9-3-31.3-2.3-31.3-2.3s-5.3,24.8-38.5,31.3C216.1,176.6,259.8,191.5,285.7,147.5z"/>
		<path class="st3" d="M299.1,372.2c18-14.1,31.5-33.5,37.7-55.4c0.3-0.8,2.8-2.3,4.5-3.4c2.8-1.7,5.6-3,6.2-5.3
			c1.1-6.5,1.7-13.2,1.7-20c0-2.5-2.6-5.1-5.1-7.6c-1.9-1.7-4-3.7-4-5.1c-2.8-25.6-14.7-49.6-33.5-66.9l-1.9,1.9
			c18.3,17.1,30.1,40.6,32.6,65.3c0.3,2.3,2.5,4.5,4.8,6.7c1.9,1.7,4.2,4.2,4.2,5.3c0,6.5-0.6,12.9-1.7,19.4
			c-0.3,1.1-2.8,2.3-4.8,3.4c-2.8,1.4-5.3,2.8-5.9,5.1c-6.7,24-22.2,44.8-42.8,58.3c3.7-7.8,15.2-33.5,21.4-46.5l-1.1-41.7
			l-35.8-34.5l-20.3,2.8l-22.2,36c0,0,10.4,13.2-4.2,28.7c-14.3,15.2-25.6,18.6-25.6,18.6l-10.4-5.6c3-4,9.3-9.9,14.1-13.8
			c8.1-6.7,16.3-7.4,16.3-14.7c0.4-15.2-16-11.1-16-11.1l-5.9,5.6l-2.5,20.8l-12.4,15.6l-1.4-0.3l-20.3-4.5c0,0,12.4-6.5,14.4-13.8
			c1.9-7-4-30.4-4.2-31.8c0.3,0.3,5.9,5.1,8.5,12.9c4.5-12.4,10.4-24.2,12.1-25.4c1.7-1.1,24.4-13.2,24.4-13.2l-7.6,20l5.6-3
			l13.6-33.2c0,0,13.2-6.5,23-6.5c17.7-0.3,43.9-21.9,32.1-60.8c3.4,1.4,61.9,30.7,72,88.1C366.4,306.9,341.4,348.2,299.1,372.2z"/>
		<path class="st0" d="M232.2,153.7c6.5-7.7,4-18.9,4-18.9l-18.9,27.9C217,162.7,224,163,232.2,153.7z"/>
		<path class="st0" d="M168.9,306l2.3-11.2c0,0-9.3,16.3-10.1,18.6c-0.8,2.6,0.6,7,4.2,6.7c3.7-0.3,8.1-5.6,8.1-9.6
			C173.3,305.5,168.9,306,168.9,306z"/>
		<path class="st0" d="M336,127.1c0,0,14.1,0.6,28.7,2.3c-32.9-25.9-64.2-33.5-89.5-33.5c-34.8,0-58.5,14.4-60,15.2l11-17.4
			c0,0-43.9-4.2-59.4,42.2c-4-9.9-7.6-24.2-7.6-24.2s-22.9,20-12.1,53.2c-26.2-9.6-63.6-22.9-65.1-23c-1.9-0.3-2.6,0.6-2.6,0.6
			s-0.6,0.8,1.1,2.3c3.1,2.5,62.2,46.1,75.2,54.6c-2.8,10.1-2.8,14.9,0,19.7c4,6.5,4.2,9.9,3.7,14.7c-0.6,4.8-5.6,46.2-6.7,51.3
			s-12.9,23-12.4,28.4c0.6,5.3,7.8,28.1,14.4,30.7c4.8,1.7,16.6,5.3,24.4,5.3c2.8,0,5.3-0.6,6.5-1.7c4.8-4.2,6.2-5.1,9.6-5.1
			c0.3,0,0.6,0,0.8,0c1.4,0,3,0.3,5.1,0.3c4.5,0,10.4-0.8,14.7-4.8c6.2-6.2,16.9-14.7,20.3-18.6c4.2-5.3,6.5-12.6,5.3-20
			c-0.8-6.7,2.8-12.7,7-18.6c5.3-7,15.2-19.7,15.2-19.7c19.5,14.6,31.5,36.8,31.5,61.6c0,43.9-38.3,79.4-85.6,79.4
			c-7.4,0-14.3-0.8-21.4-2.5c21.7,7.6,39.9,10.1,54.9,10.1c31.8,0,48.7-11.5,48.7-11.5s-5.9,7.7-15.5,16.3c0.3,0,0.3,0,0.3,0
			c52.6-7.4,78.3-50.7,78.3-50.7s-1.9,14.1-4.5,23.6c70-52.6,58.2-118.5,57.9-120.7c0.6,0.8,7.7,9.2,11.2,13.8
			C430.9,164.5,336,127.1,336,127.1z M228.2,312.3c-1.1,1.4-5.9,5.6-9.2,8.8c-3.4,3-7,6.2-9.9,9c-1.1,1.1-3.4,1.7-6.7,1.7
			c-1.1,0-2.3,0-3,0c-0.6,0-1.1,0-1.7,0s-0.8,0-1.1,0c-0.8,0-1.7,0-2.6,0c4.2-5.6,16.6-18.6,20.8-21.4c5.1-3.4,7.7-6.7,4.5-12.6
			c-3-5.9-11.2-4.5-11.2-4.5s4.8-1.9,9-1.9c-5.3-1.4-12.1,0-15.2,3c-3.4,3-2.8,14.1-4.2,21.1c-1.4,7.4-6.2,11-13.6,17.8
			c-4,3.7-6.7,4.8-9,4.8c-4.8-0.8-10.4-2.3-14.4-3.7c-2.8-3.7-7-15.8-8.1-20.8c0.8-2.8,4.2-8.8,5.9-12.1c3.4-6.5,5.3-10.1,5.9-13.6
			c1.1-4.8,4.8-34.4,6.2-46.7c3.7,4.8,8.8,12.7,7.6,17.8c8.1-11.5,2.3-22.9-0.6-27.3c-2.5-4.5-5.9-13.6-3-23
			c2.8-9.6,12.9-36,12.9-36s3.4,5.9,8.1,4.8c4.8-1.1,43.3-59.1,43.3-59.1s10.4,22.8-0.6,39.5c-11.2,16.6-22.2,19.7-22.2,19.7
			s15.5,2.8,29.8-7.7c5.9,13.8,11.5,28.1,11.8,30.1c-0.8,1.9-12.1,29-13.2,30.7c-0.6,0.6-4.5,1.7-7.4,2.3c-4.8,1.4-7.6,2.3-8.8,3
			c-1.9,1.7-11,26.5-15.2,38.5c-5.1,1.4-10.1,4.2-13.8,9.9c1.9-1.4,8.1-2.3,12.7-2.8c4-0.3,16,6.2,19.2,18.3c0,0.3,0,0.3,0,0.6
			C231.9,304.6,230.4,308.9,228.2,312.3z M201.8,315.6c2.6-3.7,2.3-9.9,2.6-11.8c0.3-1.9,0.8-5.6,3-6.2c2.3-0.6,7.7,0.3,7.7,4.2
			c0,3.7-4,4.5-6.7,7C206.3,310.8,202.3,315,201.8,315.6z M314.1,261.8c2.8-14.3,3-26.7,2.3-36.9c11,14.7,17.7,32.4,19.7,50.7
			c0.3,2.3,2.5,4.5,4.8,6.7c1.9,1.7,4.2,4,4.2,5.3c0,6.5-0.6,12.9-1.7,19.5c-0.3,0.8-2.8,2.3-4.8,3.4c-2.8,1.4-5.3,2.8-5.9,5.1
			c-6.2,21.7-19.5,40.8-37.2,54.3C321.7,342.7,334.3,297.6,314.1,261.8z M296.4,372.5c18.3-14.1,32.4-33.7,38.5-56.1
			c0.3-0.8,2.8-2.3,4.5-3.4c2.8-1.4,5.6-3,6.2-5.3c1.1-6.5,1.7-13.2,1.7-20c0-2.5-2.6-5.1-5.1-7.6c-1.4-1.7-3.7-3.7-3.7-5.1
			c-2.3-20.6-10.4-39.9-23-56.1c-5.6-33.7-28.1-44.2-28.7-44.5c0.6,0.8,15.2,21.9,5.1,46.7c-10.4,25.1-37.2,21.1-39.5,21.4
			c-2.3,0-11,11.2-21.9,32.1c-1.4-0.6-7.4-1.9-14.1-0.8c5.1-14.1,12.7-34.1,14.1-35.8c0.6-0.6,4.8-1.7,7.7-2.5
			c5.3-1.4,7.8-2.3,8.8-3.4c0.6-0.8,3.4-7.4,6.2-14.1c2.6,0,9-0.6,9.6-0.8c0.6-0.6,5.9-14.3,5.9-16c0-1.4-11-28.7-15.2-39.1
			c1.9-2.3,4-5.1,5.9-8.1c57.7,6.3,102.8,55.2,102.8,114.6C361.9,314.2,335.2,353.8,296.4,372.5z"/>
		<path class="st0" d="M221.5,220.4c5.3-6.2,2.6-17.7-7.4-19.7c2.6-5.9,6.2-17.7,6.2-17.7s-28.7,45-31.3,45.9c-2.6,0.8-5.1-9-5.1-9
			c-5.3,20.6,9,23.3,10.7,16.9C202.6,234.8,216.1,226.3,221.5,220.4z"/>
		<path class="st2" d="M197,231.4l14.7-25.1c0,0,8.5,4.2,4.2,11C210.4,225.2,197,231.4,197,231.4z"/>
		<path class="st2" d="M378,347.4c-4.2,5.6-9,11.5-14.7,17.1c36.3-69.8,1.7-133.7,0.3-136.2c2.6,2.6,5.1,5.3,7.4,7.8
			C398.8,267.2,402.2,313.7,378,347.4z"/>
		<path class="st2" d="M411.7,257.6c-12.7-34.1-30.7-63.1-70.3-89.2c-38.3-25.4-79.4-23.3-81.7-23c-0.3,0-0.6,0-0.6,0
			c1.4-0.6,2.8-0.8,4.2-1.1c8.8-2.8,20-5.1,31.3-6.5c29.9-4.3,60,5.8,80.6,27.6c0.3,0.3,0.3,0.3,0.6,0.6
			C399.1,190.7,411.2,221.6,411.7,257.6z"/>
		<path class="st2" d="M332.3,118.3c-41.9-7.8-69-4-88.4,3.4c-0.6-2.3-2.6-6.7-4.2-10.4c-5.8,7-12.1,15.5-15.9,20.8
			c-10.7,7.4-15.2,14.4-15.2,14.4c6.2-21.1,24.2-36.9,46.2-40.8c6.2-1.1,12.9-1.7,20.3-1.7C294.3,104.2,313.8,109,332.3,118.3z"/>
		<path class="st2" d="M177.3,172.3c-32.9-1.1-21.9-39.5-21.4-41.7C155.9,130.9,158.1,160.8,177.3,172.3z"/>
		<path class="st2" d="M209.6,103.4c-25.4,15.2-20.3,51.4-20.3,51.4C165.2,118,207.7,104.2,209.6,103.4z"/>
		<path class="st2" d="M168,182.5c1.7,1.4,3.4,4,1.4,7.7c-1.1,1.9-2.8,1.7-5.3,0.6c-3.4-1.7-23.6-13.6-41.9-25.6
			c20.8,7.4,41.9,15.2,45.3,16.9C167.4,181.9,167.8,182.2,168,182.5z"/>
	</g>
</g>
</svg>
