<svg width="500" height="500" viewBox="0 0 500 500" fill="none" xmlns="http://www.w3.org/2000/svg">
<path d="M249.5 487C380.668 487 487 380.668 487 249.5C487 118.332 380.668 12 249.5 12C118.332 12 12 118.332 12 249.5C12 380.668 118.332 487 249.5 487Z" fill="#314F72"/>
<path d="M363.553 313.568C361.969 318.155 360.311 322.532 358.548 326.731C354.245 336.652 349.165 345.781 343.278 354.163C335.269 365.608 328.695 373.527 323.63 377.919C315.786 385.136 307.374 388.841 298.365 389.036C291.895 389.036 284.111 387.198 275.027 383.477C265.927 379.757 257.56 377.919 249.91 377.919C241.887 377.919 233.281 379.757 224.077 383.477C214.858 387.198 207.433 389.155 201.755 389.334C193.119 389.708 184.513 385.913 175.922 377.919C170.438 373.138 163.58 364.935 155.363 353.326C146.547 340.925 139.301 326.537 133.623 310.131C127.542 292.426 124.494 275.273 124.494 258.674C124.494 239.654 128.603 223.248 136.836 209.502C143.305 198.461 151.911 189.75 162.684 183.355C173.456 176.961 185.096 173.703 197.631 173.494C204.489 173.494 213.484 175.616 224.66 179.784C235.806 183.968 242.963 186.09 246.1 186.09C248.446 186.09 256.395 183.609 269.872 178.664C282.617 174.077 293.374 172.179 302.19 172.926C326.066 174.854 343.995 184.267 355.933 201.225C334.582 214.164 324.019 232.288 324.228 255.536C324.422 273.645 330.981 288.721 343.89 300.688C349.747 306.232 356.292 310.52 363.553 313.568ZM303.489 105.557C303.684 107.454 303.773 109.352 303.773 111.234C303.773 125.428 298.589 138.681 288.264 150.948C275.788 165.531 260.698 173.957 244.337 172.628C244.128 170.924 244.009 169.131 244.009 167.249C244.009 153.622 249.94 139.04 260.474 127.117C265.733 121.081 272.427 116.06 280.525 112.056C288.623 108.112 296.288 105.93 303.489 105.557Z" fill="white"/>
</svg>
