<svg xmlns="http://www.w3.org/2000/svg" xmlns:xlink="http://www.w3.org/1999/xlink" width="800" height="800" viewBox="0 0 800 800">
  <defs>
    <clipPath id="clip-path">
      <rect id="Rectángulo_1" data-name="Rectángulo 1" width="626.071" height="624.836" fill="#fff"/>
    </clipPath>
    <clipPath id="clip-ARK">
      <rect width="800" height="800"/>
    </clipPath>
  </defs>
  <g id="ARK" clip-path="url(#clip-ARK)">
    <rect width="800" height="800" fill="#fff"/>
    <circle id="Elipse_1" data-name="Elipse 1" cx="400" cy="400" r="400"/>
    <g id="Grupo_2" data-name="Grupo 2" transform="translate(87.799 87.993)">
      <g id="Grupo_1" data-name="Grupo 1" clip-path="url(#clip-path)">
        <path id="Trazado_1" data-name="Trazado 1" d="M626.071,312.379c0,172.207-140.4,312.373-312.973,312.458C140.789,624.921-.007,484.413,0,312.382.009,140.274,140.568.031,313.09,0,485.632-.031,626.072,140.139,626.071,312.379M285.813,20.265l-1.6-1.794C175.279,33.408,93.439,88.073,45.744,188.123,4.826,273.958,8.641,360.679,50.477,448,129.584,304.216,207.7,162.241,285.813,20.265M573.5,172.436c-81.229,46.821-161.45,93.062-242.8,139.953C412.254,359.372,492.492,405.6,573.561,452.3c46.581-93.608,46.735-186.121-.058-279.862M322.22,327.775V605.82c74.228,10.806,217.992-72.15,241.051-139.112-80-46.106-160.062-92.253-241.051-138.933m-18.308.038L61.807,467.2c31.6,50.044,73.508,87.39,126.514,112.134,36.54,17.058,74.937,26.458,115.59,27.264Zm.353-301.324-1.537-.409Q189.814,231.285,76.9,436.489a5,5,0,0,0,3.89-.506Q190.012,373.065,299.3,310.265c4.459-2.554,5.027-5.584,5.023-9.949q-.116-134.035-.058-268.071V26.489m63.766,244L564.212,157.451a300.863,300.863,0,0,0-94.558-94.958c-42.968-27.407-102.42-43.484-123.848-41.881C411.266,98.044,418.4,180.9,368.03,270.487m-45.848,24.672c44.478-42.332,65.033-92.521,60.279-152.044C378.7,96.029,358.229,56.677,322.182,23.733Z" transform="translate(0 0)" fill="#fff"/>
      </g>
    </g>
  </g>
</svg>
