<svg width="24" height="28" viewBox="0 0 24 28" color="white" fill="currentColor" xmlns="http://www.w3.org/2000/svg">
<path d="M24 7.278L12 0.611328L0 7.278V20.6113L12 27.278L24 20.6113V7.278ZM12 3.66466L19.88 8.038L15.8667 10.2647C14.8933 9.25133 13.52 8.61133 12 8.61133C10.48 8.61133 9.10667 9.25133 8.13333 10.2647L4.12 8.038L12 3.66466ZM10.6667 23.4913L2.66667 19.0513V10.2913L6.84 12.6113C6.72 13.0247 6.66667 13.478 6.66667 13.9447C6.66667 16.4247 8.36 18.518 10.6667 19.1047V23.4913ZM9.33333 13.9447C9.33333 12.478 10.5333 11.278 12 11.278C13.4667 11.278 14.6667 12.478 14.6667 13.9447C14.6667 15.4113 13.4667 16.6113 12 16.6113C10.5333 16.6113 9.33333 15.4113 9.33333 13.9447ZM13.3333 23.4913V19.118C15.64 18.5313 17.3333 16.438 17.3333 13.958C17.3333 13.4913 17.28 13.038 17.16 12.6113L21.3333 10.2913V19.0513L13.3333 23.4913Z" />
</svg>
