<?xml version="1.0" encoding="utf-8"?>
<!-- Generator: Adobe Illustrator 26.3.1, SVG Export Plug-In . SVG Version: 6.00 Build 0)  -->
<svg version="1.1" id="Layer_1" xmlns="http://www.w3.org/2000/svg" xmlns:xlink="http://www.w3.org/1999/xlink" x="0px" y="0px"
	 viewBox="0 0 500 500" style="enable-background:new 0 0 500 500;" xml:space="preserve">
<style type="text/css">
	.st0{fill:#EB4A4B;}
</style>
<g id="u8pWT5.tif">
	<g>
		<path class="st0" d="M244.8,12.5c3.5,0,7,0,10.4,0c0.6,0.1,1.2,0.3,1.8,0.3c2.6,0.1,5.3,0.1,7.9,0.4c9.3,1,18.6,1.7,27.7,3.3
			c23.6,4.1,46,11.9,67.2,23c27.8,14.5,51.8,33.7,71.9,57.7C465,137,483.4,183,487,234.7c0.6,8.9,0.3,17.9,0.1,26.9
			c-0.2,9.8-1.5,19.6-3.2,29.3c-3.8,22.3-10.8,43.6-20.8,63.8c-12.7,25.7-29.5,48.3-50.3,68c-18.5,17.4-39.2,31.5-62.2,42.3
			c-30.7,14.4-63,21.7-96.8,22.3c-9,0.1-18-0.3-27-1.2c-9.3-0.9-18.6-2.3-27.7-4.3c-23.8-5-46.2-13.8-67.4-25.9
			C110,443.5,90.8,428,74,409.5c-23-25.4-39.8-54.4-50.4-87c-6-18.7-9.7-37.9-10.8-57.5c-0.5-9-0.3-18-0.1-27
			c0.2-10.6,1.6-21.1,3.6-31.5c4.3-23,11.7-44.8,22.5-65.6c12.4-24,28.5-45.2,48.2-63.8c18.5-17.4,39.2-31.6,62.2-42.3
			c29.6-13.8,60.7-21.3,93.3-22.2C243.3,12.8,244,12.6,244.8,12.5z M160.9,344.8L160.9,344.8c10.8,0,21.5,0,32.3,0
			c5.5,0,10.9-0.8,15.9-3.3c7.2-3.5,12.3-9.1,16.2-15.9c7.9-14,15.9-28,23.9-42c15.1-26.7,30.2-53.4,45.4-80.1
			c3.2-5.6,5.3-11.5,5.4-18.1c0.1-6.8-1.9-13-5.2-18.8c-10.3-18.1-20.6-36.1-31-54.2c-1.5-2.6-3.1-5.3-5.1-7.6
			c-4.5-5.2-12.6-5-16.8,0.5c-2.2,2.8-4,5.9-5.8,9c-18,31.7-36,63.3-54,95c-20.6,36.3-41.3,72.7-61.9,109c-2.1,3.8-4.3,7.6-5.9,11.7
			c-2.4,6.1,1.8,13,8.2,14.2c2.4,0.4,4.8,0.6,7.2,0.6C140.1,344.8,150.5,344.8,160.9,344.8z M332.1,344.8L332.1,344.8
			c6.4,0,12.8,0,19.1,0c8.8-0.1,17.5-0.1,26.2-0.3c8.3-0.2,12.9-9.2,9.8-15.5c-1-1.9-1.8-3.9-2.9-5.8c-11.9-20.5-23.9-41-35.9-61.4
			c-2.6-4.4-5.2-8.8-8.3-12.8c-4-5.1-12.3-4.9-16.4,0.2c-1.9,2.3-3.5,4.9-5,7.5c-11.8,20.1-23.5,40.2-35.2,60.3
			c-2.4,4.2-4.7,8.4-6.8,12.8c-2.8,6.2,2.5,13.9,8.1,14.5c2.4,0.2,4.8,0.6,7.2,0.6C305.5,344.8,318.8,344.8,332.1,344.8z"/>
	</g>
</g>
</svg>
