<svg xmlns="http://www.w3.org/2000/svg" width="32" height="32" viewBox="0 0 32 32">
  <g id="Grupo_58" data-name="Grupo 58" transform="translate(-313 -596)">
    <circle id="Elipse_11" data-name="Elipse 11" cx="16" cy="16" r="16" transform="translate(313 596)" fill="#7cba85"/>
    <path id="Trazado_200" data-name="Trazado 200" d="M104.221,18.094a3.766,3.766,0,0,0-1.869-2.065c-.158-.339-.986-.458-1.13-.69-.1-.162-.187-.966-.292-1.284-.017-.053-.3-.586-.349-.681a4.5,4.5,0,0,0-1.869-2.065c-.066-.041-.121-.168-.287-.251a3.213,3.213,0,0,0-4.533,3.986c.32.078.162-.352.239-.6a2.317,2.317,0,0,1,2.515-1.763c-.148.782-.417.525-.953.767a1.637,1.637,0,0,0-.916,1.2c0,.066,0,.131,0,.2a.166.166,0,0,0,0,.3q0,.1,0,.2c0,.185,0,.316.2.393.293,1.078,1.5.948,2.361.983.482.02,1.07-.112,1.482.158.094.565-1.335.907-1.288,2.049a3,3,0,0,0,.2.644c.075.422.141.853.2,1.278.014.111,0,.214.1.295-.01.269.1.628.1.983a5.425,5.425,0,0,1-.787,3.046,5.3,5.3,0,0,0,7.467-5.543,3.175,3.175,0,0,0-.58-1.534" transform="translate(234.467 592.883)" fill="#fff"/>
    <path id="Trazado_201" data-name="Trazado 201" d="M9.5,14.3a1.983,1.983,0,0,1-.2-.491h.639c.2-.209-.148-.216-.3-.388a7.9,7.9,0,0,1-.734-.989,3.067,3.067,0,0,1-.3-1.278,3.779,3.779,0,0,1,2.164-3.687,5.438,5.438,0,0,0-5.022,4.665,5.355,5.355,0,0,0-5.6,6.591,5.006,5.006,0,0,0,1.377,2.458,2.53,2.53,0,0,0,1.376.983,3.581,3.581,0,0,1,2.461-3.047c1.3-.353,3.434.312,4.52-.449,1.142-.8.9-2.2,1.077-3.417-.042-.13-1.18-.582-1.464-.951" transform="translate(317.409 595.736)" fill="#fff"/>
  </g>
</svg>
