<svg xmlns="http://www.w3.org/2000/svg" xmlns:xlink="http://www.w3.org/1999/xlink" width="800" height="800" viewBox="0 0 800 800">
  <defs>
    <clipPath id="clip-path">
      <rect id="Rectángulo_5" data-name="Rectángulo 5" width="325.236" height="395.34" fill="#fff"/>
    </clipPath>
    <clipPath id="clip-BlackRock">
      <rect width="800" height="800"/>
    </clipPath>
  </defs>
  <g id="BlackRock" clip-path="url(#clip-BlackRock)">
    <rect width="800" height="800" fill="#fff"/>
    <circle id="Elipse_1" data-name="Elipse 1" cx="400" cy="400" r="400"/>
    <g id="Grupo_7" data-name="Grupo 7" transform="translate(253.667 202.634)">
      <g id="Grupo_6" data-name="Grupo 6" transform="translate(0 0)" clip-path="url(#clip-path)">
        <path id="Trazado_6" data-name="Trazado 6" d="M0,.393C2.773.239,4.812.029,6.858.029,65.878.036,124.906-.1,183.926.148,211.952.267,239.1,4.939,263.96,18.83c48.342,27.013,65.529,93.388,34.277,136-7.906,10.776-19.736,18.675-29.863,27.8-1.837,1.655-4.134,2.787-6.656,4.449a37.888,37.888,0,0,0,3.373,2.032c43.027,19.3,64.81,57.714,59.307,104.659-6.32,53.922-40.15,88.366-96.8,97.592a282.159,282.159,0,0,1-43.23,3.743c-59.02.412-118.047.182-177.068.168-2.291,0-4.574-.21-7.305-.342ZM93.716,317.179a36.678,36.678,0,0,0,4.5.636c26.65.007,53.307.391,79.937-.3a69.858,69.858,0,0,0,24.765-5.405c15.6-6.565,22.851-19.373,23.075-36.26.223-17.159-6.5-30.813-22.495-37.342-9.54-3.9-20.456-5.65-30.834-6.027-23.773-.859-47.595-.286-71.4-.251-2.465.007-4.931.349-7.556.545Zm.035-160.041c30.6,0,60.654,1.795,90.385-.573,23.34-1.858,35.094-19.722,33.7-43.335-1.229-20.8-15.26-34.731-40.269-36.078-27.349-1.481-54.83-.468-82.255-.5-.405,0-.817.552-1.564,1.089Z" transform="translate(0 -0.003)" fill="#fff"/>
      </g>
    </g>
  </g>
</svg>
