<svg width="22" height="21" viewBox="0 0 22 21" fill="none" xmlns="http://www.w3.org/2000/svg">
<path fill-rule="evenodd" clip-rule="evenodd" d="M7.94415 0.779051C9.84795 -0.259684 12.1521 -0.259683 14.0559 0.779051L20.4833 4.28594C22.4113 5.33786 22.4113 8.09643 20.4833 9.14835L14.0559 12.6552C12.1521 13.694 9.84795 13.694 7.94415 12.6552L1.51669 9.14835C-0.411274 8.09643 -0.411272 5.33786 1.51669 4.28594L7.94415 0.779051ZM13.1214 2.47853C11.7998 1.75744 10.2003 1.75744 8.87865 2.47852L2.45119 5.98542C1.87092 6.30202 1.87093 7.13227 2.45119 7.44887L8.87865 10.9558C10.2003 11.6768 11.7998 11.6768 13.1214 10.9558L19.5488 7.44887C20.1291 7.13227 20.1291 6.30201 19.5488 5.98542L13.1214 2.47853ZM21.8802 11.1813C22.1383 11.6506 21.9656 12.2395 21.4944 12.4965L14.0559 16.5551C12.1521 17.5938 9.84794 17.5938 7.94414 16.5551L0.505569 12.4965C0.0344405 12.2395 -0.138289 11.6506 0.119766 11.1814C0.377822 10.7121 0.968942 10.54 1.44007 10.797L8.87864 14.8556C10.2002 15.5767 11.7998 15.5767 13.1214 14.8556L20.5599 10.797C21.0311 10.54 21.6222 10.7121 21.8802 11.1813ZM0.119766 14.8472C0.377822 14.3779 0.968942 14.2059 1.44007 14.4629L8.87864 18.5215C10.2002 19.2426 11.7998 19.2426 13.1214 18.5215L20.5599 14.4629C21.0311 14.2059 21.6222 14.3779 21.8802 14.8472C22.1383 15.3165 21.9656 15.9053 21.4944 16.1624L14.0559 20.221C12.1521 21.2597 9.84794 21.2597 7.94414 20.2209L0.505569 16.1624C0.0344405 15.9053 -0.138289 15.3165 0.119766 14.8472Z" fill="white"/>
</svg>
