<?xml version="1.0" encoding="utf-8"?>
<svg viewBox="219.656 166.251 42.621 42.558" xmlns="http://www.w3.org/2000/svg">
  <defs>
    <linearGradient id="paint0_linear" x1="10.538" x2="116.385" y1="46.585" y2="-5.031" gradientUnits="userSpaceOnUse" gradientTransform="matrix(1, 0, 0, 1, 219.688065, 165.528717)">
      <stop stop-color="#382BC6"/>
      <stop offset="1" stop-color="#FF3CAC"/>
    </linearGradient>
  </defs>
  <path fill="url(#paint0_linear)" d="M 251.608 181.811 C 250.788 181.811 250.275 182.699 250.685 183.409 C 250.876 183.739 251.227 183.942 251.608 183.942 C 252.428 183.942 252.94 183.054 252.53 182.344 C 252.34 182.015 251.989 181.812 251.608 181.812 L 251.608 181.811 Z M 240.965 166.251 C 224.584 166.252 214.348 183.985 222.539 198.17 C 226.341 204.754 233.366 208.809 240.968 208.809 C 257.348 208.808 267.585 191.075 259.394 176.89 C 255.592 170.306 248.567 166.251 240.965 166.252 L 240.965 166.251 Z M 250.643 196.431 C 248.137 199.2 244.581 200.786 240.846 200.802 L 240.821 200.802 C 237.051 200.796 233.461 199.191 230.944 196.385 C 228.403 193.579 227.195 189.815 227.627 186.055 C 228.329 179.93 233.143 175.087 239.263 174.348 C 239.778 174.288 240.297 174.258 240.816 174.258 C 243.743 174.252 246.587 175.224 248.898 177.02 C 249.127 177.194 249.207 177.501 249.093 177.765 C 249.057 177.85 249.002 177.927 248.933 177.989 L 247.524 179.251 C 247.376 179.383 247.184 179.456 246.986 179.456 C 246.816 179.456 246.65 179.403 246.511 179.306 C 243.64 177.297 239.922 176.951 236.73 178.396 C 235.442 178.974 234.291 179.818 233.352 180.872 C 231.439 182.998 230.536 185.846 230.875 188.686 C 231.422 193.301 235.063 196.938 239.679 197.481 C 240.059 197.522 240.442 197.544 240.825 197.544 C 243.495 197.547 246.055 196.475 247.925 194.569 C 248.08 194.411 248.292 194.322 248.513 194.322 C 248.672 194.322 248.827 194.368 248.96 194.456 L 250.524 195.482 C 250.678 195.584 250.78 195.747 250.804 195.93 C 250.827 196.113 250.768 196.297 250.644 196.433 L 250.643 196.431 Z M 251.608 186.089 C 249.135 186.089 247.589 183.412 248.826 181.27 C 249.4 180.276 250.46 179.664 251.608 179.664 C 254.081 179.664 255.627 182.341 254.39 184.482 C 253.816 185.476 252.756 186.089 251.608 186.089 Z"/>
</svg>