<svg xmlns="http://www.w3.org/2000/svg" xmlns:xlink="http://www.w3.org/1999/xlink" width="32" height="32" viewBox="0 0 32 32">
  <defs>
    <clipPath id="clip-path">
      <rect id="Rectángulo_76" data-name="Rectángulo 76" width="18.211" height="18.221" fill="#fff"/>
    </clipPath>
  </defs>
  <g id="Grupo_71" data-name="Grupo 71" transform="translate(-550 -472)">
    <circle id="Elipse_16" data-name="Elipse 16" cx="16" cy="16" r="16" transform="translate(550 472)" fill="#1934a5"/>
    <g id="Grupo_70" data-name="Grupo 70" transform="translate(556.895 478.889)">
      <g id="Grupo_69" data-name="Grupo 69" clip-path="url(#clip-path)">
        <path id="Trazado_232" data-name="Trazado 232" d="M9.061,18.222,5.947,12.416,0,9.114l5.948-3.3L9.061.005c.055-.041.223.187.266.251,1.115,1.648,1.9,3.871,3.034,5.555l5.85,3.3-5.759,3.2ZM9.248,4.63c-.249-.027-.149,0-.19.139A5.71,5.71,0,0,1,4.624,9.114,5.552,5.552,0,0,1,9.06,13.6c.244.026.151,0,.191-.138A5.59,5.59,0,0,1,13.59,9.114,5.571,5.571,0,0,1,9.248,4.63" transform="translate(0 0)" fill="#fff"/>
      </g>
    </g>
  </g>
</svg>
