<svg xmlns="http://www.w3.org/2000/svg" xmlns:xlink="http://www.w3.org/1999/xlink" width="800" height="800" viewBox="0 0 800 800">
  <defs>
    <clipPath id="clip-path">
      <rect id="Rectángulo_7" data-name="Rectángulo 7" width="234.703" height="308.45" fill="#fff"/>
    </clipPath>
    <clipPath id="clip-Coupang">
      <rect width="800" height="800"/>
    </clipPath>
  </defs>
  <g id="Coupang" clip-path="url(#clip-Coupang)">
    <rect width="800" height="800" fill="#fff"/>
    <circle id="Elipse_1" data-name="Elipse 1" cx="400" cy="400" r="400" fill="#c51e07"/>
    <g id="Grupo_11" data-name="Grupo 11" transform="translate(282.648 245.775)">
      <g id="Grupo_10" data-name="Grupo 10" clip-path="url(#clip-path)">
        <path id="Trazado_9" data-name="Trazado 9" d="M9.18,227.052C3.061,208.693,0,185.437,0,154.224S3.061,99.755,9.18,81.4C26.317,28.764,71.606,0,130.967,0c44.065,0,78.949,17.746,102.2,45.9,1.837,2.448,2.451,6.12-.609,8.569L194,88.129c-3.059,2.446-6.118,1.835-8.569-1.224C170.749,70.379,155.447,61.2,130.967,61.2c-26.315,0-46.511,12.852-55.078,38.556-4.9,14.689-6.12,31.827-6.12,54.469s1.224,40.393,6.12,55.08c8.566,25.093,28.763,37.945,55.078,37.945,24.48,0,39.782-9.18,54.469-25.7,2.451-3.059,5.51-3.059,8.569-.613l38.558,33.662c3.059,2.448,2.446,5.507.609,8.569-23.256,27.539-58.139,45.287-102.2,45.287-59.361,0-104.65-28.765-121.788-81.4" transform="translate(0 0.001)" fill="#fff"/>
      </g>
    </g>
  </g>
</svg>
