<svg width="33" height="32" viewBox="0 0 33 32" fill="none" xmlns="http://www.w3.org/2000/svg">
<path d="M14.868 17.6353H5.60718V26.8961H14.868V17.6353Z" stroke="#0179EF" stroke-width="2" stroke-linecap="round" stroke-linejoin="round"/>
<path d="M27.3961 5.10718H18.1353V14.368H27.3961V5.10718Z" stroke="#0179EF" stroke-width="2" stroke-linecap="round" stroke-linejoin="round"/>
<path d="M15.22 6.34229C13.7191 6.34567 12.2809 6.94425 11.2209 8.00669C10.1609 9.06913 9.56555 10.5087 9.56555 12.0095V13.6095" stroke="#0179EF" stroke-width="2" stroke-linecap="round" stroke-linejoin="round"/>
<path d="M11.3896 12.4033L9.56558 14.2273L7.74158 12.4033" stroke="#0179EF" stroke-width="2" stroke-linecap="round" stroke-linejoin="round"/>
<path d="M19.028 25.5104C19.7725 25.5104 20.5097 25.3637 21.1974 25.0787C21.8852 24.7937 22.5101 24.376 23.0364 23.8494C23.5627 23.3228 23.9801 22.6977 24.2647 22.0097C24.5493 21.3218 24.6956 20.5845 24.6952 19.84V18.24" stroke="#0179EF" stroke-width="2" stroke-linecap="round" stroke-linejoin="round"/>
<path d="M22.8712 19.4495L24.6952 17.6255L26.5192 19.4495" stroke="#0179EF" stroke-width="2" stroke-linecap="round" stroke-linejoin="round"/>
</svg>
