<?xml version="1.0" encoding="utf-8"?>
<!-- Generator: Adobe Illustrator 26.4.1, SVG Export Plug-In . SVG Version: 6.00 Build 0)  -->
<svg version="1.1" id="Layer_1" xmlns="http://www.w3.org/2000/svg" xmlns:xlink="http://www.w3.org/1999/xlink" x="0px" y="0px"
	 viewBox="0 0 500 500" style="enable-background:new 0 0 500 500;" xml:space="preserve">
<style type="text/css">
	.st0{fill:#151C2E;}
	.st1{fill:#949CB9;}
	.st2{fill:#6E739A;}
	.st3{fill:#4E547F;}
	.st4{fill:#949DB9;}
</style>
<g id="u8pWT5.tif">
	<g>
		<path class="st0" d="M244.8,12.5c3.5,0,7,0,10.4,0c0.6,0.1,1.2,0.3,1.8,0.3c2.6,0.1,5.3,0.1,7.9,0.4c9.3,1,18.6,1.7,27.7,3.3
			c23.6,4.1,46,11.9,67.2,23c27.8,14.5,51.8,33.7,71.9,57.7C465,137,483.4,183,487,234.7c0.6,8.9,0.3,17.9,0.1,26.9
			c-0.2,9.8-1.5,19.6-3.2,29.3c-3.8,22.3-10.8,43.6-20.8,63.8c-12.7,25.7-29.5,48.3-50.3,68c-18.5,17.4-39.2,31.5-62.2,42.3
			c-30.7,14.4-63,21.7-96.8,22.3c-9,0.1-18-0.3-27-1.2c-9.3-0.9-18.6-2.3-27.7-4.3c-23.8-5-46.2-13.8-67.4-25.9
			C110,443.5,90.8,428,74,409.5c-23-25.4-39.8-54.4-50.4-87c-6-18.7-9.7-37.9-10.8-57.5c-0.5-9-0.3-18-0.1-27
			c0.2-10.6,1.6-21.1,3.6-31.5c4.3-23,11.7-44.8,22.5-65.6c12.4-24,28.5-45.2,48.2-63.8c18.5-17.4,39.2-31.6,62.2-42.3
			c29.6-13.8,60.7-21.3,93.3-22.2C243.3,12.8,244,12.6,244.8,12.5z"/>
	</g>
</g>
<g id="tgpfKK_00000077292087360917566630000010381327303812094619_">
	<g>
		<path class="st1" d="M151.7,248.5c3.6-5.9,7.2-11.9,10.8-17.8c3-5.1,6-10.1,9.1-15.2c2.6-4.3,5.2-8.5,7.7-12.7
			c3.2-5.2,6.3-10.5,9.4-15.7c5.2-8.6,10.4-17.1,15.6-25.7c3.1-5,6.1-10.1,9.1-15.2c5-8.3,9.9-16.5,14.9-24.8
			c2.8-4.7,5.7-9.4,8.6-14.1c3.4-5.6,6.7-11.3,10.1-17c0.9-1.4,1.8-2.9,2.7-4.3c0.1-0.1,0.1-0.4,0.4-0.3c0,0.3,0,0.7,0,1
			c0,38.7,0,77.3,0,116c0,0.5,0,0.9,0,1.4c-0.8,0.3-1.6,0.7-2.3,1c-4.5,2.1-9,4.1-13.5,6.2c-7.6,3.5-15.3,6.9-22.9,10.4
			c-5.3,2.4-10.5,4.8-15.8,7.2c-7.9,3.6-15.9,7.2-23.8,10.8c-5.8,2.7-11.7,5.4-17.5,8C153.3,247.9,152.6,248.4,151.7,248.5z"/>
		<path class="st2" d="M250,203.9c0-0.5,0-0.9,0-1.4c0-38.7,0-77.3,0-116c0-0.3,0-0.7,0-1c1.5,2.5,3.1,5,4.6,7.6
			c4.3,7,8.5,14.1,12.7,21.1c4.1,6.9,8.3,13.7,12.4,20.6c5.1,8.4,10.2,16.9,15.3,25.3c4,6.7,8.1,13.4,12.1,20.1
			c4.7,7.8,9.4,15.6,14.1,23.5c3.7,6.1,7.3,12.2,11,18.3c4.5,7.5,9.1,15,13.6,22.5c0.8,1.3,1.5,2.6,2.3,3.9
			c-0.8-0.1-1.5-0.5-2.2-0.9c-4.4-2-8.7-4-13.1-6c-5.7-2.6-11.3-5.1-17-7.7c-4.2-1.9-8.5-3.9-12.7-5.8c-6.4-2.9-12.9-5.8-19.3-8.7
			c-4.2-1.9-8.5-3.9-12.7-5.8C264.2,210.4,257.1,207.2,250,203.9L250,203.9z"/>
		<path class="st2" d="M151.7,248.5c0.9,0,1.7-0.6,2.4-0.9c5.9-2.6,11.7-5.3,17.5-8c7.9-3.6,15.9-7.2,23.8-10.8
			c5.3-2.4,10.5-4.8,15.8-7.2c7.6-3.5,15.3-6.9,22.9-10.4c4.5-2,9-4.1,13.5-6.2c0.8-0.4,1.6-0.7,2.3-1c0,0,0,0,0,0
			c0,0.2,0,0.3,0,0.5c0,34.1,0,68.2,0,102.3c-1.2-0.4-2.2-1.2-3.2-1.8c-22.8-13.5-45.7-27-68.5-40.5c-7.3-4.3-14.7-8.7-22-13
			c-1.3-0.8-2.6-1.5-4-2.2C152,249,151.6,248.9,151.7,248.5z"/>
		<path class="st3" d="M250,306.7c0-34.1,0-68.2,0-102.3c0-0.2,0-0.3,0-0.5c7.1,3.2,14.1,6.4,21.2,9.6c4.2,1.9,8.5,3.9,12.7,5.8
			c6.4,2.9,12.9,5.8,19.3,8.7c4.2,1.9,8.5,3.9,12.7,5.8c5.7,2.6,11.3,5.1,17,7.7c4.4,2,8.7,4,13.1,6c0.7,0.3,1.4,0.7,2.2,0.9
			c0.1,0.6-0.5,0.7-0.8,0.8c-5.3,3.2-10.7,6.3-16,9.5c-8,4.7-16,9.4-23.9,14.1c-12.4,7.3-24.8,14.6-37.2,22
			c-6.5,3.8-13,7.7-19.5,11.5C250.6,306.5,250.3,306.6,250,306.7z"/>
		<path class="st4" d="M151.8,267.6c1.3,0.4,2.5,1.3,3.6,2c9.3,5.4,18.5,10.9,27.7,16.4c9.4,5.5,18.7,11.1,28.1,16.6
			c9,5.3,18.1,10.7,27.1,16c3.7,2.2,7.4,4.4,11,6.5c0.2,0.1,0.4,0.2,0.6,0.3c0,0.2,0,0.4,0,0.6c0,26.3,0,52.5,0,78.8
			c0,0.3-0.1,0.6,0.2,0.9c-0.5,0.3-0.6-0.2-0.8-0.4c-1.2-1.6-2.3-3.2-3.4-4.8c-2-2.8-4-5.6-6-8.4c-2.5-3.6-5-7.2-7.5-10.7
			c-2.8-3.9-5.7-7.9-8.5-11.8c-2.4-3.4-4.8-6.9-7.2-10.3c-2.8-4-5.7-8-8.6-12c-2.5-3.4-4.9-6.9-7.4-10.4c-2.8-4-5.6-8-8.4-12
			c-4.1-5.7-8.2-11.5-12.2-17.2c-2.1-3-4.3-6-6.4-8.9c-3.3-4.6-6.5-9.2-9.8-13.8c-3.1-4.3-6.1-8.6-9.2-12.9
			c-0.9-1.3-1.9-2.6-2.8-3.9C151.9,267.9,151.8,267.8,151.8,267.6L151.8,267.6z"/>
		<path class="st2" d="M250.2,405.7c-0.3-0.2-0.2-0.6-0.2-0.9c0-26.3,0-52.5,0-78.8c0-0.2,0-0.4,0-0.6c12.3-7.3,24.7-14.6,37-21.8
			c18.7-11,37.4-22.1,56.1-33.1c1.6-0.9,3.1-1.9,4.6-2.8c0.2-0.1,0.3-0.2,0.5-0.1c-2.3,3.2-4.5,6.4-6.8,9.6
			c-2.9,4.1-5.8,8.1-8.7,12.2c-6.2,8.6-12.3,17.3-18.5,25.9c-4.1,5.8-8.2,11.6-12.3,17.4c-6.1,8.7-12.3,17.3-18.5,25.9
			c-5.5,7.8-11,15.6-16.5,23.3C261.5,389.8,255.8,397.7,250.2,405.7z"/>
		<path class="st4" d="M151.8,267.6C151.8,267.5,151.8,267.5,151.8,267.6C151.8,267.5,151.8,267.6,151.8,267.6
			C151.8,267.6,151.8,267.6,151.8,267.6z"/>
	</g>
</g>
</svg>
