<svg xmlns="http://www.w3.org/2000/svg" xmlns:xlink="http://www.w3.org/1999/xlink" width="32" height="32" viewBox="0 0 32 32">
  <defs>
    <clipPath id="clip-path">
      <rect id="Rectángulo_62" data-name="Rectángulo 62" width="15.01" height="15.347" fill="#fff"/>
    </clipPath>
  </defs>
  <g id="Grupo_59" data-name="Grupo 59" transform="translate(-313 -535)">
    <circle id="Elipse_10" data-name="Elipse 10" cx="16" cy="16" r="16" transform="translate(313 535)" fill="#8d65d2"/>
    <g id="Grupo_40" data-name="Grupo 40" transform="translate(321.078 543.326)">
      <g id="Grupo_39" data-name="Grupo 39" clip-path="url(#clip-path)">
        <path id="Trazado_197" data-name="Trazado 197" d="M133.323,10.609c-.076-.3-.18-.574-.267-.867-.082-.275-.184-.533-.267-.8s-.185-.547-.267-.8c-.02-.062-.138-.507-.133-.534.011-.06.216-.631.267-.8.1-.35.226-.721.334-1.068.075-.243.253-.575.334-.867.05-.181.182-.44.1-.6s-.672-.423-.837-.534c-.251-.169-.5-.313-.734-.467-.614-.412-1.24-.855-1.868-1.268-.4-.264-.8-.537-1.2-.8a3,3,0,0,0-.8-.467L127.052,0h-.067l0,2.427c.016.079.123.031.136.042a10.282,10.282,0,0,0,1.134.734c.29.192.574.409.867.6.215.141.468.268.667.4.157.1.309.228.467.334s.715.412.8.5a.254.254,0,0,1,.066.233c-.012.124-.208.625-.267.8-.048.143-.11.547-.243.591-.83.021-1.663,0-2.493.009-.377,0-.757,0-1.135,0,0,.244,0,.49,0,.734,0,.221,0,.446,0,.667,0,.2,0,.4,0,.6.422,0,.846,0,1.268,0a20.408,20.408,0,0,0,2.4,0,2.959,2.959,0,0,0,.267.667c.082.253.124.6.2.867-.577.392-1.148.826-1.735,1.2a19.527,19.527,0,0,0-2.268,1.468c-.011.01-.1-.023-.122.009l-.016.087c.075.692-.085,1.536,0,2.207.012.092-.037.116.1.1,1.757-1.142,3.488-2.323,5.239-3.469.359-.235.763-.443,1.126-.678.052-.088-.1-.4-.125-.523" transform="translate(-118.449)" fill="#fff"/>
        <path id="Trazado_198" data-name="Trazado 198" d="M6.5,12.942c-.056-.118-.184-.1-.234-.132-.3-.214-.617-.39-.934-.6l-.4-.267c-.445-.294-.884-.58-1.334-.867a8.356,8.356,0,0,0-1.2-.8,3.793,3.793,0,0,1,.2-.934A2.194,2.194,0,0,0,2.8,8.68c.419-.016.842,0,1.261-.007.377,0,.757,0,1.134,0,.444,0,.891,0,1.335,0,0-.377,0-.757,0-1.135,0-.288,0-.579,0-.868-.422,0-.846,0-1.268,0-.311,0-.623,0-.934,0H2.8c0-.282-.161-.391-.2-.534a5.449,5.449,0,0,1-.2-.867A.255.255,0,0,1,2.531,5c.3-.176.576-.409.867-.6s.587-.351.867-.534C4.844,3.494,5.434,3.129,6,2.736c.119-.083.444-.216.5-.333a2.022,2.022,0,0,0,.033-.6c.019-.576-.014-1.158,0-1.735V0H6.467V.067C6.357.071,6.286.148,6.2.2c-.261.16-.5.381-.734.534-.306.2-.628.4-.934.6-.173.113-.358.219-.534.334S3.64,1.887,3.465,2C2.316,2.753,1.15,3.482.025,4.271a13.191,13.191,0,0,0,.571,2c.041.135.095.268.133.4.052.178.168.405.2.534C1.155,8.119.485,8.972.4,9.875a3.486,3.486,0,0,0-.389,1.256c.474.3.987.571,1.457.879.506.333,1.026.668,1.535,1,.2.131.4.269.6.4.225.146.44.32.667.467.138.09.314.144.4.2a18.11,18.11,0,0,0,1.8,1.2s0,.079.066.067c0-.044,0-.089,0-.133a17.908,17.908,0,0,0,0-1.8,1.314,1.314,0,0,0-.033-.469" transform="translate(0)" fill="#fff"/>
      </g>
    </g>
  </g>
</svg>
