<svg fill="none" xmlns="http://www.w3.org/2000/svg" viewBox="0 0 18 18">
  <path d="M15.3589 9.82526V4.64674c0-.40521-.3285-.73371-.7337-.73371H9.58315c-.42698-.44747-.96673-.75414-1.56122-.89321V1.46739h.73371c.40521 0 .73371-.3285.73371-.733714C9.48935.328465 9.16081 0 8.7556 0H5.82083c-.40521 0-.73371.3285-.73371.733711 0 .405209.3285.733709.73371.733709h.73371v1.55247c-.59449.13904-1.13425.44571-1.56122.89321H2.88605c-.40521 0-.73371.3285-.73371.73371v2.93478c0 .40521.3285.73371.73371.73371h2.10724c.59723.62595 1.41472.97826 2.29496.97826.88024 0 1.69766-.35234 2.2949-.97826h1.37355v1.51003c-.2847.10079-.4891.37177-.4891.69107 0 .4052.3285.7337.7337.7337h3.913c.4052 0 .7337-.3285.7337-.7337 0-.3194-.2043-.59028-.4891-.69114Zm-1.4674-.04265h-1.4674V7.58152c0-.40522-.3285-.73371-.7337-.73371H9.24473c-.23076 0-.4481.10859-.58665.29309-.32702.43548-.82635.68516-1.36986.68516-.54352 0-1.04284-.24971-1.36987-.68516-.13858-.1845-.35588-.29309-.58665-.29309H3.61973V5.38042H5.3317c.23077 0 .44803-.1086.58665-.29303.32703-.43552.82635-.68523 1.36987-.68523.54351 0 1.04284.24971 1.36986.68523.13862.18446.35589.29303.58665.29303h4.64677v4.40219Zm-.2031 3.16179c-.1384-.1451-.3302-.2271-.5308-.2271-.2005 0-.3923.0821-.5307.2271-.3919.4105-1.6704 1.8297-1.6704 2.8544 0 1.2137.9874 2.2011 2.2011 2.2011 1.2138 0 2.2011-.9874 2.2011-2.2011 0-1.0247-1.2785-2.4438-1.6703-2.8544Zm-.5308 3.5881c-.4046 0-.7337-.3291-.7337-.7324.0084-.2016.3192-.7083.7333-1.2303.4112.5199.7259 1.0316.7341 1.229 0 .4046-.329.7337-.7337.7337Z" fill="white" />
</svg>