<?xml version="1.0" encoding="UTF-8"?>
<svg version="1.1" xmlns="http://www.w3.org/2000/svg" width="577" height="160">
<path d="M0 0 C190.41 0 380.82 0 577 0 C577 52.8 577 105.6 577 160 C386.59 160 196.18 160 0 160 C0 107.2 0 54.4 0 0 Z " fill="#FDFDFD" transform="translate(0,0)"/>
<path d="M0 0 C1.37961914 -0.03673828 1.37961914 -0.03673828 2.78710938 -0.07421875 C3.67076172 -0.07808594 4.55441406 -0.08195312 5.46484375 -0.0859375 C6.27429443 -0.09415527 7.08374512 -0.10237305 7.91772461 -0.11083984 C10.0625 0.375 10.0625 0.375 11.66381836 2.00952148 C13.33189046 4.83059856 14.6985706 7.69156959 16.0390625 10.68359375 C16.32186569 11.31046082 16.60466888 11.93732788 16.89604187 12.58319092 C17.83097013 14.65766036 18.75917714 16.73506733 19.6875 18.8125 C21.02520564 21.78742268 22.36622937 24.76084677 23.70703125 27.734375 C24.23036293 28.89691048 24.23036293 28.89691048 24.76426697 30.08293152 C27.3993099 35.92900526 30.07191065 41.75706684 32.76171875 47.578125 C33.14815552 48.41509415 33.53459229 49.25206329 33.93273926 50.11439514 C35.45358528 53.40738192 36.97488192 56.7001444 38.50152588 59.990448 C39.56238275 62.27751797 40.61939467 64.56633133 41.67578125 66.85546875 C41.98972336 67.5291449 42.30366547 68.20282104 42.62712097 68.89691162 C44.35990048 72.66077388 45.82986034 76.41902452 47.0625 80.375 C47.7225 80.375 48.3825 80.375 49.0625 80.375 C48.89984146 79.53915375 48.73718292 78.7033075 48.56959534 77.84213257 C48.02831393 74.14126161 47.9425923 70.6409124 47.94897461 66.90087891 C47.94882858 66.17823853 47.94868256 65.45559814 47.9485321 64.71105957 C47.94922439 62.34119584 47.95698454 59.97141237 47.96484375 57.6015625 C47.96671036 55.95104007 47.96813312 54.30051708 47.96913147 52.6499939 C47.9729375 48.31978813 47.98275134 43.98961626 47.99383545 39.65942383 C48.00409083 35.23519346 48.00863791 30.81095759 48.01367188 26.38671875 C48.02437542 17.7161286 48.04195662 9.04557243 48.0625 0.375 C52.6825 0.375 57.3025 0.375 62.0625 0.375 C62.08562178 12.48341944 62.10341424 24.59183367 62.11431217 36.70027065 C62.11954136 42.32207962 62.12663966 47.94387353 62.13793945 53.56567383 C62.14876706 58.98618277 62.15477656 64.4066772 62.15737724 69.82719612 C62.15923172 71.90014945 62.16285277 73.97310194 62.16823006 76.04604912 C62.1754388 78.93883893 62.17649101 81.83156796 62.17602539 84.72436523 C62.17962067 85.59038864 62.18321594 86.45641205 62.18692017 87.34867859 C62.17655216 93.26094784 62.17655216 93.26094784 61.0625 94.375 C57.96785007 94.68029612 54.85786417 94.65334765 51.75 94.6875 C50.88181641 94.71650391 50.01363281 94.74550781 49.11914062 94.77539062 C48.27931641 94.78376953 47.43949219 94.79214844 46.57421875 94.80078125 C45.80553467 94.81536377 45.03685059 94.82994629 44.24487305 94.8449707 C41.12919249 94.17401365 40.0556522 92.83479686 38.0625 90.375 C36.46948242 87.50708008 36.46948242 87.50708008 34.91796875 84.14453125 C34.63124802 83.52924057 34.34452728 82.91394989 34.04911804 82.28001404 C33.10739572 80.25306869 32.17855081 78.22050887 31.25 76.1875 C30.59259802 74.76435337 29.93454677 73.3415065 29.27587891 71.91894531 C27.54483138 68.17298727 25.82588151 64.42161098 24.11090088 60.66827393 C23.06863868 58.38842777 22.02372603 56.10981471 20.97802734 53.83154297 C18.95926206 49.43175548 16.94651587 45.02924713 14.9375 40.625 C14.62630219 39.94329742 14.31510437 39.26159485 13.99447632 38.55923462 C13.09554768 36.58741522 12.19960666 34.61426688 11.3046875 32.640625 C10.54454346 30.96661621 10.54454346 30.96661621 9.76904297 29.25878906 C7.45706311 23.99713305 5.27296043 18.68010504 3.0625 13.375 C2.7325 40.105 2.4025 66.835 2.0625 94.375 C-2.5575 94.375 -7.1775 94.375 -11.9375 94.375 C-11.98376639 82.41424764 -12.01934014 70.45351644 -12.04112434 58.49269295 C-12.05157774 52.93926974 -12.06576523 47.38590759 -12.08837891 41.83251953 C-12.11005192 36.47683992 -12.1220569 31.12121918 -12.12725449 25.76549911 C-12.13096023 23.71848498 -12.13819624 21.6714742 -12.14896011 19.62448502 C-12.16340142 16.76537267 -12.16548104 13.90650601 -12.16455078 11.04736328 C-12.17533661 9.76774719 -12.17533661 9.76774719 -12.18634033 8.46228027 C-12.1530645 -0.94015308 -7.99053608 0.01115218 0 0 Z " fill="#0A5678" transform="translate(291.9375,36.625)"/>
<path d="M0 0 C4.95 0 9.9 0 15 0 C18.61010783 12.3363152 22.20519677 24.67615803 25.72241211 37.03930664 C27.96065363 44.8936078 30.2494143 52.73291164 32.55273438 60.56835938 C33.96274114 65.37955343 35.35389919 70.19591889 36.70703125 75.0234375 C36.95557861 75.90692871 37.20412598 76.79041992 37.46020508 77.70068359 C38 80 38 80 38 83 C39.32 83 40.64 83 42 83 C42.1139209 81.86820312 42.2278418 80.73640625 42.34521484 79.5703125 C42.93825845 74.85595848 44.14105148 70.42643414 45.4765625 65.875 C45.7227684 65.01821152 45.9689743 64.16142303 46.22264099 63.27867126 C47.01765487 60.5174095 47.82112974 57.75869508 48.625 55 C49.17422798 53.09982979 49.72297289 51.19951988 50.27124023 49.29907227 C51.60404224 44.68427037 52.94365003 40.07147866 54.28546143 35.45928955 C55.27721845 32.04587315 56.26173182 28.63040002 57.24609375 25.21484375 C57.85110611 23.12226383 58.45652714 21.02980198 59.0625 18.9375 C59.32434082 18.03193359 59.58618164 17.12636719 59.85595703 16.19335938 C61.44502592 10.74930768 63.17737245 5.37053162 65 0 C69.62 0 74.24 0 79 0 C77.47313636 7.48425669 75.33411947 14.68570999 73.04296875 21.96875 C72.4545377 23.85605327 71.86610802 25.74335697 71.27775288 27.6306839 C70.45739448 30.2590455 69.6336955 32.88635529 68.80999756 35.51367188 C66.98704363 41.33053753 65.17131105 47.14966135 63.35546875 52.96875 C62.96930389 54.20447754 62.58313904 55.44020508 62.18527222 56.71337891 C59.71798768 64.62917511 57.33017613 72.56154814 55.0637207 80.53710938 C51.68230983 91.54512678 51.68230983 91.54512678 48 94 C45.12316473 94.22151632 42.3750618 94.32449942 39.5 94.3125 C38.34177734 94.33666992 38.34177734 94.33666992 37.16015625 94.36132812 C31.45022941 94.36627607 31.45022941 94.36627607 29.3293457 92.64086914 C23.52331066 85.47422791 21.74740967 72.82066753 19.29711914 64.08325195 C17.67004009 58.29274956 15.95588678 52.54174254 14.125 46.8125 C11.64716803 39.05389259 9.21401572 31.2826082 6.8125 23.5 C6.47943848 22.42596924 6.14637695 21.35193848 5.80322266 20.24536133 C3.73364524 13.52937973 1.81533026 6.78922276 0 0 Z " fill="#085477" transform="translate(480,37)"/>
<path d="M0 0 C0.79803543 -0.00095673 1.59607086 -0.00191345 2.41828918 -0.00289917 C4.10869424 -0.00357967 5.79910192 -0.0017344 7.48950195 0.00244141 C10.05491146 0.00775631 12.62014307 0.00251034 15.18554688 -0.00390625 C16.83203163 -0.00324476 18.47851628 -0.00196213 20.125 0 C20.88362839 -0.00202423 21.64225677 -0.00404846 22.4238739 -0.00613403 C27.32814197 0.01502881 32.03816313 0.4410574 36.89453125 1.1328125 C36.92141276 2.77855816 36.94087248 4.42442663 36.95703125 6.0703125 C36.96863281 6.98683594 36.98023438 7.90335938 36.9921875 8.84765625 C36.89453125 11.1328125 36.89453125 11.1328125 35.89453125 12.1328125 C32.96256608 12.26839801 30.05085703 12.34344335 27.1171875 12.37890625 C25.30663571 12.41184004 23.49608895 12.44505176 21.68554688 12.47851562 C18.81717352 12.52599792 15.9488213 12.57042468 13.08032227 12.60961914 C10.32155851 12.64922316 7.56321949 12.7007931 4.8046875 12.75390625 C3.51245018 12.76652748 3.51245018 12.76652748 2.19410706 12.77940369 C-2.43549004 12.66585994 -2.43549004 12.66585994 -6.10546875 15.1328125 C-6.47754229 17.84897114 -6.47754229 17.84897114 -6.51953125 21.015625 C-6.5551416 22.06637207 -6.59075195 23.11711914 -6.62744141 24.19970703 C-6.66144043 25.53888184 -6.69543945 26.87805664 -6.73046875 28.2578125 C-6.85421875 32.5065625 -6.97796875 36.7553125 -7.10546875 41.1328125 C5.43453125 41.1328125 17.97453125 41.1328125 30.89453125 41.1328125 C30.89453125 44.7628125 30.89453125 48.3928125 30.89453125 52.1328125 C18.02453125 52.1328125 5.15453125 52.1328125 -8.10546875 52.1328125 C-8.10546875 65.9928125 -8.10546875 79.8528125 -8.10546875 94.1328125 C-12.39546875 94.1328125 -16.68546875 94.1328125 -21.10546875 94.1328125 C-21.19821384 83.41465535 -21.26925675 72.69659393 -21.31271744 61.97811699 C-21.33357812 57.00089198 -21.36186813 52.02394183 -21.40722656 47.046875 C-21.45073834 42.24228342 -21.47461729 37.43795596 -21.48497772 32.63318253 C-21.49235951 30.80156421 -21.50677454 28.96996009 -21.52838898 27.13845444 C-21.55749416 24.56968885 -21.56142183 22.00200984 -21.55957031 19.43310547 C-21.57395142 18.67856583 -21.58833252 17.92402618 -21.60314941 17.1466217 C-21.56302485 11.99028495 -20.36834515 9.09371924 -17.10546875 5.1328125 C-11.31426009 0.75985902 -7.08560129 -0.01865743 0 0 Z " fill="#015174" transform="translate(199.10546875,35.8671875)"/>
<path d="M0 0 C24.09 0 48.18 0 73 0 C73 3.96 73 7.92 73 12 C63.1 12 53.2 12 43 12 C43 39.06 43 66.12 43 94 C38.38 94 33.76 94 29 94 C29 66.61 29 39.22 29 11 C19.43 11 9.86 11 0 11 C0 7.37 0 3.74 0 0 Z " fill="#065477" transform="translate(368,37)"/>
<path d="M0 0 C4.54446634 2.98040527 8.01148537 7.30250034 10.04296875 12.33984375 C10.94348201 19.66960281 10.62236223 26.3411061 6.04296875 32.33984375 C1.85049424 36.79062238 -2.36764733 39.87842818 -8.5703125 40.67578125 C-14.93243276 40.76785245 -19.74907254 40.17166758 -24.95703125 36.33984375 C-30.14670667 31.15016833 -33.05591959 25.77279088 -33.39453125 18.40234375 C-33.17614568 12.40583994 -31.4221955 7.9685734 -27.30859375 3.58203125 C-19.20939448 -3.73907901 -9.86742083 -4.90751372 0 0 Z " fill="#035276" transform="translate(152.95703125,88.66015625)"/>
<path d="M0 0 C5.2216357 3.00378631 9.83744292 7.76232875 11.75 13.5 C12.69468596 21.61080376 11.35292449 27.72802616 6.75 34.5 C1.97943784 39.27056216 -2.8963118 40.8017812 -9.5625 40.9375 C-17.07980898 40.78477815 -20.88253265 38.91816041 -26.06640625 33.65625 C-30.54626788 28.08500677 -31.09875273 22.83846663 -30.765625 15.8125 C-29.74978888 9.2865225 -26.82161363 5.46823509 -21.625 1.5625 C-15.11255382 -2.41732822 -7.10166854 -3.15475295 0 0 Z " fill="#035276" transform="translate(150.25,37.5)"/>
<path d="M0 0 C4.62 0 9.24 0 14 0 C14 31.02 14 62.04 14 94 C9.38 94 4.76 94 0 94 C0 62.98 0 31.96 0 0 Z " fill="#0A5678" transform="translate(454,37)"/>
<path d="M0 0 C4.76643036 3.07850181 7.13586294 6.47008883 8.9375 11.875 C9.64169922 19.02089046 9.29131779 24.98060053 4.9375 30.875 C1.14039655 34.95298507 -3.11695461 37.49634992 -8.67578125 38.2109375 C-14.97026657 38.30202991 -19.97837775 37.82674957 -25.0625 33.875 C-29.90189107 28.66524737 -32.52945685 23.13569021 -32.3125 15.921875 C-31.5642083 9.7952367 -28.27519916 5.18566891 -24.0625 0.875 C-17.39832117 -4.12313413 -7.21734163 -3.70426474 0 0 Z " fill="#46B19C" transform="translate(113.0625,14.125)"/>
<path d="M0 0 C4.29 0 8.58 0 13 0 C13 30.69 13 61.38 13 93 C8.71 93 4.42 93 0 93 C0 62.31 0 31.62 0 0 Z " fill="#005074" transform="translate(251,37)"/>
<path d="M0 0 C4.7210664 2.82026251 8.2794839 6.07068655 10.7734375 11.05859375 C11.50572532 17.85840923 11.57273301 23.79483508 7.37890625 29.43359375 C3.15694634 33.7069157 -1.34401802 35.26947305 -7.2890625 35.55859375 C-12.33219584 35.33393804 -15.17720363 34.05511931 -19.2265625 31.05859375 C-24.49757057 25.23274273 -24.57505703 21.2199998 -24.50390625 13.48828125 C-24.15864741 9.21874241 -23.26024104 7.09227229 -20.2265625 4.05859375 C-14.14162858 -0.53615227 -7.40467259 -3.13074753 0 0 Z " fill="#47B19D" transform="translate(66.2265625,24.94140625)"/>
<path d="M0 0 C0.79803543 -0.00095673 1.59607086 -0.00191345 2.41828918 -0.00289917 C4.10869424 -0.00357967 5.79910192 -0.0017344 7.48950195 0.00244141 C10.05491146 0.00775631 12.62014307 0.00251034 15.18554688 -0.00390625 C16.83203163 -0.00324476 18.47851628 -0.00196213 20.125 0 C20.88362839 -0.00202423 21.64225677 -0.00404846 22.4238739 -0.00613403 C27.32814197 0.01502881 32.03816313 0.4410574 36.89453125 1.1328125 C36.92141276 2.77855816 36.94087248 4.42442663 36.95703125 6.0703125 C36.96863281 6.98683594 36.98023438 7.90335938 36.9921875 8.84765625 C36.89453125 11.1328125 36.89453125 11.1328125 35.89453125 12.1328125 C32.96256608 12.26839801 30.05085703 12.34344335 27.1171875 12.37890625 C25.30663571 12.41184004 23.49608895 12.44505176 21.68554688 12.47851562 C18.81717352 12.52599792 15.9488213 12.57042468 13.08032227 12.60961914 C10.32155851 12.64922316 7.56321949 12.7007931 4.8046875 12.75390625 C3.51245018 12.76652748 3.51245018 12.76652748 2.19410706 12.77940369 C-2.43549004 12.66585994 -2.43549004 12.66585994 -6.10546875 15.1328125 C-6.47754229 17.84897114 -6.47754229 17.84897114 -6.51953125 21.015625 C-6.5551416 22.06637207 -6.59075195 23.11711914 -6.62744141 24.19970703 C-6.66144043 25.53888184 -6.69543945 26.87805664 -6.73046875 28.2578125 C-6.85421875 32.5065625 -6.97796875 36.7553125 -7.10546875 41.1328125 C5.43453125 41.1328125 17.97453125 41.1328125 30.89453125 41.1328125 C30.89453125 44.7628125 30.89453125 48.3928125 30.89453125 52.1328125 C30.56453125 52.1328125 30.23453125 52.1328125 29.89453125 52.1328125 C29.89453125 48.8328125 29.89453125 45.5328125 29.89453125 42.1328125 C17.68453125 42.1328125 5.47453125 42.1328125 -7.10546875 42.1328125 C-7.43546875 42.7928125 -7.76546875 43.4528125 -8.10546875 44.1328125 C-9.09546875 43.4728125 -10.08546875 42.8128125 -11.10546875 42.1328125 C-11.10546875 41.4728125 -11.10546875 40.8128125 -11.10546875 40.1328125 C-12.42546875 40.1328125 -13.74546875 40.1328125 -15.10546875 40.1328125 C-14.77546875 33.5328125 -14.44546875 26.9328125 -14.10546875 20.1328125 C-15.09546875 20.1328125 -16.08546875 20.1328125 -17.10546875 20.1328125 C-17.10546875 43.5628125 -17.10546875 66.9928125 -17.10546875 91.1328125 C-17.43546875 91.1328125 -17.76546875 91.1328125 -18.10546875 91.1328125 C-18.43546875 67.3728125 -18.76546875 43.6128125 -19.10546875 19.1328125 C-19.76546875 19.4628125 -20.42546875 19.7928125 -21.10546875 20.1328125 C-21.47780691 15.47858549 -21.57054864 12.08085997 -19.48046875 7.8203125 C-13.7064344 1.28653679 -8.36816153 -0.0220346 0 0 Z " fill="#0D5779" transform="translate(199.10546875,35.8671875)"/>
<path d="M0 0 C3.8950481 2.75503402 6.96207507 6.27796271 8.5625 10.8125 C9.07775317 16.27418358 8.22590792 20.01836574 5.5625 24.8125 C2.50713573 28.14003752 -1.01112445 30.78311034 -5.4375 31.8125 C-11.46023919 31.90205746 -15.77401935 30.82526242 -20.4375 26.8125 C-24.06583663 22.99319828 -24.74750458 19.92970994 -24.9375 14.8125 C-24.74750458 9.69529006 -24.06583663 6.63180172 -20.4375 2.8125 C-14.55533117 -2.63926623 -7.29508016 -2.5201186 0 0 Z " fill="#48B19D" transform="translate(48.4375,64.1875)"/>
<path d="M0 0 C4.1351024 4.47969427 4.67311501 8.43041036 4.45703125 14.3046875 C3.76612951 18.3792362 2.05805257 21.23970518 -1 24 C-5.42628512 26.75022318 -9.94145191 26.65529375 -15 26 C-19.00905457 23.95902677 -21.64221834 21.81130046 -24 18 C-24.87765034 13.17632485 -25.11834127 8.16585426 -22.828125 3.73046875 C-16.76975928 -3.68634496 -8.30121194 -4.92503769 0 0 Z " fill="#F4793E" transform="translate(58,103)"/>
<path d="M0 0 C3.23300086 1.47593517 5.72160787 3.26592945 8 6 C9.20643566 9.61930698 9.32268559 12.19231005 9 16 C5.94736842 21.68421053 5.94736842 21.68421053 2 23 C2 23.66 2 24.32 2 25 C-8.88406696 25.6249225 -8.88406696 25.6249225 -13.125 23.25 C-16.66013262 19.00784085 -17.44575065 15.69254611 -17.3203125 10.25390625 C-16.81993238 6.73293884 -15.31320111 4.63447905 -13 2 C-8.79383796 -0.57484133 -4.80412248 -0.56721303 0 0 Z " fill="#F17C44" transform="translate(78,123)"/>
<path d="M0 0 C3.70219508 2.54525912 4.7681855 4.18864925 6 8.5 C6 12.3746847 5.43413386 14.0249475 3 17 C2.34 17 1.68 17 1 17 C1 17.66 1 18.32 1 19 C-8.93120763 19.77052473 -8.93120763 19.77052473 -12.6875 17.0625 C-14.47146715 12.89990998 -14.90210897 9.45416306 -14 5 C-10.51683295 -0.50565115 -6.09453266 -1.35802086 0 0 Z " fill="#F17C45" transform="translate(108,128)"/>
<path d="M0 0 C0.33 0 0.66 0 1 0 C1.33 17.16 1.66 34.32 2 52 C2.33 52 2.66 52 3 52 C3.04967599 56.30499734 3.08584945 60.60983993 3.10986328 64.91503906 C3.11988105 66.37763376 3.13349912 67.84020863 3.15087891 69.30273438 C3.17531439 71.41281039 3.18652537 73.52262012 3.1953125 75.6328125 C3.20578613 76.90012207 3.21625977 78.16743164 3.22705078 79.47314453 C3.00065167 82.98987733 2.27223601 85.72916487 1 89 C0.67 89 0.34 89 0 89 C0 59.63 0 30.26 0 0 Z " fill="#EEF0F5" transform="translate(354,37)"/>
<path d="M0 0 C2.91342112 1.45671056 3.1297737 3.36932238 4.25 6.375 C4.62640625 7.35210937 5.0028125 8.32921875 5.390625 9.3359375 C5.59171875 10.21507812 5.7928125 11.09421875 6 12 C5.01 13.485 5.01 13.485 4 15 C3.01 15 2.02 15 1 15 C1 37.11 1 59.22 1 82 C0.67 82 0.34 82 0 82 C0 54.94 0 27.88 0 0 Z " fill="#F3F3FB" transform="translate(294,49)"/>
<path d="M0 0 C0.99 0 1.98 0 3 0 C3 3.3 3 6.6 3 10 C2.34 9.67 1.68 9.34 1 9 C1.33 9.53625 1.66 10.0725 2 10.625 C3.22699204 13.5391061 3.14233286 15.86867708 3 19 C2.34 18.01 1.68 17.02 1 16 C0.01 16.33 -0.98 16.66 -2 17 C-3.86558515 13.2688297 -3.58899088 8.82518685 -2.328125 4.91796875 C-1.60916165 3.25282251 -0.81112518 1.62225036 0 0 Z " fill="#53B6A3" transform="translate(84,21)"/>
<path d="M0 0 C0.66 0 1.32 0 2 0 C1.67 1.65 1.34 3.3 1 5 C1.66 5 2.32 5 3 5 C1.5 11 1.5 11 0 17 C-1.32 15.35 -2.64 13.7 -4 12 C-5.32 12.33 -6.64 12.66 -8 13 C-8 12.34 -8 11.68 -8 11 C-7.01 11 -6.02 11 -5 11 C-5.268125 10.443125 -5.53625 9.88625 -5.8125 9.3125 C-5.874375 8.549375 -5.93625 7.78625 -6 7 C-3.625 4.375 -3.625 4.375 -1 2 C-0.67 1.34 -0.34 0.68 0 0 Z " fill="#F9FAF8" transform="translate(61,120)"/>
<path d="M0 0 C0.56460938 0.32484375 1.12921875 0.6496875 1.7109375 0.984375 C4.21426324 2.0950656 5.90301588 2.26820725 8.625 2.25 C9.78902344 2.25773437 9.78902344 2.25773437 10.9765625 2.265625 C13.22688411 2.17915354 13.22688411 2.17915354 15 0 C15.99 0 16.98 0 18 0 C18 1.65 18 3.3 18 5 C15.18433745 6.40783127 12.7636293 6.2076814 9.625 6.25 C7.91183594 6.28867188 7.91183594 6.28867188 6.1640625 6.328125 C2.77063765 5.97621427 1.45291079 5.29582784 -1 3 C-0.67 2.01 -0.34 1.02 0 0 Z " fill="#0F5878" transform="translate(131,72)"/>
<path d="M0 0 C2.54559939 2.54559939 2.35453874 3.64944623 2.4375 7.1875 C2.35411536 12.07512252 1.52587416 14.97734439 -1.640625 18.6953125 C-4.31143954 21.25868047 -6.06025193 21.95728418 -9.75 22.125 C-10.4925 22.08375 -11.235 22.0425 -12 22 C-10.68 21.67 -9.36 21.34 -8 21 C-7.67 19.68 -7.34 18.36 -7 17 C-5.68 17.33 -4.36 17.66 -3 18 C-2.86722656 17.11957031 -2.73445313 16.23914063 -2.59765625 15.33203125 C-2.42105469 14.17058594 -2.24445312 13.00914063 -2.0625 11.8125 C-1.88847656 10.66394531 -1.71445312 9.51539062 -1.53515625 8.33203125 C-1.08620687 5.53674788 -0.57917838 2.77066414 0 0 Z " fill="#EF814E" transform="translate(60,107)"/>
<path d="M0 0 C0.33 0 0.66 0 1 0 C1.69665591 8.14313352 0.64909782 14.15314684 -4 21 C-4.66 21.33 -5.32 21.66 -6 22 C-6 21.01 -6 20.02 -6 19 C-6.66 19 -7.32 19 -8 19 C-8 17.35 -8 15.7 -8 14 C-4.535 13.505 -4.535 13.505 -1 13 C-0.67 8.71 -0.34 4.42 0 0 Z " fill="#165B7A" transform="translate(161,51)"/>
<path d="M0 0 C0.99 0.66 1.98 1.32 3 2 C3.1875 5.625 3.1875 5.625 3 9 C4.65 9.33 6.3 9.66 8 10 C6.68 10.99 5.36 11.98 4 13 C-0.20626034 11.49776416 -1.73900021 8.71449966 -4 5 C-3.34 4.67 -2.68 4.34 -2 4 C-1.34 4.33 -0.68 4.66 0 5 C-0.2784375 4.0409375 -0.2784375 4.0409375 -0.5625 3.0625 C-0.706875 2.381875 -0.85125 1.70125 -1 1 C-0.67 0.67 -0.34 0.34 0 0 Z " fill="#52B6A1" transform="translate(28,80)"/>
<path d="M0 0 C2.05279359 4.10558718 2.2216942 5.80206685 2.125 10.25 C2.10695313 11.32765625 2.08890625 12.4053125 2.0703125 13.515625 C2.04710937 14.33546875 2.02390625 15.1553125 2 16 C1.34 16 0.68 16 0 16 C-0.33 15.34 -0.66 14.68 -1 14 C-1.99 14.66 -2.98 15.32 -4 16 C-2.68 10.72 -1.36 5.44 0 0 Z " fill="#165A7B" transform="translate(539,56)"/>
<path d="M0 0 C-0.99 0 -1.98 0 -3 0 C-3 0.66 -3 1.32 -3 2 C-4.65 2 -6.3 2 -8 2 C-8.226875 2.804375 -8.45375 3.60875 -8.6875 4.4375 C-9.3371875 5.7059375 -9.3371875 5.7059375 -10 7 C-11.65821773 7.37309899 -13.32577014 7.70700977 -15 8 C-16.36020151 9.96758273 -16.36020151 9.96758273 -17 12 C-17 8.44632066 -15.92747922 7.11945637 -13.62890625 4.5 C-9.64811956 0.8342396 -5.34655247 -1.82187645 0 0 Z " fill="#306A85" transform="translate(140,87)"/>
<path d="M0 0 C3.63 0 7.26 0 11 0 C10.01 0.495 10.01 0.495 9 1 C8.3873202 2.78860482 8.3873202 2.78860482 8 4.875 C7.36388761 7.95332961 6.8210698 9.2683953 5 12 C4.67 8.7 4.34 5.4 4 2 C4.99 1.67 5.98 1.34 7 1 C4.69 1 2.38 1 0 1 C0 0.67 0 0.34 0 0 Z " fill="#034E6F" transform="translate(482,37)"/>
<path d="M0 0 C3.3 0 6.6 0 10 0 C10 1.98 10 3.96 10 6 C7.69 5.67 5.38 5.34 3 5 C3 4.01 3 3.02 3 2 C2.01 2 1.02 2 0 2 C0 1.34 0 0.68 0 0 Z " fill="#F37738" transform="translate(99,130)"/>
<path d="M0 0 C1.4793324 2.34952793 2.03412819 3.61590276 1.78515625 6.41796875 C0.92715445 9.23955676 -0.2023688 11.69686308 -1.5625 14.3125 C-2.01753906 15.19550781 -2.47257813 16.07851562 -2.94140625 16.98828125 C-3.46541016 17.98408203 -3.46541016 17.98408203 -4 19 C-5.27182008 16.45635984 -4.82067275 15.75536947 -4.00390625 13.0859375 C-3.66069336 11.94511719 -3.66069336 11.94511719 -3.31054688 10.78125 C-3.06369141 9.9871875 -2.81683594 9.193125 -2.5625 8.375 C-2.31951172 7.57320313 -2.07652344 6.77140625 -1.82617188 5.9453125 C-1.22395927 3.96155332 -0.61281311 1.98051018 0 0 Z " fill="#266682" transform="translate(531,84)"/>
<path d="M0 0 C0.804375 0.495 1.60875 0.99 2.4375 1.5 C-0.86573986 2.60107995 -2.26754769 2.36709271 -5.5625 1.5 C-5.8925 1.17 -6.2225 0.84 -6.5625 0.5 C-8.42022162 0.58984301 -10.27497985 0.74611861 -12.125 0.9375 C-13.13691406 1.03933594 -14.14882813 1.14117188 -15.19140625 1.24609375 C-15.97386719 1.32988281 -16.75632813 1.41367187 -17.5625 1.5 C-12.91685762 -3.14564238 -5.64027942 -2.37485449 0 0 Z " fill="#6CB5A7" transform="translate(67.5625,25.5)"/>
<path d="M0 0 C1.54296875 1.21484375 1.54296875 1.21484375 3 3 C2.92578125 5.19140625 2.92578125 5.19140625 2.3125 7.5625 C2.12300781 8.34753906 1.93351562 9.13257813 1.73828125 9.94140625 C1 12 1 12 -1 14 C-1.79953138 10.71303767 -2.09658936 9.28976808 -1 6 C-0.64763503 4.00326516 -0.31165441 2.00349261 0 0 Z " fill="#F67738" transform="translate(83,130)"/>
<path d="M0 0 C0.66 0.66 1.32 1.32 2 2 C1.25234375 1.98839844 0.5046875 1.97679688 -0.265625 1.96484375 C-1.25046875 1.95582031 -2.2353125 1.94679688 -3.25 1.9375 C-4.22453125 1.92589844 -5.1990625 1.91429688 -6.203125 1.90234375 C-8.9318117 1.89879262 -8.9318117 1.89879262 -11.234375 2.56640625 C-13 3 -13 3 -15 2 C-9.8897705 -1.27578814 -5.75259588 -1.5301905 0 0 Z " fill="#E28E64" transform="translate(54,101)"/>
<path d="M0 0 C0 0.66 0 1.32 0 2 C-0.515625 2.45375 -1.03125 2.9075 -1.5625 3.375 C-2.2740625 4.179375 -2.2740625 4.179375 -3 5 C-2.59070014 7.05396726 -2.59070014 7.05396726 -2 9 C-2.66 9.66 -3.32 10.32 -4 11 C-4.33 10.34 -4.66 9.68 -5 9 C-5.66 9 -6.32 9 -7 9 C-4.4 0 -4.4 0 0 0 Z " fill="#66B7A8" transform="translate(31,66)"/>
<path d="M0 0 C1.4384798 0.06423833 2.87666999 0.14163547 4.3125 0.25 C4.6425 0.91 4.9725 1.57 5.3125 2.25 C0.98801867 2.98832608 -3.34285464 3.64174965 -7.6875 4.25 C-5.84004374 0.30875998 -4.09551026 -0.02575793 0 0 Z " fill="#EA8758" transform="translate(103.6875,127.75)"/>
<path d="M0 0 C0.66 0 1.32 0 2 0 C1.67 1.65 1.34 3.3 1 5 C1.66 5 2.32 5 3 5 C2.67 6.32 2.34 7.64 2 9 C0 8 -2 7 -4 6 C-2.7260411 3.96166576 -1.38938077 1.96147874 0 0 Z " fill="#F5F4ED" transform="translate(61,120)"/>
<path d="M0 0 C1.231394 2.46278801 1.07159196 4.2795055 1 7 C0.01 7 -0.98 7 -2 7 C-2.66 8.32 -3.32 9.64 -4 11 C-4.75 9.375 -4.75 9.375 -5 7 C-3.50594347 4.4601039 -2.09462345 2.09462345 0 0 Z " fill="#22667F" transform="translate(183,40)"/>
<path d="M0 0 C0.33 0.66 0.66 1.32 1 2 C0 5 0 5 -2 6 C-2.40729228 8.32156597 -2.74438677 10.6568787 -3 13 C-3.33 13 -3.66 13 -4 13 C-4.05395478 11.37536158 -4.09277195 9.75021459 -4.125 8.125 C-4.14820312 7.22007813 -4.17140625 6.31515625 -4.1953125 5.3828125 C-4 3 -4 3 -2 1 C-1.34 0.67 -0.68 0.34 0 0 Z " fill="#306D88" transform="translate(124,99)"/>
<path d="M0 0 C0 0.66 0 1.32 0 2 C0.66 2.66 1.32 3.32 2 4 C-3.53846154 3.38461538 -3.53846154 3.38461538 -5.875 1.4375 C-6.24625 0.963125 -6.6175 0.48875 -7 0 C-4.3333581 -1.33332095 -2.83319697 -0.67102033 0 0 Z " fill="#EA8455" transform="translate(45,125)"/>
<path d="M0 0 C0.99 0.495 0.99 0.495 2 1 C2 1.66 2 2.32 2 3 C2.99 3 3.98 3 5 3 C5.33 5.31 5.66 7.62 6 10 C2.51668565 6.98112756 1.20842856 4.43090471 0 0 Z " fill="#206180" transform="translate(120,62)"/>
<path d="M0 0 C1.65 0.33 3.3 0.66 5 1 C2.93243723 3.7972908 1.85559629 4.02692273 -1.6875 4.6875 C-2.780625 4.790625 -3.87375 4.89375 -5 5 C-3.68 4.67 -2.36 4.34 -1 4 C-0.67 2.68 -0.34 1.36 0 0 Z " fill="#E8875B" transform="translate(53,124)"/>
<path d="M0 0 C0.66 0.66 1.32 1.32 2 2 C0.25 6.875 0.25 6.875 -2 8 C-2 5.69 -2 3.38 -2 1 C-1.34 0.67 -0.68 0.34 0 0 Z " fill="#1B607B" transform="translate(531,122)"/>
<path d="M0 0 C-0.33 0.99 -0.66 1.98 -1 3 C-1.53625 2.690625 -2.0725 2.38125 -2.625 2.0625 C-5.3984957 0.82172561 -8.00042837 0.4090325 -11 0 C-11 -0.33 -11 -0.66 -11 -1 C-3.57142857 -2.42857143 -3.57142857 -2.42857143 0 0 Z " fill="#EDEBE0" transform="translate(83,123)"/>
<path d="M0 0 C0.99 0.33 1.98 0.66 3 1 C3 3.64 3 6.28 3 9 C0.53721199 6.53721199 0.00228745 4.29323018 -1 1 C-0.67 0.67 -0.34 0.34 0 0 Z " fill="#175C7B" transform="translate(314,88)"/>
<path d="M0 0 C0 0.66 0 1.32 0 2 C-2.97 2 -5.94 2 -9 2 C-9.33 1.34 -9.66 0.68 -10 0 C-6.30581799 -1.231394 -3.7943739 -0.64432764 0 0 Z " fill="#F8F7F2" transform="translate(53,99)"/>
<path d="M0 0 C0.66 0 1.32 0 2 0 C1.67 3.3 1.34 6.6 1 10 C-1 8 -1 8 -1.1875 4.4375 C-1 1 -1 1 0 0 Z " fill="#165A7D" transform="translate(501,96)"/>
<path d="M0 0 C2 1.1875 2 1.1875 4 3 C4.25 5.6875 4.25 5.6875 4 8 C1.47411298 5.63707344 0.11179163 4.33537489 -1 1 C-0.67 0.67 -0.34 0.34 0 0 Z " fill="#1C5E7A" transform="translate(123,115)"/>
<path d="M0 0 C1.5625 1.8125 1.5625 1.8125 3 4 C2.67 4.99 2.34 5.98 2 7 C1.01 6.67 0.02 6.34 -1 6 C-1.042721 4.33388095 -1.04063832 2.66617115 -1 1 C-0.67 0.67 -0.34 0.34 0 0 Z " fill="#EAEFF0" transform="translate(323,112)"/>
<path d="M0 0 C0.144375 0.598125 0.28875 1.19625 0.4375 1.8125 C0.8872439 3.56150404 1.42892341 5.28677023 2 7 C1.01 7.99 0.02 8.98 -1 10 C-2.31223496 6.06329512 -1.24296256 3.87511856 0 0 Z " fill="#D3E1E4" transform="translate(550,65)"/>
<path d="M0 0 C2.97 0 5.94 0 9 0 C8.01 0.33 7.02 0.66 6 1 C6 1.66 6 2.32 6 3 C3.03 2.505 3.03 2.505 0 2 C0 1.34 0 0.68 0 0 Z " fill="#3FAD94" transform="translate(98,12)"/>
<path d="M0 0 C0.99 0.33 1.98 0.66 3 1 C3.33 3.31 3.66 5.62 4 8 C2 6.25 2 6.25 0 4 C0 2.68 0 1.36 0 0 Z " fill="#E68758" transform="translate(34,117)"/>
<path d="M0 0 C0.33 0 0.66 0 1 0 C1.08096803 1.45742463 1.13917774 2.91612807 1.1875 4.375 C1.22230469 5.18710938 1.25710938 5.99921875 1.29296875 6.8359375 C1.19628906 7.55007812 1.09960938 8.26421875 1 9 C0.01 9.66 -0.98 10.32 -2 11 C-1 3.57142857 -1 3.57142857 0 0 Z " fill="#357087" transform="translate(524,108)"/>
<path d="M0 0 C0.66 0 1.32 0 2 0 C2.6875 1.8125 2.6875 1.8125 3 4 C1.5625 5.75 1.5625 5.75 0 7 C-0.38133299 5.0085944 -0.71325582 3.00720923 -1 1 C-0.67 0.67 -0.34 0.34 0 0 Z " fill="#F5F9F6" transform="translate(314,95)"/>
<path d="M0 0 C0.66 2.31 1.32 4.62 2 7 C1.34 7.66 0.68 8.32 0 9 C-0.99 6.36 -1.98 3.72 -3 1 C-1 0 -1 0 0 0 Z " fill="#1C6078" transform="translate(301,55)"/>
<path d="M0 0 C2 1 2 1 2.6875 2.9375 C3 5 3 5 2 7 C1.34 7 0.68 7 0 7 C-1.125 2.25 -1.125 2.25 0 0 Z " fill="#52B3A1" transform="translate(84,36)"/>
</svg>
