<svg width="16" height="18" viewBox="0 0 16 18" fill="none" xmlns="http://www.w3.org/2000/svg">
<path d="M14.5997 10.4749L14.5998 10.4749C14.6138 8.76521 13.9814 7.11907 12.8384 5.86666L11.691 7.36232L10.1947 9.31289L10.078 6.85723C10.032 5.88961 9.9965 5.20364 9.42181 3.59924C9.14846 2.83611 8.73834 2.12163 8.37779 1.5836C8.2305 1.36381 8.09476 1.17833 7.98526 1.03652L3.33991 5.71125L3.33988 5.71127C0.80444 8.26252 0.74702 12.3835 3.21095 15.0055L3.21324 15.0079C3.55471 15.374 3.82485 15.6297 4.17727 15.8544L4.19618 15.8665L4.21448 15.8795C4.30259 15.942 4.38895 16.0008 4.47493 16.0559C5.18583 16.5101 5.9763 16.8226 6.80336 16.9767C7.63338 17.0843 8.37381 17.0849 9.20609 16.981C10.0309 16.8304 10.8201 16.5222 11.5305 16.0729L14.5997 10.4749ZM14.5997 10.4749L14.5997 10.4841M14.5997 10.4749L14.5997 10.4841M14.5997 10.4841C14.6031 12.1599 13.9704 13.7724 12.833 14.9924M14.5997 10.4841L12.833 14.9924M12.833 14.9924C12.4677 15.3322 12.1476 15.6294 11.7975 15.8943C11.7096 15.9563 11.6207 16.0157 11.5308 16.0727L12.833 14.9924Z" stroke="#0179EF" stroke-width="1.8"/>
</svg>
