<svg xmlns="http://www.w3.org/2000/svg" xmlns:xlink="http://www.w3.org/1999/xlink" width="800" height="800" viewBox="0 0 800 800">
  <defs>
    <clipPath id="clip-path">
      <rect id="Rectángulo_1" data-name="Rectángulo 1" width="452.072" height="330.188" fill="none"/>
    </clipPath>
    <clipPath id="clip-gamestop-token">
      <rect width="800" height="800"/>
    </clipPath>
  </defs>
  <g id="gamestop-token" clip-path="url(#clip-gamestop-token)">
    <circle id="Elipse_1" data-name="Elipse 1" cx="400" cy="400" r="400"/>
    <g id="Grupo_2" data-name="Grupo 2" transform="translate(173.964 234.906)">
      <g id="Grupo_1" data-name="Grupo 1" transform="translate(0 0)" clip-path="url(#clip-path)">
        <path id="Trazado_1" data-name="Trazado 1" d="M241.021,174.976c-11.045-13.952-37.2-31.972-79.64-54.062-14.533-7.557-23.834-13.952-26.741-19.183-3.488-5.232-5.232-13.37-5.232-23.834,0-8.138,1.163-14.533,4.069-18.021,2.907-4.069,6.976-5.813,12.789-5.813,5.232,0,8.72,1.744,11.045,4.651S160.8,68.6,160.8,79.64v23.253h87.779V90.1c0-25-2.907-43.017-8.72-53.481S223,17.439,205.561,10.464,167.194,0,142.779,0c-22.671,0-41.855,2.907-57.55,9.3S57.906,24.415,50.931,35.46,40.467,64.526,40.467,88.941c0,16.858,2.325,30.81,7.557,41.273,5.232,11.045,11.045,19.183,19.183,25.578,7.557,6.394,23.253,15.7,46.505,29.647,23.253,13.37,38.367,23.253,44.18,29.066s8.72,18.021,8.72,36.623c0,8.138-1.744,14.533-4.651,19.183-2.907,4.069-7.557,6.394-13.952,6.394s-10.464-1.744-13.37-5.232c-2.325-3.488-3.488-11.045-3.488-23.253v-22.09H43.374v11.045c0,23.834,2.907,35.46,8.138,48.249,5.813,12.789,17.439,23.253,35.46,31.972,18.021,8.138,39.529,12.208,65.107,12.208,23.253,0,43.017-3.488,60.457-11.045,17.439-6.976,29.066-16.277,35.46-26.741,5.813-10.464,9.3-27.322,9.3-49.993,0-30.81-5.232-52.9-16.277-66.851" transform="translate(194.774 0)" fill="#e1251b"/>
        <path id="Trazado_2" data-name="Trazado 2" d="M220.319,123.239H125.564V94.755c0-18.021-1.163-29.647-2.907-33.716-1.744-4.651-5.813-6.976-12.789-6.976-5.813,0-9.882,1.744-12.208,5.813S94.755,73.827,94.755,90.1V241.827c0,13.952,1.163,23.834,2.907,27.9,2.325,4.651,6.394,6.976,12.789,6.976,6.976,0,11.626-2.325,13.952-7.557s3.488-15.114,3.488-29.647V202.3h-18.6V162.187H220.319V324.374H158.7L151.723,301.7a57.782,57.782,0,0,1-24.415,21.509q-14.824,6.976-34.879,6.976a107.04,107.04,0,0,1-44.761-9.882c-13.952-6.395-24.415-15.114-31.391-25S4.651,274.962,2.907,263.917,0,236.6,0,214.506V120.914C0,90.685,1.744,68.6,5.813,55.225,9.3,41.273,20.346,29.066,38.367,17.439,55.806,5.813,79.059,0,106.962,0s50.575,4.651,69.177,15.114c18.6,9.882,30.228,21.509,36.042,35.46,5.813,13.37,8.138,33.135,8.138,59.294" transform="translate(0 0)" fill="#fff"/>
      </g>
    </g>
  </g>
</svg>
