<svg xmlns="http://www.w3.org/2000/svg" width="32" height="32" viewBox="0 0 32 32">
  <g id="Grupo_78" data-name="Grupo 78" transform="translate(-550 -658)">
    <circle id="Elipse_16" data-name="Elipse 16" cx="16" cy="16" r="16" transform="translate(550 658)"/>
    <path id="Trazado_237" data-name="Trazado 237" d="M-21.541-98.665h-4.185v-1.461a7.244,7.244,0,0,0-.119-1.73.529.529,0,0,0-.567-.348.526.526,0,0,0-.527.3,4.854,4.854,0,0,0-.139,1.531v7.723a4.6,4.6,0,0,0,.139,1.426.542.542,0,0,0,.557.343.614.614,0,0,0,.621-.388A4.535,4.535,0,0,0-25.6-92.78v-1.908h-.845v-2.445h4.9V-88.5h-2.634l-.388-1.153a2.924,2.924,0,0,1-1.078,1.118,3.039,3.039,0,0,1-1.536.373,3.992,3.992,0,0,1-1.973-.512,3.776,3.776,0,0,1-1.4-1.267,4.016,4.016,0,0,1-.6-1.585,19.046,19.046,0,0,1-.119-2.49v-4.781a16.015,16.015,0,0,1,.248-3.35,3.436,3.436,0,0,1,1.426-1.913,5,5,0,0,1,3.047-.87,5.677,5.677,0,0,1,3.052.755,3.566,3.566,0,0,1,1.58,1.794,9.5,9.5,0,0,1,.368,3.017Z" transform="translate(587.254 770.542)" fill="#fff"/>
    <path id="Trazado_236" data-name="Trazado 236" d="M-21.286-99.718h-3.886v-1.193a2.34,2.34,0,0,0-.149-1.064.548.548,0,0,0-.5-.229.633.633,0,0,0-.572.308,1.786,1.786,0,0,0-.194.934,2.639,2.639,0,0,0,.219,1.213,3.173,3.173,0,0,0,1.183.984,11.95,11.95,0,0,1,3.519,2.724,6.24,6.24,0,0,1,.726,3.429,6.016,6.016,0,0,1-.4,2.535A3.153,3.153,0,0,1-22.9-88.71a6.153,6.153,0,0,1-2.684.552,6,6,0,0,1-2.868-.636A3.12,3.12,0,0,1-30-90.415a8.306,8.306,0,0,1-.368-2.793v-1.054h3.886V-92.3a2.578,2.578,0,0,0,.164,1.163.634.634,0,0,0,.581.258.681.681,0,0,0,.621-.328,1.872,1.872,0,0,0,.2-.974,3.018,3.018,0,0,0-.388-1.859A12.357,12.357,0,0,0-27.26-95.5,19.265,19.265,0,0,1-29.328-97a3.512,3.512,0,0,1-.84-1.292A5.686,5.686,0,0,1-30.5-100.4a5.846,5.846,0,0,1,.472-2.7,3.177,3.177,0,0,1,1.526-1.337,6.086,6.086,0,0,1,2.545-.482,6.63,6.63,0,0,1,2.778.527,2.909,2.909,0,0,1,1.521,1.327,7.025,7.025,0,0,1,.373,2.719Z" transform="translate(596.947 770.542)" fill="#fd0000"/>
  </g>
</svg>
