<svg width="32" height="32" viewBox="0 0 32 32" fill="none" xmlns="http://www.w3.org/2000/svg">
  <g clip-path="url(#clip0_6300_3408)">
    <path
      d="M31.8698 18.6906L29.0628 15.3221C29.0368 15.2909 29.0027 15.2719 28.9719 15.2478C28.9507 15.2311 28.9359 15.2088 28.9118 15.1949L10.3855 4.52839C10.2383 4.44339 10.0612 4.4297 9.9039 4.49082L2.60572 7.29782C2.55059 7.31901 2.50634 7.35401 2.46247 7.38895C2.44972 7.39907 2.43328 7.40382 2.42134 7.41514C2.36459 7.46901 2.32147 7.53382 2.29153 7.60489C2.29022 7.60814 2.28709 7.61007 2.28578 7.61332L0.0401535 13.2273C-0.0593465 13.4765 0.031091 13.761 0.255903 13.9069L21.0278 27.3805C21.0417 27.3896 21.0577 27.3932 21.0722 27.4009C21.0877 27.4091 21.1023 27.4155 21.1184 27.4222C21.1875 27.4511 21.2595 27.471 21.3335 27.471H21.3336H21.3337C21.4035 27.471 21.4723 27.4541 21.5388 27.4278C21.5457 27.4251 21.5532 27.4263 21.5599 27.4233C21.6012 27.4051 21.639 27.3817 21.6741 27.3551C21.6753 27.3541 21.6768 27.4486 21.6781 27.4476L21.6795 27.5412C21.6797 27.5412 21.6799 27.5412 21.6801 27.5412L31.7833 19.5882C31.9037 19.4947 31.9807 19.2616 31.9969 19.1103C32.0132 18.9589 31.9674 18.8074 31.8698 18.6906ZM10.0572 5.63501L27.6017 15.7364L22.4333 19.4953L4.05547 7.94345L10.0572 5.63501ZM20.9203 25.9726L1.25428 13.2161L3.07828 8.65551L21.8411 20.449L20.9203 25.9726ZM22.1235 25.5839L22.9722 20.4918L28.5368 16.4448L30.6357 18.9634L22.1235 25.5839Z"
      fill="white" />
  </g>
  <defs>
    <clipPath id="clip0_6300_3408">
      <rect width="32" height="32" fill="white" />
    </clipPath>
  </defs>
</svg>
