<svg width="20" height="20" viewBox="0 0 20 20" fill="none" xmlns="http://www.w3.org/2000/svg">
  <path
    d="M8 7C7.45 7 7 7.45 7 8C7 8.55 7.45 9 8 9C8.55 9 9 8.55 9 8C9 7.45 8.55 7 8 7ZM8 11C7.45 11 7 11.45 7 12C7 12.55 7.45 13 8 13C8.55 13 9 12.55 9 12C9 11.45 8.55 11 8 11ZM5 7.5C4.725 7.5 4.5 7.725 4.5 8C4.5 8.275 4.725 8.5 5 8.5C5.275 8.5 5.5 8.275 5.5 8C5.5 7.725 5.275 7.5 5 7.5ZM8 14.5C7.725 14.5 7.5 14.725 7.5 15C7.5 15.275 7.725 15.5 8 15.5C8.275 15.5 8.5 15.275 8.5 15C8.5 14.725 8.275 14.5 8 14.5ZM5 11.5C4.725 11.5 4.5 11.725 4.5 12C4.5 12.275 4.725 12.5 5 12.5C5.275 12.5 5.5 12.275 5.5 12C5.5 11.725 5.275 11.5 5 11.5ZM8 5.5C8.275 5.5 8.5 5.275 8.5 5C8.5 4.725 8.275 4.5 8 4.5C7.725 4.5 7.5 4.725 7.5 5C7.5 5.275 7.725 5.5 8 5.5ZM12 7C11.45 7 11 7.45 11 8C11 8.55 11.45 9 12 9C12.55 9 13 8.55 13 8C13 7.45 12.55 7 12 7ZM12 5.5C12.275 5.5 12.5 5.275 12.5 5C12.5 4.725 12.275 4.5 12 4.5C11.725 4.5 11.5 4.725 11.5 5C11.5 5.275 11.725 5.5 12 5.5ZM15 11.5C14.725 11.5 14.5 11.725 14.5 12C14.5 12.275 14.725 12.5 15 12.5C15.275 12.5 15.5 12.275 15.5 12C15.5 11.725 15.275 11.5 15 11.5ZM15 7.5C14.725 7.5 14.5 7.725 14.5 8C14.5 8.275 14.725 8.5 15 8.5C15.275 8.5 15.5 8.275 15.5 8C15.5 7.725 15.275 7.5 15 7.5ZM10 0C4.475 0 0 4.475 0 10C0 15.525 4.475 20 10 20C15.525 20 20 15.525 20 10C20 4.475 15.525 0 10 0ZM10 18C5.58 18 2 14.42 2 10C2 5.58 5.58 2 10 2C14.42 2 18 5.58 18 10C18 14.42 14.42 18 10 18ZM12 14.5C11.725 14.5 11.5 14.725 11.5 15C11.5 15.275 11.725 15.5 12 15.5C12.275 15.5 12.5 15.275 12.5 15C12.5 14.725 12.275 14.5 12 14.5ZM12 11C11.45 11 11 11.45 11 12C11 12.55 11.45 13 12 13C12.55 13 13 12.55 13 12C13 11.45 12.55 11 12 11Z"
    fill="#0179EF" />
</svg>
