<svg xmlns="http://www.w3.org/2000/svg" xmlns:xlink="http://www.w3.org/1999/xlink" width="32" height="32" viewBox="0 0 32 32">
  <defs>
    <clipPath id="clip-path">
      <rect id="Rectángulo_59" data-name="Rectángulo 59" width="18.073" height="18.084" fill="#fff"/>
    </clipPath>
  </defs>
  <g id="Grupo_62" data-name="Grupo 62" transform="translate(-313 -349)">
    <circle id="Elipse_7" data-name="Elipse 7" cx="16" cy="16" r="16" transform="translate(313 349)" fill="#0078f0"/>
    <g id="Grupo_33" data-name="Grupo 33" transform="translate(319.534 356.286)">
      <g id="Grupo_32" data-name="Grupo 32" clip-path="url(#clip-path)">
        <path id="Trazado_188" data-name="Trazado 188" d="M9.205,0l.8.058A9.058,9.058,0,0,1,17.858,11a8.955,8.955,0,0,1-2.235,4.2L9.052,8.637l-4.817,4.79-.014.068a6.66,6.66,0,0,0,3.333,1.937,6.531,6.531,0,0,0,4.8-.731l.069.015,1.751,1.767a9.48,9.48,0,0,1-3.742,1.485l-1.227.117H8.879c-.028-.045-.1-.027-.149-.028a9,9,0,0,1-7.08-3.836,5.651,5.651,0,0,1-.615-1.059l8-8L15.206,11.3c.083-.261.17-.519.231-.787A6.561,6.561,0,0,0,2.653,7.553a11.494,11.494,0,0,0-.2,1.488L.286,11.214l-.2-.995L0,9.2c0-.108,0-.218,0-.326A9.088,9.088,0,0,1,8.879,0Z" transform="translate(0.001)" fill="#fff"/>
      </g>
    </g>
  </g>
</svg>
