<svg xmlns="http://www.w3.org/2000/svg" xmlns:xlink="http://www.w3.org/1999/xlink" width="800" height="800" viewBox="0 0 800 800">
  <defs>
    <clipPath id="clip-Tamaño_personalizado_1">
      <rect width="800" height="800"/>
    </clipPath>
  </defs>
  <g id="Tamaño_personalizado_1" data-name="Tamaño personalizado – 1" clip-path="url(#clip-Tamaño_personalizado_1)">
    <circle id="Elipse_1" data-name="Elipse 1" cx="400" cy="400" r="400" fill="#50beff"/>
    <g id="House" transform="translate(41.476 -93.536)">
      <path id="Trazado_1" data-name="Trazado 1" d="M519.905,636.884V615.592c0-17.791.143-35.569-.065-53.36-.078-6.13,2.395-8.811,8.447-8.6,4.555.156,9.11.169,13.665-.039,6.091-.273,8.6,2.395,8.538,8.5-.169,16.919-.039,33.838-.039,50.757,0,14.537.039,29.062-.013,43.6-.039,9.41-.924,10.321-10.568,10.321q-116.8.039-233.6.026H153.359c-10.49,0-11.258-.742-11.258-10.958q-.02-116.469,0-232.95a63.444,63.444,0,0,1,.221-6.494c.794-7.679,6.755-13.743,13.783-14.173a15.285,15.285,0,0,1,15.657,12.078,55.81,55.81,0,0,1,.859,11.622q.078,100.207.026,200.413c0,10.36.1,10.542,10.49,10.542q160.725.039,321.437.013h15.292Z" transform="translate(12.212 49.161)" fill="#fff"/>
      <path id="Trazado_2" data-name="Trazado 2" d="M452.519,310.194q28.639,22.333,57.278,44.653c32.875,25.665,65.815,51.252,98.547,77.1,8.772,6.924,9.175,13.353,2.642,22.424l-.13-.286.156.273c-5.9,5.792-13.288,7.106-19.912,2.069-20.329-15.474-40.281-31.444-60.44-47.139-13.652-10.633-27.448-21.1-41.087-31.743q-40.7-31.762-81.316-63.642c-14.863-11.6-29.895-22.958-44.719-34.593-3.93-3.084-6.729-2.876-10.75.312-17.453,13.809-35.231,27.214-52.892,40.762-.429.417-.859.833-1.288,1.262q-23.426,18.136-46.84,36.272c-.495.534-.976,1.067-1.471,1.6-17.518,13.77-34.984,27.6-52.566,41.3q-34.827,27.116-69.824,54c-7.731,5.935-13.431,6.013-20.628.82.885,0,1.77.013,2.655.026l.26.156-.286-.13c-1.288-.43-2.564-.846-3.852-1.275-6.364-7.653-5.922-14.407,1.275-19.639.1-.117.325-.26.312-.351a4.887,4.887,0,0,0-.325-.82c4.985-4.139,9.891-8.408,14.993-12.4q54.876-43.046,109.844-85.975c4.269-3.332,8.707-6.429,13.08-9.631l.221.234-.1-.325q33.773-26.472,67.559-52.944c12.963-10.151,26.081-20.121,38.862-30.493,4.386-3.553,7.5-4.152,12.351-.338,29.127,22.88,58.553,45.4,87.875,68.041v.573l.534-.117Z" transform="translate(0 0)" fill="#fff"/>
      <path id="Trazado_3" data-name="Trazado 3" d="M432.459,444.89c0-8.46-.2-16.919.052-25.366.3-10.151,7.236-17.635,15.618-17.323,8.069.3,14.694,7.926,14.772,17.492.13,16.477-.091,32.966.091,49.443.065,6.377-2.655,9.175-8.98,8.9-4.763-.208-9.54-.156-14.316-.117-5.206.039-7.405-2.512-7.314-7.653.143-8.46.039-16.919.039-25.366h.026Z" transform="translate(99.724 49.162)" fill="#fff"/>
      <path id="Trazado_4" data-name="Trazado 4" d="M172.675,636.884V615.592c0-17.791-.143-35.569.065-53.36.078-6.13-2.395-8.811-8.447-8.6-4.555.156-9.11.169-13.665-.039-6.091-.273-8.6,2.395-8.538,8.5.169,16.919.039,33.838.039,50.757,0,14.537-.039,29.062.013,43.6.039,9.41.924,10.321,10.568,10.321q116.8.039,233.6.026h152.91c10.49,0,11.258-.742,11.258-10.958q.02-116.469,0-232.95a63.44,63.44,0,0,0-.221-6.494c-.794-7.679-6.755-13.743-13.783-14.173a15.285,15.285,0,0,0-15.657,12.078,55.808,55.808,0,0,0-.859,11.622q-.078,100.207-.026,200.413c0,10.36-.1,10.542-10.49,10.542q-160.725.039-321.437.013H172.714Z" transform="translate(12.21 49.161)" fill="#fff"/>
    </g>
  </g>
</svg>
