<svg xmlns="http://www.w3.org/2000/svg" width="32" height="32" viewBox="0 0 32 32">
  <g id="Grupo_64" data-name="Grupo 64" transform="translate(-313 -906)">
    <circle id="Elipse_15" data-name="Elipse 15" cx="16" cy="16" r="16" transform="translate(313 906)"/>
    <g id="Grupo_63" data-name="Grupo 63" transform="translate(319.021 911.708)">
      <path id="Trazado_205" data-name="Trazado 205" d="M89.66,24l1.07,4.118c-.12.09-.27.022-.272.251,0,.407.674,2.075.549,2.232l-.4-.236-1.62-6.15Z" transform="translate(-80.232 -23.995)" fill="#fff"/>
      <path id="Trazado_206" data-name="Trazado 206" d="M73.637,34.074c-.156.12-.318.014-.439-.17-1.159-1.765-2.09-3.809-3.2-5.618l.472-.27.131.135c.46,1.125,1.559,2.335,1.994,3.411.109.269-.151.327-.114.5.043.2,1.246,1.942,1.154,2.012" transform="translate(-63.804 -27.475)" fill="#fff"/>
      <path id="Trazado_207" data-name="Trazado 207" d="M43.039,53.13c0,.154-.161.307,0,.454.321.3,1.571.7,1.83,1.009.081.1.128.264,0,.273L39,51.566l.454-.458Z" transform="translate(-36.983 -47.456)" fill="#fff"/>
      <path id="Trazado_208" data-name="Trazado 208" d="M30.6,96.008c-.083.265-.332.355-.565.444-1.774.681-4.017.872-5.821,1.579L24,97.354l4.117-1.07c.09.12.022.27.251.272.646.006,1.535-.564,2.232-.549" transform="translate(-23.996 -86.309)" fill="#fff"/>
      <path id="Trazado_209" data-name="Trazado 209" d="M116.233,34.164l-.262-.133-.609,2.155-.334-.067,1.642-6.033c.21-.432.661-.28.619.2-.1,1.108-.908,2.705-1.055,3.877" transform="translate(-102.766 -29.045)" fill="#fff"/>
      <path id="Trazado_210" data-name="Trazado 210" d="M34.164,69.223l-.133.262,2.288.544-.2.389-6.034-1.631c-.432-.21-.28-.661.2-.619,1.108.1,2.705.908,3.877,1.055" transform="translate(-29.045 -62.216)" fill="#fff"/>
      <path id="Trazado_211" data-name="Trazado 211" d="M124.707,40.153l-2.034,3.761c-.154,0-.308-.163-.453,0-.3.324-.625,1.2-.933,1.641-.052.074-.15.487-.348.253-.213-.252,2.935-5.061,3.168-5.789Z" transform="translate(-107.873 -37.858)" fill="#fff"/>
      <path id="Trazado_212" data-name="Trazado 212" d="M34.075,103.987l-5.726,3.5-.332-.47c1.115-.546,2.443-1.679,3.546-2.125.269-.109.327.151.5.114.49-.106,1.374-1.08,2.013-1.019" transform="translate(-27.475 -93.211)" fill="#fff"/>
      <path id="Trazado_213" data-name="Trazado 213" d="M127,73.514l5.726-3.5.332.47-3.637,2.156c-.777-.383-1.559.889-2.421.873" transform="translate(-113.131 -63.817)" fill="#fff"/>
      <path id="Trazado_215" data-name="Trazado 215" d="M68.681,128.368l-.405-.062-.108-.374,1.057-3.873.262.133c.2-.607.333-1.238.507-1.855.05-.176-.063-.528.237-.432Z" transform="translate(-62.219 -108.704)" fill="#fff"/>
      <path id="Trazado_216" data-name="Trazado 216" d="M98.03,133.465l-.457.122-1.292-4.1c.12-.093.277-.022.279-.254.007-.633-.526-1.56-.549-2.232.265.083.355.332.444.565.687,1.789.9,4.067,1.576,5.9" transform="translate(-86.311 -113.127)" fill="#fff"/>
      <path id="Trazado_217" data-name="Trazado 217" d="M128.481,118.052l-.062.405c-.111.154-.211.128-.374.108-.34-.042-3.594-.927-3.8-1.047-.109-.063.082-.257-.059-.345-.475-.3-1.69-.188-2.164-.673Z" transform="translate(-108.817 -104.041)" fill="#fff"/>
      <path id="Trazado_218" data-name="Trazado 218" d="M54.776,116.536c.118.146-.119.424-.184.556-.82,1.672-2.038,3.267-2.852,4.96l-.282.249-.452-.11,2.036-3.764c.154,0,.307.161.454,0,.236-.255.644-1.232.932-1.642.05-.072.156-.492.348-.253" transform="translate(-47.368 -104.009)" fill="#fff"/>
      <path id="Trazado_219" data-name="Trazado 219" d="M103.391,127.139l3.25,5.771-.663.129-1.965-3.5c-.046-.162.179-.245.146-.408-.079-.39-.984-1.466-1.154-1.947Z" transform="translate(-92.364 -113.247)" fill="#fff"/>
      <path id="Trazado_220" data-name="Trazado 220" d="M122.19,124.568c-1-.665-2.6-1.233-3.5-1.961-.277-.223-.143-.411-.266-.526-.324-.3-1.2-.628-1.635-.936-.071-.05-.493-.155-.253-.348.146-.117.424.119.556.184,1.669.819,3.278,2.025,4.96,2.852l.25.283Z" transform="translate(-104.008 -107.732)" fill="#fff"/>
      <path id="Trazado_221" data-name="Trazado 221" d="M58.254,43.007l-4.785-4.579.206-.344c.16-.124.22-.016.341.066.219.15,2.667,2.6,2.767,2.766s-.015.334.112.542c.3.482,1.234.915,1.359,1.548" transform="translate(-49.499 -36.138)" fill="#fff"/>
      <path id="Trazado_222" data-name="Trazado 222" d="M125,58.254l4.579-4.785.344.206c.124.16.016.22-.066.341-.15.219-2.6,2.667-2.766,2.767s-.334-.015-.542.112c-.482.3-.915,1.234-1.548,1.359" transform="translate(-111.4 -49.499)" fill="#fff"/>
      <path id="Trazado_223" data-name="Trazado 223" d="M43.007,111l-4.579,4.785-.344-.206c-.124-.16-.016-.22.066-.341.15-.219,2.6-2.667,2.766-2.767s.334.015.542-.112c.482-.3.915-1.234,1.548-1.359" transform="translate(-36.138 -99.286)" fill="#fff"/>
      <path id="Trazado_224" data-name="Trazado 224" d="M111,125l4.785,4.579-.206.344c-.16.124-.22.016-.341-.066-.219-.15-2.667-2.6-2.767-2.766s.015-.334-.112-.542c-.3-.482-1.234-.915-1.359-1.548" transform="translate(-99.286 -111.4)" fill="#fff"/>
      <path id="Trazado_225" data-name="Trazado 225" d="M109,25h.538c-.127,1.285.169,2.873.011,4.118-.033.258-.258.128-.291.386-.073.575.086,1.309.011,1.9-.031.246.046.218-.27.2Z" transform="translate(-97.551 -24.86)" fill="#fff"/>
      <path id="Trazado_226" data-name="Trazado 226" d="M29.31,86.668c.012.008-.054.234.088.271.463.124,1.437-.074,2,0,.246.031.218-.046.2.27H25v-.539c.615.124,4.061-.163,4.31,0" transform="translate(-24.865 -78.182)" fill="#fff"/>
      <path id="Trazado_228" data-name="Trazado 228" d="M87.539,125.928v6.6H87v-4.31c0-.014.233.056.271-.088.124-.463-.074-1.437,0-2,.031-.246-.046-.218.27-.2" transform="translate(-78.514 -112.189)" fill="#fff"/>
    </g>
  </g>
</svg>
