<svg xmlns="http://www.w3.org/2000/svg" xmlns:xlink="http://www.w3.org/1999/xlink" width="800" height="800" viewBox="0 0 800 800">
  <defs>
    <clipPath id="clip-path">
      <rect id="Rect치ngulo_13" data-name="Rect치ngulo 13" width="534.019" height="207.17" fill="#fff"/>
    </clipPath>
    <clipPath id="clip-Intel">
      <rect width="800" height="800"/>
    </clipPath>
  </defs>
  <g id="Intel" clip-path="url(#clip-Intel)">
    <rect width="800" height="800" fill="#fff"/>
    <circle id="Elipse_1" data-name="Elipse 1" cx="400" cy="400" r="400" fill="#00c7fd"/>
    <g id="Grupo_15" data-name="Grupo 15" transform="translate(143.091 296.415)">
      <rect id="Rect치ngulo_12" data-name="Rect치ngulo 12" width="38.655" height="38.655" transform="translate(0 2.889)" fill="#fff"/>
      <g id="Grupo_14" data-name="Grupo 14">
        <g id="Grupo_13" data-name="Grupo 13" clip-path="url(#clip-path)">
          <path id="Trazado_10" data-name="Trazado 10" d="M37.429,204.281V64.93H.7V204.143H37.429Zm243.211,1.376V171.541a85.087,85.087,0,0,1-13.206-.825,14.959,14.959,0,0,1-8.666-3.852c-1.926-1.926-3.164-4.677-3.852-8.391a89.033,89.033,0,0,1-.825-13.481V96.432h26.55V64.93h-26.55V10.73H217.361V145.4c0,11.418.963,21.047,2.889,28.751,1.926,7.566,5.227,13.756,9.767,18.433s10.592,7.979,17.883,10.042c7.428,2.063,16.783,3.026,27.925,3.026ZM490.836,0H454.107V204.281h36.729ZM182.008,78.686c-10.18-11.005-24.486-16.508-42.644-16.508a53.356,53.356,0,0,0-24.073,5.365A51.967,51.967,0,0,0,96.994,82.4l-1.926,2.614V64.93H58.889V204.143H95.343V132.611c.413-13.068,3.577-22.7,9.629-28.888a31.532,31.532,0,0,1,23.248-9.9c10.592,0,18.709,3.3,24.073,9.629,5.227,6.328,7.979,15.269,7.979,26.687v74.009h37V125.182c.138-19.809-5.09-35.491-15.269-46.5M435.123,134.4a76.673,76.673,0,0,0-5.227-28.2,75.493,75.493,0,0,0-14.719-22.973,67.049,67.049,0,0,0-22.7-15.407,74.435,74.435,0,0,0-29.163-5.5,72.358,72.358,0,0,0-28.338,5.64A74.069,74.069,0,0,0,312,83.363,71.756,71.756,0,0,0,296.6,106.336a69.98,69.98,0,0,0-5.64,28.338,74.735,74.735,0,0,0,5.365,28.338,70.692,70.692,0,0,0,14.994,22.973,68.683,68.683,0,0,0,23.248,15.407,75.98,75.98,0,0,0,29.851,5.778c31.089,0,50.348-14.169,61.9-27.375L399.907,159.71c-5.5,6.6-18.709,15.545-35.216,15.545-10.317,0-18.846-2.339-25.312-7.153a35.321,35.321,0,0,1-13.206-19.4l-.413-1.238H435.123ZM326.036,121.606c0-10.18,11.693-27.925,36.867-28.063,25.174,0,37,17.746,37,27.925Zm206.619,65.067a13.638,13.638,0,0,0-7.153-7.153,13.694,13.694,0,0,0-5.227-1.1,13.168,13.168,0,0,0-5.227,1.1,13.638,13.638,0,0,0-7.153,7.153,13.693,13.693,0,0,0-1.1,5.227,13.168,13.168,0,0,0,1.1,5.227,13.638,13.638,0,0,0,7.153,7.153,13.694,13.694,0,0,0,5.227,1.1,13.169,13.169,0,0,0,5.227-1.1,13.638,13.638,0,0,0,7.153-7.153,12.965,12.965,0,0,0,0-10.455m-2.2,9.629a10.43,10.43,0,0,1-5.915,5.915,11.406,11.406,0,0,1-4.4.825,11.915,11.915,0,0,1-4.4-.825,10.43,10.43,0,0,1-5.915-5.915,11.406,11.406,0,0,1-.825-4.4,11.916,11.916,0,0,1,.825-4.4,10.43,10.43,0,0,1,5.915-5.915,11.405,11.405,0,0,1,4.4-.825,11.916,11.916,0,0,1,4.4.825,10.43,10.43,0,0,1,5.915,5.915,12.151,12.151,0,0,1,0,8.8m-7.7-3.164a4.258,4.258,0,0,0,2.614-1.238,4.054,4.054,0,0,0,1.1-3.026,4.182,4.182,0,0,0-1.376-3.439,5.921,5.921,0,0,0-4.127-1.238H514.91v15.545H517.8v-6.328h2.063l3.852,6.328h3.026Zm-1.513-2.339H517.8v-4.4h3.439a4.017,4.017,0,0,1,1.238.275,1.409,1.409,0,0,1,.825.688c.275.275.275.688.275,1.238a2.747,2.747,0,0,1-.275,1.238,3.647,3.647,0,0,1-.825.688,4.016,4.016,0,0,1-1.238.275" transform="translate(0.263)" fill="#fff"/>
        </g>
      </g>
    </g>
  </g>
</svg>
