<svg width="28" height="30" viewBox="0 0 28 30" fill="none" xmlns="http://www.w3.org/2000/svg">
<g clip-path="url(#clip0_1832_2770)">
<path d="M26.5 9.09089L14.2273 2.27271L1.95459 9.09089V22.7272L14.2273 29.5454L26.5 22.7272V9.09089ZM14.2273 5.39543L22.2864 9.86816L18.1819 12.1454C17.1864 11.1091 15.7819 10.4545 14.2273 10.4545C12.6728 10.4545 11.2682 11.1091 10.2728 12.1454L6.16823 9.86816L14.2273 5.39543ZM12.8637 25.6727L4.68186 21.1318V12.1727L8.95004 14.5454C8.82732 14.9682 8.77277 15.4318 8.77277 15.9091C8.77277 18.4454 10.5046 20.5863 12.8637 21.1863V25.6727ZM11.5 15.9091C11.5 14.4091 12.7273 13.1818 14.2273 13.1818C15.7273 13.1818 16.9546 14.4091 16.9546 15.9091C16.9546 17.4091 15.7273 18.6363 14.2273 18.6363C12.7273 18.6363 11.5 17.4091 11.5 15.9091ZM15.591 25.6727V21.2C17.95 20.6 19.6819 18.4591 19.6819 15.9227C19.6819 15.4454 19.6273 14.9818 19.5046 14.5454L23.7728 12.1727V21.1318L15.591 25.6727Z" fill="#0179EF"/>
</g>
<defs>
<clipPath id="clip0_1832_2770">
<rect width="27.2727" height="30" fill="white" transform="translate(0.363647)"/>
</clipPath>
</defs>
</svg>
