<?xml version="1.0" encoding="utf-8"?>
<!-- Generator: Adobe Illustrator 21.0.0, SVG Export Plug-In . SVG Version: 6.00 Build 0)  -->
<svg version="1.1" id="Capa_1" xmlns="http://www.w3.org/2000/svg" xmlns:xlink="http://www.w3.org/1999/xlink" x="0px" y="0px"
	 viewBox="0 0 500 500" style="enable-background:new 0 0 500 500;" xml:space="preserve">
<style type="text/css">
	.st0_matic{fill:#833FE8;}
	.st1_matic{fill:#FFFFFF;}
</style>
<circle class="st0_matic" cx="250" cy="249.2" r="237.5"/>
<g id="aQrcHt.tif">
	<g>
		<path class="st1_matic" d="M185.8,119c5.4,3.1,10.9,6.1,16.3,9.2c17.7,10.3,35.5,20.4,53,31c5.5,3.4,8.9,8.8,8.7,15.9
			c-0.3,7,0,14-0.1,21c0,1.7-0.5,4.2-1.6,4.9c-7.8,5-15.8,9.5-25,15c0-7.4-0.3-13.3,0.1-19.2c0.7-10.8-3.7-18.5-13.2-23.8
			c-8.6-4.8-17.2-9.6-25.2-15.3c-10.3-7.3-20-7.3-30.5-0.6c-9.1,5.8-18.6,11-27.9,16.5c-7.4,4.3-11.2,10.9-11.3,19.3
			c-0.2,12.2-0.2,24.3,0,36.5c0.1,8,3.6,14.5,10.5,18.8c10.4,6.5,21,13,31.6,19.2c8.4,4.9,16.4,4.9,25.3-0.4
			c37-22.1,74.4-43.6,111.6-65.3c9-5.3,17.3-2.9,25.7,2.2c18.2,11,36.7,21.6,55.1,32.4c6.8,4,10.4,9.5,10.3,18
			c-0.3,23.8-0.3,47.7,0,71.5c0.1,8-3.3,13.5-9.7,17.3c-18.3,10.8-36.8,21.5-55.2,32.1c-2.9,1.7-5.6,3.9-8.7,4.7
			c-6.4,1.7-12.5,1.2-18.7-2.5c-19.3-11.6-38.8-22.5-58.2-33.9c-6.8-4-11.5-9.2-10.5-18.2c0.7-6.1,0.3-12.3,0.1-18.5
			c-0.1-3.9,1.5-6.2,4.7-8c5.8-3.2,11.6-6.6,17.3-9.9c3.7-2.2,5.2-1.5,5.3,2.8c0.2,5.7,0.5,11.4-0.1,17c-0.8,7.6,2.4,13.3,8.3,17
			c12,7.4,24.4,14.2,36.8,21.1c5.7,3.2,11.6,3.1,17.2-0.1c12.1-7,24.2-14,36-21.6c5.9-3.8,8.4-10.3,8.5-17.3
			c0.1-11.8,0.2-23.7,0-35.5c-0.2-10-4.9-17.2-13.9-22c-9.7-5.1-19-11-28.5-16.5c-7.2-4.2-14.7-5.1-22.2-0.8
			c-15.4,8.9-30.8,17.9-46.2,26.9c-23,13.4-46,26.8-69.2,39.9c-6.3,3.6-13.2,2.9-19.6-0.8c-17.1-9.9-34.3-19.9-51.4-29.8
			c-3.2-1.8-6.3-3.8-9.4-5.6c-7.1-4.1-9.9-11-10-18.5c-0.4-22.7-0.3-45.3-0.1-68c0.1-8,3.9-14,11.1-18.1
			c16.3-9.3,32.4-19.1,48.7-28.5c5.9-3.4,12-6.3,18.1-9.5c1-0.5,1.7-1.4,2.6-2.1C183.1,119,184.5,119,185.8,119z"/>
	</g>
</g>
</svg>
