<?xml version="1.0" encoding="UTF-8"?>
<svg id="Layer_1" data-name="Layer 1" xmlns="http://www.w3.org/2000/svg" xmlns:xlink="http://www.w3.org/1999/xlink" viewBox="0 0 100 100">
  <defs>
    <style>
      .cls-1 {
        fill: none;
      }

      .cls-2, .cls-3 {
        fill: #0093bd;
      }

      .cls-4 {
        fill: #68cae0;
      }

      .cls-5 {
        fill: #0799c1;
      }

      .cls-6 {
        fill: #079ac2;
      }

      .cls-7 {
        fill: #079ac1;
      }

      .cls-8 {
        fill: #0699c1;
      }

      .cls-9 {
        fill: #0498c0;
      }

      .cls-10 {
        fill: #0599c0;
      }

      .cls-11 {
        fill: #089bc2;
      }

      .cls-12 {
        fill: #0899c1;
      }

      .cls-13 {
        fill: #0b9bc2;
      }

      .cls-14 {
        fill: #0a9bc2;
      }

      .cls-15 {
        fill: #4fc2da;
      }

      .cls-16 {
        clip-path: url(#clippath-1);
      }

      .cls-17 {
        clip-path: url(#clippath-4);
      }

      .cls-18 {
        clip-path: url(#clippath-3);
      }

      .cls-19 {
        clip-path: url(#clippath-2);
      }

      .cls-3 {
        fill-rule: evenodd;
        stroke: #fff;
        stroke-linejoin: round;
        stroke-width: .25px;
      }
    </style>
    <clipPath id="clippath-1">
      <rect class="cls-1" x="-30.32" y="-3.41" width="160.23" height="106.86"/>
    </clipPath>
    <clipPath id="clippath-2">
      <rect class="cls-1" x="-30.32" y="-3.41" width="160.23" height="106.86"/>
    </clipPath>
    <clipPath id="clippath-3">
      <rect class="cls-1" x="-30.32" y="-3.41" width="160.23" height="106.86"/>
    </clipPath>
    <clipPath id="clippath-4">
      <rect class="cls-1" x="-30.32" y="-3.41" width="160.23" height="106.86"/>
    </clipPath>
  </defs>
  <g id="czozhD.tif">
    <g>
      <path class="cls-2" d="m44.45,44.02s-.03.07-.04.11c-.1.29-.19.59-.3.88-.11.29-.24.56-.35.85-.04.1-.05.2-.09.3-.05.1-.13.19-.17.3-.12.31-.22.62-.33.93-.09.25-.19.49-.28.74-.08.21-.14.42-.21.63-.09.26-.16.52-.26.77-.11.29-.24.56-.35.85-.08.2-.14.4-.21.61-.08.26-.16.52-.25.78-.14.37-.29.74-.43,1.11-.01.04-.03.07-.04.11-.06.15-.11.3-.17.46,0,.04-.02.07-.03.11-.06.15-.12.3-.18.45-.01.04-.03.07-.04.11-.06.15-.11.3-.17.46-.01.04-.03.07-.04.11-.06.15-.11.3-.17.46l-.04.11c-.06.15-.11.3-.17.46-.01.04-.03.07-.04.11-.06.15-.11.3-.17.46-.01.04-.03.07-.04.11-.06.15-.11.3-.17.46-.01.04-.03.07-.04.11-.04.12-.06.23-.11.34-.11.28-.23.56-.34.85-.08.2-.14.4-.21.61-.09.26-.17.53-.27.79-.11.33-.23.65-.35.98-.09.24-.18.48-.27.72-.11.28-.23.57-.34.85-.08.2-.14.4-.21.61-.09.26-.16.52-.26.77-.11.29-.24.56-.35.85-.13.34-.24.68-.37,1.02-.05.12-.11.24-.17.36-.01.04-.02.07-.03.11-.06.15-.12.3-.18.45,0,.04-.02.07-.03.11-.06.15-.12.3-.18.45-.01.04-.03.07-.04.11-.06.15-.11.3-.17.46-.01.04-.03.07-.04.11-.06.15-.11.3-.17.46-.01.04-.03.07-.04.11-.06.15-.11.3-.17.46-.01.04-.03.07-.04.11-.06.15-.11.3-.17.46-.01.04-.03.07-.04.11-.06.15-.11.3-.17.46-.01.04-.03.07-.04.11-.07.18-.14.36-.21.55-.08.23-.17.46-.25.7-.09.26-.17.53-.27.79-.11.29-.23.56-.34.85-.08.2-.13.41-.21.6-.09.23-.2.44-.3.67-.1,0-.2,0-.31,0-4.48,0-8.96,0-13.45,0h-.32c.06-.17.11-.33.16-.48.01-.03.03-.06.04-.09.09-.32.17-.64.28-.95.09-.25.22-.48.33-.73.01-.02.02-.05.03-.07.08-.3.16-.59.25-.88.02-.08.12-.13.14-.21.1-.3.16-.61.27-.91.09-.25.21-.49.32-.73,0-.02.02-.03.03-.04.09-.29.17-.59.26-.88.02-.06.05-.11.08-.16.02-.04.06-.07.07-.1.09-.29.16-.59.26-.89.04-.11.13-.2.17-.31.09-.27.15-.55.25-.81.11-.26.25-.51.38-.77.02-.03.02-.06.03-.1.27-.88.64-1.71.94-2.58.17-.5.3-1.02.48-1.52.09-.25.23-.48.34-.72,0,0,0-.01.01-.02.09-.29.17-.59.26-.88.01-.05.04-.1.07-.14.03-.05.08-.09.09-.14.09-.29.16-.59.25-.88.04-.13.15-.23.19-.36.09-.27.1-.57.23-.81.19-.35.3-.72.4-1.1.07-.25.22-.48.34-.73,0,0,0-.02.01-.02.08-.3.16-.59.26-.89.03-.09.13-.17.16-.26.09-.29.15-.6.25-.89.09-.25.22-.48.33-.73.06-.14.11-.28.16-.42.23-.65.45-1.29.68-1.94.1-.29.22-.57.33-.86,0-.02.03-.05.03-.07.17-.72.51-1.37.73-2.07.2-.64.51-1.24.76-1.87.11-.28.2-.58.3-.87.24-.64.48-1.28.72-1.93.18-.48.34-.97.51-1.45.21-.58.43-1.15.64-1.72.13-.34.24-.68.38-1,.35-.82,1-1.24,1.85-1.41.11-.02.23-.02.34-.03.02,0,.05,0,.07,0,4.55,0,9.09,0,13.64,0,0,.02,0,.05,0,.07-.25.1-.51.18-.75.31-.41.21-.75.52-.92.94-.68,1.74-1.32,3.5-1.98,5.26-.07.18-.13.37-.19.56-.06.15-.11.3-.17.46Z"/>
      <path class="cls-2" d="m56.24,45.46s.03-.07.04-.1l.17-.46s.03-.07.04-.1c.06-.15.11-.31.17-.46.01-.03.03-.07.04-.1l.17-.46s.03-.07.04-.1c.06-.15.11-.31.17-.46.01-.03.03-.07.04-.1.06-.15.11-.31.17-.46l.04-.1c.02-.1.02-.2.05-.29.05-.14.12-.26.16-.4.08-.23.15-.47.22-.71,0-.01.03-.01.04-.02.07-.11.14-.22.19-.34.03-.07.02-.15.04-.22.05-.14.12-.28.17-.42.02-.05.01-.1.03-.14.06-.14.12-.28.17-.41.02-.05.03-.1.05-.16.05-.13.1-.25.15-.38.02-.06.03-.12.05-.18.05-.13.11-.25.15-.38.02-.06.03-.12.05-.18.05-.13.11-.25.15-.38.02-.06.02-.13.05-.19.05-.13.11-.25.16-.37.02-.06.02-.13.05-.19.05-.13.11-.26.16-.4.02-.05.02-.11.04-.17.05-.13.11-.26.17-.39.02-.05.02-.11.04-.17.05-.14.11-.28.17-.42.02-.05.03-.1.05-.15.05-.12.1-.24.15-.36.02-.06,0-.14.03-.19.09-.2.18-.39.27-.59.02-.03.03-.07.05-.1.05-.15.11-.31.16-.46.01-.03.03-.07.04-.1.05-.15.11-.31.16-.46.01-.03.03-.07.04-.1l.17-.46s.03-.07.04-.1l.17-.46s.03-.07.04-.1l.17-.46s.03-.07.04-.1c.06-.15.11-.31.17-.46l.04-.1c.02-.1.02-.2.05-.29.05-.13.11-.26.16-.39.02-.05.02-.11.04-.16.05-.13.11-.26.17-.39.02-.05.01-.11.03-.17.05-.14.12-.28.17-.42.02-.05.01-.1.03-.14.06-.14.12-.28.17-.41.02-.05.03-.1.05-.16.05-.13.1-.25.15-.38.02-.06.03-.12.05-.18.05-.13.11-.25.15-.38.02-.06.02-.13.05-.18.05-.13.11-.25.16-.37.02-.06.02-.13.04-.19.05-.13.11-.26.16-.4.02-.06.04-.11.06-.17.04-.11.1-.22.13-.34.02-.06,0-.14.03-.2.12-.28.31-.54.36-.82.04-.27.24-.46.28-.72,0-.03.07-.06.1-.09.1,0,.2,0,.31,0,4.47,0,8.95,0,13.42,0h.32c-.02.07-.03.14-.04.2-.06.15-.11.3-.17.46-.01.04-.03.07-.04.11-.08.23-.17.46-.25.69-.09.26-.16.52-.26.77-.11.29-.24.56-.35.85-.12.31-.23.63-.34.95-.09.26-.19.53-.28.79-.09.26-.17.53-.27.79-.11.29-.23.56-.34.85-.08.2-.14.4-.21.61-.08.26-.16.52-.25.77-.14.37-.29.74-.43,1.11-.01.04-.02.07-.03.11-.06.15-.12.3-.17.45-.01.04-.02.07-.03.11-.06.15-.12.3-.18.45,0,.04-.02.07-.03.11-.06.15-.12.3-.18.45-.01.04-.03.07-.04.11-.06.15-.11.3-.17.46-.01.04-.03.07-.04.11-.06.15-.11.3-.17.46-.01.04-.03.07-.04.11l-.17.46s-.03.07-.04.11c-.06.15-.11.3-.17.46-.01.04-.03.07-.04.11-.1.3-.2.6-.31.9-.11.29-.23.56-.34.85-.07.19-.14.39-.21.58-.08.26-.14.52-.24.78-.11.31-.25.61-.38.92-.11.27-.21.54-.31.81-.11.28-.24.56-.35.85-.08.2-.14.4-.21.61-.08.26-.16.52-.25.78-.14.37-.29.74-.43,1.11-.01.04-.02.07-.03.11-.06.15-.12.3-.18.45,0,.04-.02.07-.03.11-.06.15-.12.3-.18.45-.01.04-.03.07-.04.11-.06.15-.11.3-.17.46-.01.04-.03.07-.04.11-.06.15-.11.3-.17.46-.01.04-.03.07-.04.11-.06.15-.11.3-.17.46-.01.04-.03.07-.04.11-.06.15-.11.3-.17.46-.01.04-.03.07-.04.11-.06.15-.11.3-.17.46-.01.04-.03.07-.04.11-.01.01-.03.02-.04.03-.68,1.87-1.36,3.74-2.04,5.62-.3.84-.6,1.69-.9,2.53-.01.04-.02.07-.03.11-.06.15-.12.3-.18.45,0,.04-.02.07-.03.11-.06.15-.12.3-.18.45-.01.04-.03.07-.04.11-.06.15-.11.3-.17.46-.01.04-.03.07-.04.11l-.3.81c-.09.12-.17.24-.26.36l-.61.61c-.29.14-.58.27-.87.41-.15.02-.31.04-.46.06h0c-.09-.03-.18-.05-.27-.05-4.37,0-8.73,0-13.1,0-.1,0-.2.02-.3.03-.03,0-.06,0-.09,0,0-.05,0-.09-.01-.14.13-.02.27-.02.39-.06.49-.16.88-.46,1.17-.87.15-.21.23-.47.34-.71.02-.05,0-.12.03-.17.09-.2.18-.39.27-.59.02-.03.03-.07.05-.1.05-.15.11-.31.16-.46.01-.03.03-.07.04-.1.05-.15.11-.31.16-.46.01-.03.03-.07.04-.1.06-.15.11-.31.17-.46.01-.03.03-.07.04-.1l.17-.46s.03-.07.04-.1l.17-.46s.03-.07.04-.1c.06-.15.11-.31.17-.46.01-.03.03-.07.04-.1.06-.15.11-.31.17-.46.01-.03.03-.07.04-.1.02-.1.02-.2.05-.29.05-.14.11-.26.16-.4.02-.05.02-.11.04-.16.05-.13.11-.26.17-.39.02-.05.02-.11.03-.17.05-.14.12-.28.17-.42.02-.05.01-.1.03-.14.06-.14.12-.28.17-.41.02-.05.03-.1.05-.15.05-.13.1-.25.15-.38.02-.06.03-.12.05-.18.05-.13.11-.25.15-.38.02-.06.02-.13.05-.18.05-.13.11-.25.16-.37.02-.06.02-.13.05-.19.05-.13.11-.25.16-.37.02-.06.02-.13.04-.19.05-.13.11-.26.16-.4.02-.05.02-.11.04-.16.05-.13.11-.26.16-.4.02-.05.02-.11.04-.17.05-.13.11-.26.17-.39.02-.05.02-.11.04-.17.05-.14.11-.28.17-.42.02-.05.03-.1.05-.15.05-.12.1-.24.15-.36.02-.06,0-.14.03-.19.09-.2.18-.39.27-.59.02-.03.03-.07.05-.1.05-.15.11-.31.16-.46.01-.03.03-.07.04-.1.05-.15.11-.31.16-.46Z"/>
      <path class="cls-2" d="m44.77,57.02s-.03-.07-.05-.1c-.1-.22-.22-.44-.3-.67-.1-.28-.15-.57-.24-.85-.04-.12-.13-.23-.17-.35-.1-.29-.18-.58-.27-.87,0-.02-.02-.03-.03-.04-.22-.26-.28-.59-.39-.91-.01-.03-.03-.07-.04-.1-.06-.15-.11-.31-.17-.46-.01-.03-.03-.07-.04-.1l-.17-.46s-.03-.07-.04-.1c-.03-.07-.06-.14-.08-.21-.02-.09-.07-.2-.04-.27.1-.27.24-.52.35-.78.04-.1,0-.23.04-.32.11-.25.24-.5.35-.75.05-.11.05-.25.1-.36.12-.27.26-.53.37-.8.04-.11,0-.25.05-.36.1-.25.27-.48.35-.73.12-.4.25-.78.42-1.16.05-.1,0-.25.05-.36.11-.26.26-.5.35-.76.11-.29.17-.6.25-.9,0-.02,0-.03.01-.05.14-.33.28-.67.41-1,.02-.04,0-.09,0-.13.09-.2.18-.39.27-.59.17-.45.34-.89.5-1.34.23-.64.46-1.28.7-1.91.09-.25.19-.49.29-.74.03-.07.06-.14.09-.21,0,0,0,0,0,0,.04-.07.07-.14.11-.21.03-.05.07-.1.1-.15.01-.02.03-.04.04-.06,0,0,0,0,0,0,.02-.03.05-.06.07-.09.08-.08.17-.17.25-.25.04-.03.07-.06.11-.08.03-.02.06-.05.1-.07,0,0,.02.02.03.03,0-.02.02-.04.02-.05.15-.08.31-.15.46-.23,0,0,0,.02,0,.02.02,0,.03-.01.05-.02.03-.01.07-.02.1-.04h.05s.04-.01.05-.02c.07-.03.14-.06.2-.09.09.01.17.02.26.03.09,0,.17,0,.26,0,.09-.01.17-.02.26-.03.02.01.04.03.05.04h0s.04.03.05.05c.12.02.23.04.35.06.1.03.2.07.31.1.07.04.14.07.21.11.02.03.04.06.06.09.14.12.27.24.41.35.03.02.06.04.09.06h.01s.03.03.04.05c0,.01.01.03.02.05.02.04.04.08.06.11.02,0,.03.02.04.03h0c.13.33.27.66.4.99.01.04.03.07.04.11.06.15.11.3.17.46.01.04.03.07.04.11.06.15.11.3.17.46.01.04.02.07.04.11.06.19.12.37.17.56.03.07.06.13.09.2.04.12.08.24.12.36.03.07.06.14.09.2.04.12.08.24.11.36.03.07.06.14.09.2.04.12.08.24.11.36.03.07.06.14.09.2.04.12.08.24.11.36.03.07.06.14.09.2.15.41.31.82.46,1.23.01.04.03.07.04.11.06.15.11.3.17.46.01.04.03.07.04.11.06.15.12.3.18.45,0,.04.02.07.03.11.04.13.08.27.11.4-.02.03-.03.07-.05.1-.05.15-.1.31-.15.46-.02.03-.04.07-.05.1-.05.15-.1.31-.15.46-.02.03-.04.07-.05.1-.05.15-.1.31-.15.46-.02.03-.04.07-.05.1-.05.15-.1.31-.15.46-.02.03-.04.07-.05.1-.05.15-.1.31-.15.46-.02.03-.04.07-.05.1-.05.15-.1.31-.15.46-.02.03-.04.07-.05.1l-.15.46s-.04.07-.05.1c-.05.15-.1.31-.15.46-.02.03-.04.07-.05.1-.05.15-.1.31-.15.46-.02.03-.04.07-.05.1-.07.19-.14.37-.21.56-.01.04-.02.07-.03.11-.06.15-.12.3-.18.45,0,.04-.02.07-.03.11-.06.15-.12.3-.18.45l-.03.11c-.06.15-.12.3-.18.45-.01.04-.03.07-.04.11-.06.15-.11.3-.17.46-.01.04-.03.07-.04.11-.06.15-.11.3-.17.46-.01.04-.03.07-.04.11-.06.15-.11.3-.17.46-.01.04-.03.07-.04.11-.06.15-.11.3-.17.46-.01.04-.03.07-.04.11-.06.15-.11.3-.17.46-.01.04-.03.07-.04.11-.09.27-.17.55-.26.82-.05.03-.09.07-.14.1-.05.17-.08.34-.14.51-.12.34-.25.68-.38,1.03-.02.03-.03.07-.05.1-.02.05-.04.1-.06.15-.05.1-.09.21-.14.31-.19.24-.38.48-.56.72-.03.03-.07.05-.1.08v.02s-.02,0-.02,0c-.01.01-.02.02-.03.04-.05.02-.1.04-.15.07-.04.03-.07.06-.11.09-.01,0-.03.01-.05.01-.02.01-.04.03-.06.04-.29.07-.58.14-.87.22-.2,0-.41,0-.61,0-.2-.07-.41-.14-.61-.2-.02-.01-.04-.02-.05-.04-.3-.25-.59-.51-.89-.76-.04-.07-.08-.15-.12-.22-.12-.34-.24-.67-.36-1.01-.01-.03-.04-.06-.05-.09-.04-.11-.08-.22-.12-.33-.01-.03-.03-.07-.04-.1l-.17-.46s-.03-.07-.04-.1l-.16-.46Z"/>
      <path class="cls-15" d="m49.27,61.35c.1-.01.2-.03.3-.03,4.37,0,8.73,0,13.1,0,.09,0,.18.03.27.04-.1,0-.2,0-.31,0-4.36,0-8.72,0-13.08,0-.09,0-.19-.01-.28-.02Z"/>
      <path class="cls-4" d="m48.45,36.5s0-.05,0-.07c.1,0,.21-.01.31-.02,0,.01,0,.03,0,.04-.1.02-.21.04-.31.06Z"/>
      <path class="cls-15" d="m49.03,61.29s.1-.05.14-.08c0,.05,0,.09.01.14-.08,0-.16.01-.28.02.07-.05.1-.07.13-.09Z"/>
      <path class="cls-7" d="m47.74,38.29c-.03.07-.06.14-.09.21.03-.07.06-.14.09-.21Z"/>
      <path class="cls-7" d="m47.84,38.09c-.04.07-.07.14-.11.21.04-.07.07-.14.11-.21Z"/>
      <path class="cls-7" d="m48.41,37.44s-.07.06-.11.08c.04-.03.07-.06.11-.08Z"/>
      <path class="cls-7" d="m48.05,37.78s-.05.06-.07.09c.02-.03.05-.06.07-.09Z"/>
      <path class="cls-7" d="m48.56,37.34s-.02.04-.02.05c0,0-.02-.02-.03-.03.02,0,.04-.02.05-.03Z"/>
      <path class="cls-4" d="m34.81,36.43s-.05,0-.07,0c.02,0,.05,0,.07,0Z"/>
      <path class="cls-7" d="m47.98,37.87s-.03.04-.04.06c.01-.02.03-.04.04-.06Z"/>
      <path class="cls-7" d="m49.28,37.07c.07-.03.14-.06.2-.09-.07.03-.14.06-.2.09Z"/>
      <path class="cls-6" d="m53.78,43.1c.03.07.06.14.09.2-.03-.07-.06-.14-.09-.2Z"/>
      <path class="cls-11" d="m53.37,41.98c.03.07.06.14.09.2-.03-.07-.06-.14-.09-.2Z"/>
      <path class="cls-11" d="m53.16,41.42c.03.07.06.14.09.2-.03-.07-.06-.14-.09-.2Z"/>
      <path class="cls-8" d="m52.96,40.85c.03.07.06.13.09.2-.03-.07-.06-.13-.09-.2Z"/>
      <path class="cls-6" d="m53.57,42.54c.03.07.06.14.09.2-.03-.07-.06-.14-.09-.2Z"/>
      <path class="cls-13" d="m50.85,57.33s-.09.07-.14.1c.05-.03.09-.07.14-.1Z"/>
      <path class="cls-7" d="m54.69,46.74s-.04.07-.05.1c.02-.03.04-.07.05-.1Z"/>
      <path class="cls-5" d="m53.05,51.24s-.04.07-.05.1c.02-.03.04-.07.05-.1Z"/>
      <path class="cls-5" d="m53.26,50.68s-.04.07-.05.1c.02-.03.04-.07.05-.1Z"/>
      <path class="cls-5" d="m53.46,50.11s-.04.07-.05.1c.02-.03.04-.07.05-.1Z"/>
      <path class="cls-8" d="m50.19,58.96s-.03.07-.05.1c.02-.03.03-.07.05-.1Z"/>
      <path class="cls-11" d="m53.67,49.55s-.04.07-.05.1c.02-.03.04-.07.05-.1Z"/>
      <path class="cls-11" d="m53.87,48.99s-.04.07-.05.1c.02-.03.04-.07.05-.1Z"/>
      <path class="cls-11" d="m54.08,48.43s-.04.07-.05.1c.02-.03.04-.07.05-.1Z"/>
      <path class="cls-7" d="m54.28,47.86s-.04.07-.05.1c.02-.03.04-.07.05-.1Z"/>
      <path class="cls-7" d="m54.49,47.3s-.04.07-.05.1c.02-.03.04-.07.05-.1Z"/>
      <path class="cls-12" d="m54.89,46.17s-.03.07-.05.1c.02-.03.03-.07.05-.1Z"/>
      <path class="cls-10" d="m49.37,60.24s-.07.05-.1.08c.03-.03.07-.05.1-.08Z"/>
      <path class="cls-10" d="m49.08,60.45s-.07.06-.11.09c.04-.03.07-.06.11-.09Z"/>
      <path class="cls-14" d="m51.84,37.93s.04.08.06.11c-.02-.04-.04-.08-.06-.11Z"/>
      <path class="cls-14" d="m51.68,37.78s.06.04.09.06c-.03-.02-.06-.04-.09-.06Z"/>
      <path class="cls-9" d="m51.22,37.34s.04.06.06.09c-.02-.03-.04-.06-.06-.09Z"/>
      <path class="cls-10" d="m49.25,60.34s-.02.03-.03.04c0-.01.01-.03.03-.04Z"/>
      <path class="cls-10" d="m48.92,60.55s-.04.03-.06.04c.02-.01.04-.03.06-.04Z"/>
      <path class="cls-7" d="m49.02,37.14s.03-.01.05-.02c-.02,0-.03.01-.05.02Z"/>
      <path class="cls-9" d="m50.25,36.98s.04.03.05.04c-.02-.01-.04-.03-.05-.04Z"/>
      <path class="cls-9" d="m50.3,37.02s.04.03.05.05c-.02-.02-.04-.03-.05-.05Z"/>
      <path class="cls-7" d="m49.18,37.09s.03,0,.05,0h-.05Z"/>
      <polygon class="cls-14" points="51.93 38.08 51.95 38.06 51.93 38.07 51.93 38.08"/>
      <path class="cls-14" d="m51.78,37.85s.03.02.04.04c-.01-.01-.03-.02-.04-.04Z"/>
    </g>
  </g>
  <g>
    <g class="cls-16">
      <rect class="cls-1" x="-28.77" y="-1.85" width="157.12" height="103.75"/>
      <path class="cls-3" d="m49.82,99.16c-8.35,0-16.56-2.13-23.84-6.18l4.91-8.21c5.8,3.17,12.31,4.83,18.9,4.83,13.86,0,26.89-7.38,33.99-19.27,5.42-9.07,6.98-19.71,4.4-29.95s-9-18.87-18.07-24.29c-5.68-3.4-12.13-5.31-18.73-5.57V.96c26.36.82,47.55,22.53,47.55,49.08s-22.03,49.11-49.11,49.11Z"/>
    </g>
    <g class="cls-19">
      <rect class="cls-1" x="-28.77" y="-1.85" width="157.12" height="103.75"/>
      <path class="cls-3" d="m23.31,91.39C3.72,78.82-4.39,53.87,4.08,32.19l8.79,3.76c-6.6,17.31-.17,37.11,15.35,47.23l-4.91,8.21Z"/>
    </g>
    <g class="cls-18">
      <rect class="cls-1" x="-28.77" y="-1.85" width="157.12" height="103.75"/>
      <path class="cls-3" d="m5.3,29.33c3.94-8.49,10.13-15.57,18.01-20.62l4.91,8.21c-6.14,4-10.99,9.54-14.13,16.17l-8.79-3.76Z"/>
    </g>
    <g class="cls-17">
      <rect class="cls-1" x="-28.77" y="-1.85" width="157.12" height="103.75"/>
      <path class="cls-3" d="m25.98,7.12c6.83-3.79,14.48-5.9,22.29-6.15v9.56c-6.08.24-12.04,1.88-17.38,4.8l-4.91-8.21Z"/>
    </g>
  </g>
</svg>