<svg width="100" height="100" viewBox="0 0 100 100" fill="none" xmlns="http://www.w3.org/2000/svg">
<g clip-path="url(#clip0_1_2)">
<path d="M44.45 44.02C44.45 44.02 44.42 44.09 44.41 44.13C44.31 44.42 44.22 44.72 44.11 45.01C44 45.3 43.87 45.57 43.76 45.86C43.72 45.96 43.71 46.06 43.67 46.16C43.62 46.26 43.54 46.35 43.5 46.46C43.38 46.77 43.28 47.08 43.17 47.39C43.08 47.64 42.98 47.88 42.89 48.13C42.81 48.34 42.75 48.55 42.68 48.76C42.59 49.02 42.52 49.28 42.42 49.53C42.31 49.82 42.18 50.09 42.07 50.38C41.99 50.58 41.93 50.78 41.86 50.99C41.78 51.25 41.7 51.51 41.61 51.77C41.47 52.14 41.32 52.51 41.18 52.88C41.17 52.92 41.15 52.95 41.14 52.99C41.08 53.14 41.03 53.29 40.97 53.45C40.97 53.49 40.95 53.52 40.94 53.56C40.88 53.71 40.82 53.86 40.76 54.01C40.75 54.05 40.73 54.08 40.72 54.12C40.66 54.27 40.61 54.42 40.55 54.58C40.54 54.62 40.52 54.65 40.51 54.69C40.45 54.84 40.4 54.99 40.34 55.15L40.3 55.26C40.24 55.41 40.19 55.56 40.13 55.72C40.12 55.76 40.1 55.79 40.09 55.83C40.03 55.98 39.98 56.13 39.92 56.29C39.91 56.33 39.89 56.36 39.88 56.4C39.82 56.55 39.77 56.7 39.71 56.86C39.7 56.9 39.68 56.93 39.67 56.97C39.63 57.09 39.61 57.2 39.56 57.31C39.45 57.59 39.33 57.87 39.22 58.16C39.14 58.36 39.08 58.56 39.01 58.77C38.92 59.03 38.84 59.3 38.74 59.56C38.63 59.89 38.51 60.21 38.39 60.54C38.3 60.78 38.21 61.02 38.12 61.26C38.01 61.54 37.89 61.83 37.78 62.11C37.7 62.31 37.64 62.51 37.57 62.72C37.48 62.98 37.41 63.24 37.31 63.49C37.2 63.78 37.07 64.05 36.96 64.34C36.83 64.68 36.72 65.02 36.59 65.36C36.54 65.48 36.48 65.6 36.42 65.72C36.41 65.76 36.4 65.79 36.39 65.83C36.33 65.98 36.27 66.13 36.21 66.28C36.21 66.32 36.19 66.35 36.18 66.39C36.12 66.54 36.06 66.69 36 66.84C35.99 66.88 35.97 66.91 35.96 66.95C35.9 67.1 35.85 67.25 35.79 67.41C35.78 67.45 35.76 67.48 35.75 67.52C35.69 67.67 35.64 67.82 35.58 67.98C35.57 68.02 35.55 68.05 35.54 68.09C35.48 68.24 35.43 68.39 35.37 68.55C35.36 68.59 35.34 68.62 35.33 68.66C35.27 68.81 35.22 68.96 35.16 69.12C35.15 69.16 35.13 69.19 35.12 69.23C35.06 69.38 35.01 69.53 34.95 69.69C34.94 69.73 34.92 69.76 34.91 69.8C34.84 69.98 34.77 70.16 34.7 70.35C34.62 70.58 34.53 70.81 34.45 71.05C34.36 71.31 34.28 71.58 34.18 71.84C34.07 72.13 33.95 72.4 33.84 72.69C33.76 72.89 33.71 73.1 33.63 73.29C33.54 73.52 33.43 73.73 33.33 73.96C33.23 73.96 33.13 73.96 33.02 73.96C28.54 73.96 24.06 73.96 19.57 73.96H19.25C19.31 73.79 19.36 73.63 19.41 73.48C19.42 73.45 19.44 73.42 19.45 73.39C19.54 73.07 19.62 72.75 19.73 72.44C19.82 72.19 19.95 71.96 20.06 71.71C20.07 71.69 20.08 71.66 20.09 71.64C20.17 71.34 20.25 71.05 20.34 70.76C20.36 70.68 20.46 70.63 20.48 70.55C20.58 70.25 20.64 69.94 20.75 69.64C20.84 69.39 20.96 69.15 21.07 68.91C21.07 68.89 21.09 68.88 21.1 68.87C21.19 68.58 21.27 68.28 21.36 67.99C21.38 67.93 21.41 67.88 21.44 67.83C21.46 67.79 21.5 67.76 21.51 67.73C21.6 67.44 21.67 67.14 21.77 66.84C21.81 66.73 21.9 66.64 21.94 66.53C22.03 66.26 22.09 65.98 22.19 65.72C22.3 65.46 22.44 65.21 22.57 64.95C22.59 64.92 22.59 64.89 22.6 64.85C22.87 63.97 23.24 63.14 23.54 62.27C23.71 61.77 23.84 61.25 24.02 60.75C24.11 60.5 24.25 60.27 24.36 60.03C24.36 60.03 24.36 60.02 24.37 60.01C24.46 59.72 24.54 59.42 24.63 59.13C24.64 59.08 24.67 59.03 24.7 58.99C24.73 58.94 24.78 58.9 24.79 58.85C24.88 58.56 24.95 58.26 25.04 57.97C25.08 57.84 25.19 57.74 25.23 57.61C25.32 57.34 25.33 57.04 25.46 56.8C25.65 56.45 25.76 56.08 25.86 55.7C25.93 55.45 26.08 55.22 26.2 54.97C26.2 54.97 26.2 54.95 26.21 54.95C26.29 54.65 26.37 54.36 26.47 54.06C26.5 53.97 26.6 53.89 26.63 53.8C26.72 53.51 26.78 53.2 26.88 52.91C26.97 52.66 27.1 52.43 27.21 52.18C27.27 52.04 27.32 51.9 27.37 51.76C27.6 51.11 27.82 50.47 28.05 49.82C28.15 49.53 28.27 49.25 28.38 48.96C28.38 48.94 28.41 48.91 28.41 48.89C28.58 48.17 28.92 47.52 29.14 46.82C29.34 46.18 29.65 45.58 29.9 44.95C30.01 44.67 30.1 44.37 30.2 44.08C30.44 43.44 30.68 42.8 30.92 42.15C31.1 41.67 31.26 41.18 31.43 40.7C31.64 40.12 31.86 39.55 32.07 38.98C32.2 38.64 32.31 38.3 32.45 37.98C32.8 37.16 33.45 36.74 34.3 36.57C34.41 36.55 34.53 36.55 34.64 36.54C34.66 36.54 34.69 36.54 34.71 36.54C39.26 36.54 43.8 36.54 48.35 36.54C48.35 36.56 48.35 36.59 48.35 36.61C48.1 36.71 47.84 36.79 47.6 36.92C47.19 37.13 46.85 37.44 46.68 37.86C46 39.6 45.36 41.36 44.7 43.12C44.63 43.3 44.57 43.49 44.51 43.68C44.45 43.83 44.4 43.98 44.34 44.14L44.45 44.02Z" fill="#0093BD"/>
<path d="M56.24 45.46C56.24 45.46 56.27 45.39 56.28 45.36L56.45 44.9C56.45 44.9 56.48 44.83 56.49 44.8C56.55 44.65 56.6 44.49 56.66 44.34C56.67 44.31 56.69 44.27 56.7 44.24L56.87 43.78C56.87 43.78 56.9 43.71 56.91 43.68C56.97 43.53 57.02 43.37 57.08 43.22C57.09 43.19 57.11 43.15 57.12 43.12C57.18 42.97 57.23 42.81 57.29 42.66L57.33 42.56C57.35 42.46 57.35 42.36 57.38 42.27C57.43 42.13 57.5 42.01 57.54 41.87C57.62 41.64 57.69 41.4 57.76 41.16C57.76 41.15 57.79 41.15 57.8 41.14C57.87 41.03 57.94 40.92 57.99 40.8C58.02 40.73 58.01 40.65 58.03 40.58C58.08 40.44 58.15 40.3 58.2 40.16C58.22 40.11 58.21 40.06 58.23 40.02C58.29 39.88 58.35 39.74 58.4 39.61C58.42 39.56 58.43 39.51 58.45 39.45C58.5 39.32 58.55 39.2 58.6 39.07C58.62 39.01 58.63 38.95 58.65 38.89C58.7 38.76 58.76 38.64 58.8 38.51C58.82 38.45 58.83 38.39 58.85 38.33C58.9 38.2 58.96 38.08 59 37.95C59.02 37.89 59.02 37.82 59.05 37.76C59.1 37.63 59.16 37.51 59.21 37.39C59.23 37.33 59.23 37.26 59.26 37.2C59.31 37.07 59.37 36.94 59.42 36.8C59.44 36.75 59.44 36.69 59.46 36.63C59.51 36.5 59.57 36.37 59.63 36.24C59.65 36.19 59.65 36.13 59.67 36.07C59.72 35.93 59.78 35.79 59.84 35.65C59.86 35.6 59.87 35.55 59.89 35.5C59.94 35.38 59.99 35.26 60.04 35.14C60.06 35.08 60.04 35 60.07 34.95C60.16 34.75 60.25 34.56 60.34 34.36C60.36 34.33 60.37 34.29 60.39 34.26C60.44 34.11 60.5 33.95 60.55 33.8C60.56 33.77 60.58 33.73 60.59 33.7C60.64 33.55 60.7 33.39 60.75 33.24C60.76 33.21 60.78 33.17 60.79 33.14L60.96 32.68C60.96 32.68 60.99 32.61 61 32.58L61.17 32.12C61.17 32.12 61.2 32.05 61.21 32.02L61.38 31.56C61.38 31.56 61.41 31.49 61.42 31.46C61.48 31.31 61.53 31.15 61.59 31L61.63 30.9C61.65 30.8 61.65 30.7 61.68 30.61C61.73 30.48 61.79 30.35 61.84 30.22C61.86 30.17 61.86 30.11 61.88 30.06C61.93 29.93 61.99 29.8 62.05 29.67C62.07 29.62 62.06 29.56 62.08 29.5C62.13 29.36 62.2 29.22 62.25 29.08C62.27 29.03 62.26 28.98 62.28 28.94C62.34 28.8 62.4 28.66 62.45 28.53C62.47 28.48 62.48 28.43 62.5 28.37C62.55 28.24 62.6 28.12 62.65 27.99C62.67 27.93 62.68 27.87 62.7 27.81C62.75 27.68 62.81 27.56 62.85 27.43C62.87 27.37 62.87 27.3 62.9 27.25C62.95 27.12 63.01 27 63.06 26.88C63.08 26.82 63.08 26.75 63.1 26.69C63.15 26.56 63.21 26.43 63.26 26.29C63.28 26.23 63.3 26.18 63.32 26.12C63.36 26.01 63.42 25.9 63.45 25.78C63.47 25.72 63.45 25.64 63.48 25.58C63.6 25.3 63.79 25.04 63.84 24.76C63.88 24.49 64.08 24.3 64.12 24.04C64.12 24.01 64.19 23.98 64.22 23.95C64.32 23.95 64.42 23.95 64.53 23.95C69 23.95 73.48 23.95 77.95 23.95H78.27C78.25 24.02 78.24 24.09 78.23 24.15C78.17 24.3 78.12 24.45 78.06 24.61C78.05 24.65 78.03 24.68 78.02 24.72C77.94 24.95 77.85 25.18 77.77 25.41C77.68 25.67 77.61 25.93 77.51 26.18C77.4 26.47 77.27 26.74 77.16 27.03C77.04 27.34 76.93 27.66 76.82 27.98C76.73 28.24 76.63 28.51 76.54 28.77C76.45 29.03 76.37 29.3 76.27 29.56C76.16 29.85 76.04 30.12 75.93 30.41C75.85 30.61 75.79 30.81 75.72 31.02C75.64 31.28 75.56 31.54 75.47 31.79C75.33 32.16 75.18 32.53 75.04 32.9C75.03 32.94 75.02 32.97 75.01 33.01C74.95 33.16 74.89 33.31 74.84 33.46C74.83 33.5 74.82 33.53 74.81 33.57C74.75 33.72 74.69 33.87 74.63 34.02C74.63 34.06 74.61 34.09 74.6 34.13C74.54 34.28 74.48 34.43 74.42 34.58C74.41 34.62 74.39 34.65 74.38 34.69C74.32 34.84 74.27 34.99 74.21 35.15C74.2 35.19 74.18 35.22 74.17 35.26C74.11 35.41 74.06 35.56 74 35.72C73.99 35.76 73.97 35.79 73.96 35.83L73.79 36.29C73.79 36.29 73.76 36.36 73.75 36.4C73.69 36.55 73.64 36.7 73.58 36.86C73.57 36.9 73.55 36.93 73.54 36.97C73.44 37.27 73.34 37.57 73.23 37.87C73.12 38.16 73 38.43 72.89 38.72C72.82 38.91 72.75 39.11 72.68 39.3C72.6 39.56 72.54 39.82 72.44 40.08C72.33 40.39 72.19 40.69 72.06 41C71.95 41.27 71.85 41.54 71.75 41.81C71.64 42.09 71.51 42.37 71.4 42.66C71.32 42.86 71.26 43.06 71.19 43.27C71.11 43.53 71.03 43.79 70.94 44.05C70.8 44.42 70.65 44.79 70.51 45.16C70.5 45.2 70.49 45.23 70.48 45.27C70.42 45.42 70.36 45.57 70.3 45.72C70.3 45.76 70.28 45.79 70.27 45.83C70.21 45.98 70.15 46.13 70.09 46.28C70.08 46.32 70.06 46.35 70.05 46.39C69.99 46.54 69.94 46.69 69.88 46.85C69.87 46.89 69.85 46.92 69.84 46.96C69.78 47.11 69.73 47.26 69.67 47.42C69.66 47.46 69.64 47.49 69.63 47.53C69.57 47.68 69.52 47.83 69.46 47.99C69.45 48.03 69.43 48.06 69.42 48.1C69.36 48.25 69.31 48.4 69.25 48.56C69.24 48.6 69.22 48.63 69.21 48.67C69.15 48.82 69.1 48.97 69.04 49.13C69.03 49.17 69.01 49.2 69 49.24C68.99 49.25 68.97 49.26 68.96 49.27C68.28 51.14 67.6 53.01 66.92 54.89C66.62 55.73 66.32 56.58 66.02 57.42C66.01 57.46 66 57.49 65.99 57.53C65.93 57.68 65.87 57.83 65.81 57.98C65.81 58.02 65.79 58.05 65.78 58.09C65.72 58.24 65.66 58.39 65.6 58.54C65.59 58.58 65.57 58.61 65.56 58.65C65.5 58.8 65.45 58.95 65.39 59.11C65.38 59.15 65.36 59.18 65.35 59.22L65.05 60.03C64.96 60.15 64.88 60.27 64.79 60.39L64.18 61C63.89 61.14 63.6 61.27 63.31 61.41C63.16 61.43 63 61.45 62.85 61.47C62.76 61.44 62.67 61.42 62.58 61.42C58.21 61.42 53.85 61.42 49.48 61.42C49.38 61.42 49.28 61.44 49.18 61.45C49.15 61.45 49.12 61.45 49.09 61.45C49.09 61.4 49.09 61.36 49.08 61.31C49.21 61.29 49.35 61.29 49.47 61.25C49.96 61.09 50.35 60.79 50.64 60.38C50.79 60.17 50.87 59.91 50.98 59.67C51 59.62 50.98 59.55 51.01 59.5C51.1 59.3 51.19 59.11 51.28 58.91C51.3 58.88 51.31 58.84 51.33 58.81C51.38 58.66 51.44 58.5 51.49 58.35C51.5 58.32 51.52 58.28 51.53 58.25C51.58 58.1 51.64 57.94 51.69 57.79C51.7 57.76 51.72 57.72 51.73 57.69C51.79 57.54 51.84 57.38 51.9 57.23C51.91 57.2 51.93 57.16 51.94 57.13L52.11 56.67C52.11 56.67 52.14 56.6 52.15 56.57L52.32 56.11C52.32 56.11 52.35 56.04 52.36 56.01C52.42 55.86 52.47 55.7 52.53 55.55C52.54 55.52 52.56 55.48 52.57 55.45C52.63 55.3 52.68 55.14 52.74 54.99C52.75 54.96 52.77 54.92 52.78 54.89C52.8 54.79 52.8 54.69 52.83 54.6C52.88 54.46 52.94 54.34 52.99 54.2C53.01 54.15 53.01 54.09 53.03 54.04C53.08 53.91 53.14 53.78 53.2 53.65C53.22 53.6 53.22 53.54 53.23 53.48C53.28 53.34 53.35 53.2 53.4 53.06C53.42 53.01 53.41 52.96 53.43 52.92C53.49 52.78 53.55 52.64 53.6 52.51C53.62 52.46 53.63 52.41 53.65 52.36C53.7 52.23 53.75 52.11 53.8 51.98C53.82 51.92 53.83 51.86 53.85 51.8C53.9 51.67 53.96 51.55 54 51.42C54.02 51.36 54.02 51.29 54.05 51.24C54.1 51.11 54.16 50.99 54.21 50.87C54.23 50.81 54.23 50.74 54.26 50.68C54.31 50.55 54.37 50.43 54.42 50.31C54.44 50.25 54.44 50.18 54.46 50.12C54.51 49.99 54.57 49.86 54.62 49.72C54.64 49.67 54.64 49.61 54.66 49.56C54.71 49.43 54.77 49.3 54.82 49.16C54.84 49.11 54.84 49.05 54.86 48.99C54.91 48.86 54.97 48.73 55.03 48.6C55.05 48.55 55.05 48.49 55.07 48.43C55.12 48.29 55.18 48.15 55.24 48.01C55.26 47.96 55.27 47.91 55.29 47.86C55.34 47.74 55.39 47.62 55.44 47.5C55.46 47.44 55.44 47.36 55.47 47.31C55.56 47.11 55.65 46.92 55.74 46.72C55.76 46.69 55.77 46.65 55.79 46.62C55.84 46.47 55.9 46.31 55.95 46.16C55.96 46.13 55.98 46.09 55.99 46.06C56.04 45.91 56.1 45.75 56.15 45.6L56.24 45.46Z" fill="#0093BD"/>
<path d="M44.77 57.02C44.77 57.02 44.74 56.95 44.72 56.92C44.62 56.7 44.5 56.48 44.42 56.25C44.32 55.97 44.27 55.68 44.18 55.4C44.14 55.28 44.05 55.17 44.01 55.05C43.91 54.76 43.83 54.47 43.74 54.18C43.74 54.16 43.72 54.15 43.71 54.14C43.49 53.88 43.43 53.55 43.32 53.23C43.31 53.2 43.29 53.16 43.28 53.13C43.22 52.98 43.17 52.82 43.11 52.67C43.1 52.64 43.08 52.6 43.07 52.57L42.9 52.11C42.9 52.11 42.87 52.04 42.86 52.01C42.83 51.94 42.8 51.87 42.78 51.8C42.76 51.71 42.71 51.6 42.74 51.53C42.84 51.26 42.98 51.01 43.09 50.75C43.13 50.65 43.09 50.52 43.13 50.43C43.24 50.18 43.37 49.93 43.48 49.68C43.53 49.57 43.53 49.43 43.58 49.32C43.7 49.05 43.84 48.79 43.95 48.52C43.99 48.41 43.95 48.27 44 48.16C44.1 47.91 44.27 47.68 44.35 47.43C44.47 47.03 44.6 46.65 44.77 46.27C44.82 46.17 44.77 46.02 44.82 45.91C44.93 45.65 45.08 45.41 45.17 45.15C45.28 44.86 45.34 44.55 45.42 44.25C45.42 44.23 45.42 44.22 45.43 44.2C45.57 43.87 45.71 43.53 45.84 43.2C45.86 43.16 45.84 43.11 45.84 43.07C45.93 42.87 46.02 42.68 46.11 42.48C46.28 42.03 46.45 41.59 46.61 41.14C46.84 40.5 47.07 39.86 47.31 39.23C47.4 38.98 47.5 38.74 47.6 38.49C47.63 38.42 47.66 38.35 47.69 38.28C47.73 38.21 47.76 38.14 47.8 38.07C47.83 38.02 47.87 37.97 47.9 37.92C47.91 37.9 47.93 37.88 47.94 37.86C47.96 37.83 47.99 37.8 48.01 37.77C48.09 37.69 48.18 37.6 48.26 37.52C48.3 37.49 48.33 37.46 48.37 37.44C48.4 37.42 48.43 37.39 48.47 37.37C48.47 37.37 48.49 37.39 48.5 37.4C48.5 37.38 48.52 37.36 48.52 37.35C48.67 37.27 48.83 37.2 48.98 37.12V37.14C49 37.14 49.01 37.13 49.03 37.12C49.06 37.11 49.1 37.1 49.13 37.08H49.18C49.18 37.08 49.22 37.07 49.23 37.06C49.3 37.03 49.37 37 49.43 36.97C49.52 36.98 49.6 36.99 49.69 37C49.78 37 49.86 37 49.95 37C50.04 36.99 50.12 36.98 50.21 36.97C50.23 36.98 50.25 37 50.26 37.01C50.26 37.01 50.3 37.04 50.31 37.06C50.43 37.08 50.54 37.1 50.66 37.12C50.76 37.15 50.86 37.19 50.97 37.22C51.04 37.26 51.11 37.29 51.18 37.33C51.2 37.36 51.22 37.39 51.24 37.42C51.38 37.54 51.51 37.66 51.65 37.77C51.68 37.79 51.71 37.81 51.74 37.83H51.75C51.75 37.83 51.78 37.86 51.79 37.88C51.79 37.89 51.8 37.91 51.81 37.93C51.83 37.97 51.85 38.01 51.87 38.04C51.89 38.04 51.9 38.06 51.91 38.07C52.04 38.4 52.18 38.73 52.31 39.06C52.32 39.1 52.34 39.13 52.35 39.17C52.41 39.32 52.46 39.47 52.52 39.63C52.53 39.67 52.55 39.7 52.56 39.74C52.62 39.89 52.67 40.04 52.73 40.2C52.74 40.24 52.75 40.27 52.77 40.31C52.83 40.5 52.89 40.68 52.94 40.87C52.97 40.94 53 41 53.03 41.07C53.07 41.19 53.11 41.31 53.15 41.43C53.18 41.5 53.21 41.57 53.24 41.63C53.28 41.75 53.32 41.87 53.35 41.99C53.38 42.06 53.41 42.13 53.44 42.19C53.48 42.31 53.52 42.43 53.55 42.55C53.58 42.62 53.61 42.69 53.64 42.75C53.68 42.87 53.72 42.99 53.75 43.11C53.78 43.18 53.81 43.25 53.84 43.31C53.99 43.72 54.15 44.13 54.3 44.54C54.31 44.58 54.33 44.61 54.34 44.65C54.4 44.8 54.45 44.95 54.51 45.11C54.52 45.15 54.54 45.18 54.55 45.22C54.61 45.37 54.67 45.52 54.73 45.67C54.73 45.71 54.75 45.74 54.76 45.78C54.8 45.91 54.84 46.05 54.87 46.18C54.85 46.21 54.84 46.25 54.82 46.28C54.77 46.43 54.72 46.59 54.67 46.74C54.65 46.77 54.63 46.81 54.62 46.84C54.57 46.99 54.52 47.15 54.47 47.3C54.45 47.33 54.43 47.37 54.42 47.4C54.37 47.55 54.32 47.71 54.27 47.86C54.25 47.89 54.23 47.93 54.22 47.96C54.17 48.11 54.12 48.27 54.07 48.42C54.05 48.45 54.03 48.49 54.02 48.52C53.97 48.67 53.92 48.83 53.87 48.98C53.85 49.01 53.83 49.05 53.82 49.08C53.77 49.23 53.72 49.39 53.67 49.54C53.65 49.57 53.63 49.61 53.62 49.64L53.47 50.1C53.47 50.1 53.43 50.17 53.42 50.2C53.37 50.35 53.32 50.51 53.27 50.66C53.25 50.69 53.23 50.73 53.22 50.76C53.17 50.91 53.12 51.07 53.07 51.22C53.05 51.25 53.03 51.29 53.02 51.32C52.95 51.51 52.88 51.69 52.81 51.88C52.8 51.92 52.79 51.95 52.78 51.99C52.72 52.14 52.66 52.29 52.6 52.44C52.6 52.48 52.58 52.51 52.57 52.55C52.51 52.7 52.45 52.85 52.39 53L52.36 53.11C52.3 53.26 52.24 53.41 52.18 53.56C52.17 53.6 52.15 53.63 52.14 53.67C52.08 53.82 52.03 53.97 51.97 54.13C51.96 54.17 51.94 54.2 51.93 54.24C51.87 54.39 51.82 54.54 51.76 54.7C51.75 54.74 51.73 54.77 51.72 54.81C51.66 54.96 51.61 55.11 51.55 55.27C51.54 55.31 51.52 55.34 51.51 55.38C51.45 55.53 51.4 55.68 51.34 55.84C51.33 55.88 51.31 55.91 51.3 55.95C51.24 56.1 51.19 56.25 51.13 56.41C51.12 56.45 51.1 56.48 51.09 56.52C51 56.79 50.92 57.07 50.83 57.34C50.78 57.37 50.74 57.41 50.69 57.44C50.64 57.61 50.61 57.78 50.55 57.95C50.43 58.29 50.3 58.63 50.17 58.98C50.15 59.01 50.14 59.05 50.12 59.08C50.1 59.13 50.08 59.18 50.06 59.23C50.01 59.33 49.97 59.44 49.92 59.54C49.73 59.78 49.54 60.02 49.36 60.26C49.33 60.29 49.29 60.31 49.26 60.34V60.36H49.24C49.23 60.37 49.22 60.38 49.21 60.4C49.16 60.42 49.11 60.44 49.06 60.47C49.02 60.5 48.99 60.53 48.95 60.56C48.94 60.56 48.92 60.57 48.9 60.57C48.88 60.58 48.86 60.6 48.84 60.61C48.55 60.68 48.26 60.75 47.97 60.83C47.77 60.83 47.56 60.83 47.36 60.83C47.16 60.76 46.95 60.69 46.75 60.63C46.73 60.62 46.71 60.61 46.7 60.59C46.4 60.34 46.11 60.08 45.81 59.83C45.77 59.76 45.73 59.68 45.69 59.61C45.57 59.27 45.45 58.94 45.33 58.6C45.32 58.57 45.29 58.54 45.28 58.51C45.24 58.4 45.2 58.29 45.16 58.18C45.15 58.15 45.13 58.11 45.12 58.08L44.95 57.62C44.95 57.62 44.92 57.55 44.91 57.52L44.75 57.06L44.77 57.02Z" fill="#0093BD"/>
<path d="M49.27 61.35C49.37 61.34 49.47 61.32 49.57 61.32C53.94 61.32 58.3 61.32 62.67 61.32C62.76 61.32 62.85 61.35 62.94 61.36C62.84 61.36 62.74 61.36 62.63 61.36C58.27 61.36 53.91 61.36 49.55 61.36C49.46 61.36 49.36 61.35 49.27 61.34V61.35Z" fill="#4FC2DA"/>
<path d="M48.45 36.5C48.45 36.5 48.45 36.45 48.45 36.43C48.55 36.43 48.66 36.42 48.76 36.41C48.76 36.42 48.76 36.44 48.76 36.45C48.66 36.47 48.55 36.49 48.45 36.51V36.5Z" fill="#68CAE0"/>
<path d="M49.03 61.29C49.03 61.29 49.13 61.24 49.17 61.21C49.17 61.26 49.17 61.3 49.18 61.35C49.1 61.35 49.02 61.36 48.9 61.37C48.97 61.32 49 61.3 49.03 61.28V61.29Z" fill="#4FC2DA"/>
<path d="M48.41 37.44C48.41 37.44 48.34 37.5 48.3 37.52C48.34 37.49 48.37 37.46 48.41 37.44Z" fill="#079AC1"/>
<path d="M48.05 37.78C48.05 37.78 48 37.84 47.98 37.87C48 37.84 48.03 37.81 48.05 37.78Z" fill="#079AC1"/>
<path d="M48.56 37.34C48.56 37.34 48.54 37.38 48.54 37.39C48.54 37.39 48.52 37.37 48.51 37.36C48.53 37.36 48.55 37.34 48.56 37.33V37.34Z" fill="#079AC1"/>
<path d="M47.98 37.87C47.98 37.87 47.95 37.91 47.94 37.93C47.95 37.91 47.97 37.89 47.98 37.87Z" fill="#079AC1"/>
<path d="M49.28 37.07C49.35 37.04 49.42 37.01 49.48 36.98C49.41 37.01 49.34 37.04 49.28 37.07Z" fill="#079AC1"/>
<path d="M53.78 43.1C53.81 43.17 53.84 43.24 53.87 43.3C53.84 43.23 53.81 43.16 53.78 43.1Z" fill="#079AC2"/>
<path d="M53.37 41.98C53.4 42.05 53.43 42.12 53.46 42.18C53.43 42.11 53.4 42.04 53.37 41.98Z" fill="#089BC2"/>
<path d="M53.16 41.42C53.19 41.49 53.22 41.56 53.25 41.62C53.22 41.55 53.19 41.48 53.16 41.42Z" fill="#089BC2"/>
<path d="M53.57 42.54C53.6 42.61 53.63 42.68 53.66 42.74C53.63 42.67 53.6 42.6 53.57 42.54Z" fill="#079AC2"/>
<path d="M50.85 57.33C50.85 57.33 50.76 57.4 50.71 57.43C50.76 57.4 50.8 57.36 50.85 57.33Z" fill="#0B9BC2"/>
<path d="M54.69 46.74C54.69 46.74 54.65 46.81 54.64 46.84C54.66 46.81 54.68 46.77 54.69 46.74Z" fill="#079AC1"/>
<path d="M53.05 51.24C53.05 51.24 53.01 51.31 53 51.34C53.02 51.31 53.04 51.27 53.05 51.24Z" fill="#0799C1"/>
<path d="M53.26 50.68C53.26 50.68 53.22 50.75 53.21 50.78C53.23 50.75 53.25 50.71 53.26 50.68Z" fill="#0799C1"/>
<path d="M53.46 50.11C53.46 50.11 53.42 50.18 53.41 50.21C53.43 50.18 53.45 50.14 53.46 50.11Z" fill="#0799C1"/>
<path d="M50.19 58.96C50.19 58.96 50.16 59.03 50.14 59.06C50.16 59.03 50.17 58.99 50.19 58.96Z" fill="#0699C1"/>
<path d="M53.67 49.55C53.67 49.55 53.63 49.62 53.62 49.65C53.64 49.62 53.66 49.58 53.67 49.55Z" fill="#089BC2"/>
<path d="M53.87 48.99C53.87 48.99 53.83 49.06 53.82 49.09C53.84 49.06 53.86 49.02 53.87 48.99Z" fill="#089BC2"/>
<path d="M54.08 48.43C54.08 48.43 54.04 48.5 54.03 48.53C54.05 48.5 54.07 48.46 54.08 48.43Z" fill="#089BC2"/>
<path d="M54.28 47.86C54.28 47.86 54.24 47.93 54.23 47.96C54.25 47.93 54.27 47.89 54.28 47.86Z" fill="#079AC1"/>
<path d="M54.49 47.3C54.49 47.3 54.45 47.37 54.44 47.4C54.46 47.37 54.48 47.33 54.49 47.3Z" fill="#079AC1"/>
<path d="M54.89 46.17C54.89 46.17 54.86 46.24 54.84 46.27C54.86 46.24 54.87 46.2 54.89 46.17Z" fill="#0899C1"/>
<path d="M49.37 60.24C49.37 60.24 49.3 60.29 49.27 60.32C49.3 60.29 49.34 60.27 49.37 60.24Z" fill="#0599C0"/>
<path d="M49.08 60.45C49.08 60.45 49.01 60.51 48.97 60.54C49.01 60.51 49.04 60.48 49.08 60.45Z" fill="#0599C0"/>
<path d="M51.84 37.93C51.84 37.93 51.88 38.01 51.9 38.04C51.88 38 51.86 37.96 51.84 37.93Z" fill="#0A9BC2"/>
<path d="M51.68 37.78C51.68 37.78 51.74 37.82 51.77 37.84C51.74 37.82 51.71 37.8 51.68 37.78Z" fill="#0A9BC2"/>
<path d="M51.22 37.34C51.22 37.34 51.26 37.4 51.28 37.43C51.26 37.4 51.24 37.37 51.22 37.34Z" fill="#0498C0"/>
<path d="M49.25 60.34C49.25 60.34 49.23 60.37 49.22 60.38C49.22 60.37 49.23 60.35 49.25 60.34Z" fill="#0599C0"/>
<path d="M48.92 60.55C48.92 60.55 48.88 60.58 48.86 60.59C48.88 60.58 48.9 60.56 48.92 60.55Z" fill="#0599C0"/>
<path d="M49.02 37.14C49.02 37.14 49.05 37.13 49.07 37.12C49.05 37.12 49.04 37.13 49.02 37.14Z" fill="#079AC1"/>
<path d="M50.25 36.98C50.25 36.98 50.29 37.01 50.3 37.02C50.28 37.01 50.26 36.99 50.25 36.98Z" fill="#0498C0"/>
<path d="M50.3 37.02C50.3 37.02 50.34 37.05 50.35 37.07C50.33 37.05 50.31 37.04 50.3 37.02Z" fill="#0498C0"/>
<path d="M51.93 38.08L51.95 38.06L51.93 38.07V38.08Z" fill="#0A9BC2"/>
<path d="M51.78 37.85C51.78 37.85 51.81 37.87 51.82 37.89C51.81 37.88 51.79 37.87 51.78 37.85Z" fill="#0A9BC2"/>
<mask id="mask0_1_2" style="mask-type:luminance" maskUnits="userSpaceOnUse" x="-31" y="-4" width="161" height="108">
<path d="M129.91 -3.41H-30.32V103.45H129.91V-3.41Z" fill="white"/>
</mask>
<g mask="url(#mask0_1_2)">
<path fill-rule="evenodd" clip-rule="evenodd" d="M49.82 99.16C41.47 99.16 33.26 97.03 25.98 92.98L30.89 84.77C36.69 87.94 43.2 89.6 49.79 89.6C63.65 89.6 76.68 82.22 83.78 70.33C89.2 61.26 90.76 50.62 88.18 40.38C85.6 30.14 79.18 21.51 70.11 16.09C64.43 12.69 57.98 10.78 51.38 10.52V0.960003C77.74 1.78 98.93 23.49 98.93 50.04C98.93 76.59 76.9 99.15 49.82 99.15V99.16Z" fill="#0093BD" stroke="white" stroke-width="0.25" stroke-linejoin="round"/>
</g>
<mask id="mask1_1_2" style="mask-type:luminance" maskUnits="userSpaceOnUse" x="-31" y="-4" width="161" height="108">
<path d="M129.91 -3.41H-30.32V103.45H129.91V-3.41Z" fill="white"/>
</mask>
<g mask="url(#mask1_1_2)">
<path fill-rule="evenodd" clip-rule="evenodd" d="M23.31 91.39C3.72 78.82 -4.39 53.87 4.08 32.19L12.87 35.95C6.27 53.26 12.7 73.06 28.22 83.18L23.31 91.39Z" fill="#0093BD" stroke="white" stroke-width="0.25" stroke-linejoin="round"/>
</g>
<mask id="mask2_1_2" style="mask-type:luminance" maskUnits="userSpaceOnUse" x="-31" y="-4" width="161" height="108">
<path d="M129.91 -3.41H-30.32V103.45H129.91V-3.41Z" fill="white"/>
</mask>
<g mask="url(#mask2_1_2)">
<path fill-rule="evenodd" clip-rule="evenodd" d="M5.3 29.33C9.24 20.84 15.43 13.76 23.31 8.71L28.22 16.92C22.08 20.92 17.23 26.46 14.09 33.09L5.3 29.33Z" fill="#0093BD" stroke="white" stroke-width="0.25" stroke-linejoin="round"/>
</g>
<mask id="mask3_1_2" style="mask-type:luminance" maskUnits="userSpaceOnUse" x="-31" y="-4" width="161" height="108">
<path d="M129.91 -3.41H-30.32V103.45H129.91V-3.41Z" fill="white"/>
</mask>
<g mask="url(#mask3_1_2)">
<path fill-rule="evenodd" clip-rule="evenodd" d="M25.98 7.12C32.81 3.33 40.46 1.22 48.27 0.970001V10.53C42.19 10.77 36.23 12.41 30.89 15.33L25.98 7.12Z" fill="#0093BD" stroke="white" stroke-width="0.25" stroke-linejoin="round"/>
</g>
</g>
<defs>
<clipPath id="clip0_1_2">
<rect width="100" height="100" fill="white"/>
</clipPath>
</defs>
</svg>
