<?xml version="1.0" encoding="utf-8"?>
<!-- Generator: Adobe Illustrator 26.3.1, SVG Export Plug-In . SVG Version: 6.00 Build 0)  -->
<svg version="1.1" id="Capa_1" xmlns="http://www.w3.org/2000/svg" xmlns:xlink="http://www.w3.org/1999/xlink" x="0px" y="0px"
	 viewBox="0 0 500 500" style="enable-background:new 0 0 500 500;" xml:space="preserve">
<path d="M249.5,16.2C120.4,16.2,15.7,120.9,15.7,250s104.7,233.8,233.8,233.8S483.4,379.1,483.4,250S378.7,16.2,249.5,16.2z
	 M384.6,356.7c0,1.4-0.1,2.8-0.3,4.2c-0.8,5-2.7,9.5-5.8,13.4c-4.7,5.9-10.8,9.6-18.3,10.6c-4.7,0.7-9.4,0.6-14.1,0.1
	c-6.7-0.8-12.4-3.7-16.9-8.6c-1.9-2.1-3.6-4.3-5.5-6.4c-7.7-9.2-15.3-18.3-22.9-27.5c-8.4-10-16.7-20-25.1-30
	c-9-10.8-18.1-21.7-27.1-32.5s-18.1-21.7-27.2-32.5c-9.1-10.9-18.2-21.7-27.2-32.6c-8.3-10-16.7-20-25-29.9c-3-3.6-6-7.1-9-10.7
	c-0.6-0.7-1.3-0.9-2.2-0.7c-0.8,0.2-1.4,0.7-1.7,1.5c-0.1,0.4-0.1,0.8-0.1,1.3c0,49.8,0,99.5,0,149.3c0,0.2,0,0.4,0,0.6
	c0,0.9,0.4,1.7,1.2,2.1c0.9,0.4,1.7,0.2,2.4-0.4c0.6-0.5,1.3-1.1,1.9-1.6c10.2-8.8,20.4-17.6,30.5-26.4c7.7-6.6,15.3-13.2,23-19.9
	c3.6-3.1,8.2-1.2,9.7,2.4c0.8,2.1,0.3,4-0.9,5.8c-15.7,23.2-31.4,46.5-47,69.8c-3.5,5.1-6.7,10.4-10.5,15.4
	c-6.9,9.1-16.2,13-27.5,11.5c-5-0.6-9.5-2.7-13.4-5.8c-5.6-4.4-9.1-10.2-10.5-17.2c-0.2-1.1-0.4-2.2-0.5-3.3c0-72.2,0-144.4,0-216.7
	c0.1-0.8,0.2-1.5,0.3-2.3c0.9-5.6,3.2-10.5,7-14.8c4.2-4.7,9.5-7.8,15.7-9c1.1-0.2,2.2-0.4,3.3-0.5c3.5,0,7,0,10.5,0
	c0.9,0.1,1.7,0.3,2.6,0.4c6.4,1.1,11.9,3.9,16.1,8.9c7.9,9.3,15.7,18.7,23.5,28c11.1,13.3,22.2,26.6,33.3,39.8
	c12.5,14.9,25,29.9,37.5,44.8c12.7,15.2,25.4,30.4,38.1,45.6c12.1,14.4,24.1,28.9,36.2,43.3c0.8,0.9,1.6,1.2,2.6,0.8
	c1-0.4,1.5-1.1,1.5-2.3c0-50.1,0-100.3,0-150.4c0-1-0.3-1.9-1.3-2.3c-1-0.5-1.8-0.1-2.6,0.6c-6.7,5.8-13.4,11.7-20.1,17.5
	c-9.2,8-18.4,16-27.6,24c-2.5,2.2-5,4.3-7.4,6.5c-1.7,1.4-3.5,2-5.7,1.4c-3.3-1-6.1-5.2-3.1-9.6c12.4-18.2,24.6-36.5,36.9-54.8
	c6.6-9.8,13.2-19.6,19.8-29.4c4.5-6.7,10.8-10.8,18.7-12.4c1.1-0.2,2.3-0.4,3.4-0.5c1.5,0,3,0,4.5,0c0.1,0,0.3,0.1,0.4,0.1
	c1.2,0.2,2.5,0.3,3.7,0.6c13,2.8,22.5,14.5,22.5,27.9C384.6,214.9,384.6,285.8,384.6,356.7z"/>
</svg>
