<svg xmlns="http://www.w3.org/2000/svg" xmlns:xlink="http://www.w3.org/1999/xlink" width="32" height="32" viewBox="0 0 32 32">
  <defs>
    <clipPath id="clip-path">
      <rect id="Rectángulo_77" data-name="Rectángulo 77" width="17.846" height="18.901" fill="#fff"/>
    </clipPath>
  </defs>
  <g id="Grupo_74" data-name="Grupo 74" transform="translate(-550 -534)">
    <circle id="Elipse_16" data-name="Elipse 16" cx="16" cy="16" r="16" transform="translate(550 534)"/>
    <g id="Grupo_73" data-name="Grupo 73" transform="translate(557.077 540.549)">
      <g id="Grupo_72" data-name="Grupo 72" clip-path="url(#clip-path)">
        <path id="Trazado_233" data-name="Trazado 233" d="M15.313,0,15.07.04c-1.886,1.046-3.858,1.942-5.747,2.979-.532.292-.974.47-1.161,1.111-.031,1.86.214,3.731.221,5.59-1.72,2.815-3.9,5.488-5.586,8.3a1.253,1.253,0,0,0-.288.873c.052.054.667-.279.775-.334,1.772-.906,3.636-1.827,5.37-2.788.545-.3.949-.549,1.034-1.238-.057-1.8-.247-3.6-.237-5.4,1.915-2.96,4.015-5.813,5.84-8.823ZM7.155,4.234l-.2.029c-1.837,1-3.735,1.9-5.581,2.887C.767,7.472.186,7.672,0,8.412l.287,6.044a.38.38,0,0,0,.205-.027c.183-.087,1.776-2.534,2.036-2.92C4.086,9.2,5.664,6.9,7.119,4.534Zm10.379.154c-.219-.04-.332.145-.456.293l-6.206,9.231c-.082.1-.381.69-.175.748a5.949,5.949,0,0,0,.952-.436c1.734-.881,3.709-1.817,5.37-2.788a1.457,1.457,0,0,0,.827-1.135Z" fill="#fff"/>
      </g>
    </g>
  </g>
</svg>
