<svg xmlns="http://www.w3.org/2000/svg" xmlns:xlink="http://www.w3.org/1999/xlink" width="800" height="800" viewBox="0 0 800 800">
  <defs>
    <clipPath id="clip-path">
      <rect id="Rectángulo_2" data-name="Rectángulo 2" width="557.834" height="369.324" fill="#fff"/>
    </clipPath>
    <clipPath id="clip-NVIDIA">
      <rect width="800" height="800"/>
    </clipPath>
  </defs>
  <g id="NVIDIA" clip-path="url(#clip-NVIDIA)">
    <rect width="800" height="800" fill="#fff"/>
    <circle id="Elipse_1" data-name="Elipse 1" cx="400" cy="400" r="400" fill="#7fbf1d"/>
    <g id="Grupo_4" data-name="Grupo 4" transform="translate(121.297 215.431)">
      <g id="Grupo_3" data-name="Grupo 3" clip-path="url(#clip-path)">
        <path id="Trazado_2" data-name="Trazado 2" d="M278.1,296.926c.985-6.54.2-13.12.433-19.677.058-1.615.009-3.234.009-4.852,0-5.617.055-4.749,5.52-5.093,5.029-.317,9.616,1.72,14.625,1.124,5.029-.6,10.217.241,15.281-.192,13.972-1.194,27.463-4.59,40.735-9.135,10.394-3.559,20.081-8.533,29.841-13.429,33.591-16.85,62-40.605,88.775-66.533,7.867-7.618,15.3-15.656,22.548-23.869,1.445-1.638,1.535-2.652.088-4.343a310.347,310.347,0,0,0-60.327-54.678,280.829,280.829,0,0,0-28.577-17.711c-16.453-8.6-33.381-16.127-51.337-20.972a232.511,232.511,0,0,0-34.148-6.574c-13.312-1.525-26.581-2.735-39.959-1.346-2.436.253-3.141-.515-3.122-2.993q.173-21.831.01-43.664C278.48.738,279.088-.267,281.4.063a13.372,13.372,0,0,0,1.865.013Q453.305.075,623.34,0c3.566,0,4.762.591,4.758,4.558q-.194,180.07-.105,360.14c0,.871.007,1.742-.01,2.613-.032,1.608-.339,2.574-2.36,1.662-.934-.422-2.207-.107-3.326-.107q-169.476,0-338.951.109c-3.95,0-5.031-.652-4.922-4.76.341-12.8.162-25.623.185-38.435l-.069.052c5.308.254,10.612.625,15.923.731,5.841.117,11.721-.4,17.523.081,5.613.47,10.964-2.184,16.555-.863a2.477,2.477,0,0,0,2.282-.978c.471-.445.736-1.239,1.753-.7,3.563,1.908,6.9-1.242,10.638-.433,3.784.818,7.444-1.508,11.45-1.744,12.009-.708,23.75-3.673,35.478-6.3,16.317-3.655,32.6-7.372,48.543-12.652,7.67-2.539,15.592-4.6,23.346-7.062a507.536,507.536,0,0,0,59.691-23.187c21.354-9.882,42-21,60.573-35.611,3.862-3.038,3.926-3.147-.212-6.026-3.661-2.547-7.483-4.867-11.268-7.233-15.663-9.789-32.9-16.914-47.675-28.2-.748-.572-1.217-.085-1.534.332-2.477,3.258-6.441,4.846-9.108,7.652-5.744,6.042-12.439,10.891-18.855,16.033-22.915,18.363-46.807,35.251-73.2,48.481A381.692,381.692,0,0,1,381.5,285.107c-6.266,2.312-13.093,3.051-19.349,5.074-8.13,2.628-16.42,4.137-24.683,5.58a181.985,181.985,0,0,1-33.3,2.441c-8.526-.093-17.065.3-25.564-.73a4.134,4.134,0,0,0-.5-.545" transform="translate(-70.265 0)" fill="#fff"/>
        <path id="Trazado_3" data-name="Trazado 3" d="M242.122,135.852l.058-32.868-.061.061a94.208,94.208,0,0,1,26.236-.361c6,.658,12.03.989,17.964,2.235,31.325,6.583,58.746,21.044,83.115,41.467,11.32,9.487,21.5,20.19,31.337,31.209,1.63,1.825,1.986,3.119.217,5.294-6.871,8.452-14.051,16.589-21.529,24.53-16.1,17.1-33.416,32.618-53.627,44.737-13.806,8.278-28.535,14.482-44.388,17.091A83.53,83.53,0,0,1,245.024,267c-3.317-.939-2.921.41-2.915,2.424.015,6.466-.087,12.933.049,19.4.058,2.729-.557,3.238-3.388,2.609-45.391-10.094-75.392-38.76-95.777-79.065-3.226-6.378-5.852-13.03-8.442-19.7-1.142-2.939-.765-4.944,1.6-7.152a188.194,188.194,0,0,1,84.31-45.99c7.168-1.785,14.489-2.458,21.724-3.736-.023,3.811.045,7.626-.09,11.433-.2,5.744.6,11.513-.429,17.235-.457.156-1,.555-1.359.431-5.052-1.72-10.153-.512-14.994.416-18.25,3.5-32.734,13.666-45.428,26.773-1.324,1.367-1.022,2.533-.52,4.014a133.207,133.207,0,0,0,12.481,26.574c11.2,18.388,25.734,33.1,46.011,41.413,4.248,1.742,4.256,1.729,4.259-2.852q.033-48.119.064-96.238c1.542-.427,2.86.551,4.305.688,15.9,1.509,28.671,8.6,38.411,21.28,7.289,9.493,13.185,19.864,19.261,30.119,1.38,2.331,2.2,2.9,4.545.894q21.246-18.194,42.779-36.053c2-1.658,1.422-2.658.105-4.1-23.677-25.862-52.388-41.41-87.948-42.94a167.79,167.79,0,0,0-21.514.97" transform="translate(-33.839 -25.758)" fill="#fff"/>
        <path id="Trazado_4" data-name="Trazado 4" d="M208.343,342.671c-8.115.652-15.794-2.017-23.632-3.311a177.476,177.476,0,0,1-21.375-5.084c-5.984-1.77-11.678-4.5-17.616-6.45-8.074-2.657-14.844-7.871-22.641-11.081-8.031-3.308-14.709-8.882-21.816-13.75-4.549-3.116-9.4-5.925-13.365-9.689-9.989-9.478-20.815-18.022-29.707-28.747-10.22-12.327-20.323-24.706-29.071-38.106A273.373,273.373,0,0,1,4.141,179.7a32.555,32.555,0,0,0-2.122-4.282c-2.931-4.983-2.9-5.252,1.625-9.11,6.077-5.178,12.046-10.508,18.218-15.53,5.393-4.387,11.188-8.393,16.735-12.643,8.814-6.752,18-13.013,27.17-19.2a227.238,227.238,0,0,1,25.6-14.711c7.981-3.986,15.918-8.057,23.936-11.987,6.879-3.371,14.057-5.85,21.1-8.731A243,243,0,0,1,172.965,72.3c5.755-1.356,11.608-2.548,17.349-3.811,5.078-1.117,10.644-2.191,16.178-1.321,2.238.352,1.764,1.619,1.768,2.862.03,8.048.017,16.1.019,24.144l.062-.062c-8.988.965-17.947,1.811-26.883,3.527A191.735,191.735,0,0,0,128.733,115.9c-26.7,13.912-49.858,32.378-68.78,55.974-2.072,2.584-2.62,4.735-1.344,8,16.56,42.442,40.932,79.081,78.311,106.142a161.179,161.179,0,0,0,36.044,19.254,132.333,132.333,0,0,0,34.871,8.539,4.237,4.237,0,0,1,.5.545q-.031,14.18-.063,28.361Z" transform="translate(0 -16.891)" fill="#fff"/>
      </g>
    </g>
  </g>
</svg>
