<?xml version="1.0" encoding="utf-8"?>
<!-- Generator: Adobe Illustrator 26.3.1, SVG Export Plug-In . SVG Version: 6.00 Build 0)  -->
<svg version="1.1" id="Layer_1" xmlns="http://www.w3.org/2000/svg" xmlns:xlink="http://www.w3.org/1999/xlink" x="0px" y="0px"
	 viewBox="0 0 500 500" style="enable-background:new 0 0 500 500;" xml:space="preserve">
<style type="text/css">
	.st0{fill:#E90085;}
</style>
<g id="t6dTa8.tif">
	<g>
		<path class="st0" d="M12.6,257.8c0-5.1,0-10.2,0-15.3c0.1-0.8,0.2-1.5,0.3-2.3c1.1-10.5,1.8-21.1,3.5-31.6
			c4.1-25.2,12.6-49,24.8-71.5c12.5-23,28.3-43.4,47.5-61.2c30.8-28.4,66.7-47.5,107.6-57c15.6-3.7,31.5-5.6,47.5-6
			c23.9-0.6,47.4,2.2,70.5,8.7c39.2,11,73.2,30.9,102.3,59.3c20.5,20.1,36.7,43.2,48.8,69.2c13,27.8,20.1,57,21.7,87.6
			c1.2,22.6-0.8,45-6,67.1c-7.5,31.5-21,60.3-40.3,86.3c-18.8,25.3-41.8,46.1-68.9,62.3c-17.3,10.4-35.6,18.3-55,24
			c-18.8,5.5-37.9,8.6-57.5,9.4c-16.3,0.6-32.5-0.4-48.6-3.1c-20.6-3.4-40.4-9.4-59.3-18.1c-28.7-13.2-53.8-31.2-75.3-54.4
			c-15.2-16.3-27.9-34.4-38-54.3c-7.2-14.1-12.8-28.7-17-43.9c-3.9-14.3-6.6-28.9-7.7-43.7C13.2,265.6,12.9,261.7,12.6,257.8z
			 M178.3,157.8c0-1.5,0.1-2.9,0-4.4c-0.6-7.2-2.8-13.7-8.4-18.6c-9-7.8-20.1-8.6-31.3-2.2c-17,9.8-30,23.3-37.9,41.2
			c-6,13.5-10,27.4-7.7,42.4c1.2,8.2,4.3,15.4,11.8,19.9c7,4.2,14.5,4.1,22.1,1.7c5.5-1.7,10.2-5.1,14.7-8.5
			C165.6,211.5,177.2,187.3,178.3,157.8z M255.1,418c4-0.6,11-1.1,17.8-2.7c11.6-2.6,22.1-7.7,30.6-16.2
			c10.1-10.1,10.1-23.5,0.1-33.6c-7.9-8-17.8-12.6-28.5-15.4c-13.4-3.5-27-3.9-40.7-2c-13.4,1.9-25.4,6.8-35.8,15.7
			c-11.4,9.9-12.1,24.7-1.5,35.5c4.9,5,10.7,8.7,17.1,11.5C226.3,416.2,239.1,417.4,255.1,418z M92.2,292.8
			c0.4,3.8,0.3,7.7,1.2,11.4c3.3,15.4,10.1,29.3,19.5,41.9c8,10.7,18.3,18.6,30.8,23.4c16,6.2,29.3-0.7,33.3-17.3
			c2.2-9.1,1.8-18.3-0.3-27.4c-4-16.9-12.4-31.5-23.8-44.4c-8.3-9.4-18.5-16-30.9-18.6c-11.9-2.6-21.2,2.3-26.4,13.3
			C92.9,280.7,92.3,286.6,92.2,292.8z M321.9,343.3c0.1,1.6,0.2,3.9,0.6,6.2c2.4,17.8,19.1,27.4,35.4,20c14.1-6.4,25.3-16.6,34-29.3
			c7.9-11.4,12.5-24.2,15-37.8c1.5-8.3,2-16.5-0.9-24.6c-3.2-8.8-8.9-15-18.6-16.7c-5-0.9-9.8,0.4-14.5,1.8
			c-8,2.4-14.2,7.5-20.3,12.9C332.8,293.7,322.7,316.1,321.9,343.3z M250.1,153.4c4.9-0.4,9.8-0.7,14.7-1.3
			c13-1.6,24.9-6.1,35.3-14.1c13.1-10.1,14.3-25.6,2.9-37.4c-5.1-5.3-11.3-8.6-18-11.3c-22.1-8.6-44.3-9.8-66.6-1.1
			c-8.1,3.1-16,6.7-22.2,13.2c-6.6,7-8.3,17.4-4.3,26.1c3.8,8,10.4,12.7,17.9,16.7C222.3,150.8,236,153,250.1,153.4z M408,205.3
			c-0.3-2.3-0.6-6.8-1.6-11.2c-3.3-14.7-10-27.9-19-39.9c-8.7-11.6-19.9-20.1-33.8-24.5c-10.1-3.2-20.3,0.2-26.2,8.7
			c-3.7,5.3-5.1,11.3-5.4,17.6c-0.8,16.5,4.2,31.5,12.2,45.7c6.5,11.5,15.2,21,25.9,29c7.5,5.6,15.8,8.5,24.8,8.7
			c8.9,0.2,14.8-5.2,19.1-12.5C407.5,220.8,407.8,214.2,408,205.3z"/>
	</g>
</g>
</svg>
