<svg width="32" height="32" viewBox="0 0 32 32" fill="none" xmlns="http://www.w3.org/2000/svg">
<path d="M15.7032 27.3333C11.0317 27.3333 7.33337 23.5377 7.33337 18.9635C7.33337 14.6813 14.146 5.43552 14.9246 4.36496C15.3139 3.87835 16.0925 3.87835 16.4818 4.36496C17.2604 5.43552 24.073 14.6813 24.073 18.9635C24.073 23.5377 20.3747 27.3333 15.7032 27.3333ZM15.7032 6.60341C13.3674 9.81508 9.27985 16.1411 9.27985 18.9635C9.27985 22.4672 12.1996 25.3869 15.7032 25.3869C19.2069 25.3869 22.1266 22.4672 22.1266 18.9635C22.1266 16.1411 18.039 9.81508 15.7032 6.60341Z" fill="#0179EF"/>
<path d="M15.7032 24.4137C15.2166 24.4137 14.8273 24.0244 14.73 23.5378C14.6327 23.0511 15.022 22.5645 15.6059 22.4672C18.6229 22.1752 19.0122 18.9635 19.0122 18.8662C19.1096 18.3796 19.4988 17.893 20.0828 17.9903C20.5694 17.9903 21.056 18.4769 20.9587 19.0609C20.7641 20.7154 19.5962 24.0244 15.8979 24.4137C15.8006 24.4137 15.7032 24.4137 15.7032 24.4137Z" fill="#0179EF"/>
</svg>
