<svg width="309" height="178" viewBox="0 0 309 178" fill="none" xmlns="http://www.w3.org/2000/svg">
<path d="M92.11 164.63L112.69 106.85L78.87 11.85H0.26001L54.68 164.5C57.42 171.98 64.92 177.1 73.37 177.28C81.82 177.16 89.33 172.12 92.11 164.63Z" fill="white"/>
<path d="M189.86 13.55C187.47 7.13999 181.64 1.41999 174.5 1.26999C167 1.11999 160.69 7.06999 158.22 13.83L157.57 15.6L129.25 96.5L103.59 168.5C102.397 171.699 100.673 174.675 98.49 177.3H164.77C173.26 177.16 180.77 172.02 183.57 164.51L184.23 162.7L212.54 81.84L213.37 79.52L189.86 13.55V13.55Z" fill="white"/>
<path d="M229.5 88.73H308.09L281.34 13.73C278.59 6.22 271.04 1.08 262.54 0.940002H261.26H196.26C198.425 3.5451 200.136 6.49641 201.32 9.67L229.5 88.73V88.73Z" fill="white"/>
</svg>
