<?xml version="1.0" encoding="utf-8"?>
<!-- Generator: Adobe Illustrator 21.0.0, SVG Export Plug-In . SVG Version: 6.00 Build 0)  -->
<svg version="1.1" id="Layer_1" xmlns="http://www.w3.org/2000/svg" xmlns:xlink="http://www.w3.org/1999/xlink" x="0px" y="0px"
	 viewBox="0 0 500 500" style="enable-background:new 0 0 500 500;" xml:space="preserve">
<style type="text/css">
	.st0{fill:url(#SVGID_1_);}
	.st1{fill:url(#SVGID_2_);}
	.st2{fill:url(#SVGID_3_);}
</style>
<circle cx="250" cy="249.2" r="237.5"/>
<g>
	
		<linearGradient id="SVGID_1_" gradientUnits="userSpaceOnUse" x1="370.7777" y1="208.0422" x2="207.1003" y2="-105.466" gradientTransform="matrix(1 0 0 -1 0 314)">
		<stop  offset="0" style="stop-color:#00FFA3"/>
		<stop  offset="1" style="stop-color:#DC1FFF"/>
	</linearGradient>
	<path class="st0" d="M150,311.1c1.8-1.8,4.2-2.8,6.9-2.8h236.5c4.3,0,6.5,5.2,3.4,8.3L350,363.3c-1.8,1.8-4.2,2.8-6.9,2.8H106.7
		c-4.3,0-6.5-5.2-3.4-8.3L150,311.1z"/>
	
		<linearGradient id="SVGID_2_" gradientUnits="userSpaceOnUse" x1="299.2082" y1="245.4076" x2="135.5305" y2="-68.1006" gradientTransform="matrix(1 0 0 -1 0 314)">
		<stop  offset="0" style="stop-color:#00FFA3"/>
		<stop  offset="1" style="stop-color:#DC1FFF"/>
	</linearGradient>
	<path class="st1" d="M150,136.7c1.9-1.8,4.3-2.8,6.9-2.8h236.5c4.3,0,6.5,5.2,3.4,8.3L350,188.8c-1.8,1.8-4.2,2.8-6.9,2.8H106.7
		c-4.3,0-6.5-5.2-3.4-8.3L150,136.7z"/>
	
		<linearGradient id="SVGID_3_" gradientUnits="userSpaceOnUse" x1="334.7571" y1="226.8481" x2="171.0795" y2="-86.6603" gradientTransform="matrix(1 0 0 -1 0 314)">
		<stop  offset="0" style="stop-color:#00FFA3"/>
		<stop  offset="1" style="stop-color:#DC1FFF"/>
	</linearGradient>
	<path class="st2" d="M350,223.3c-1.8-1.8-4.2-2.8-6.9-2.8H106.7c-4.3,0-6.5,5.2-3.4,8.3l46.7,46.7c1.8,1.8,4.2,2.8,6.9,2.8h236.5
		c4.3,0,6.5-5.2,3.4-8.3L350,223.3z"/>
</g>
</svg>
