<svg width="33" height="30" viewBox="0 0 33 30" fill="none" xmlns="http://www.w3.org/2000/svg">
<path d="M16.3474 6.27119C19.296 6.27119 21.6864 4.86733 21.6864 3.13559C21.6864 1.40385 19.296 0 16.3474 0C13.3988 0 11.0084 1.40385 11.0084 3.13559C11.0084 4.86733 13.3988 6.27119 16.3474 6.27119Z" fill="#0179EF"/>
<path d="M16.3474 29.9999C19.296 29.9999 21.6864 28.5961 21.6864 26.8644C21.6864 25.1326 19.296 23.7288 16.3474 23.7288C13.3988 23.7288 11.0084 25.1326 11.0084 26.8644C11.0084 28.5961 13.3988 29.9999 16.3474 29.9999Z" fill="#0179EF"/>
<path d="M8.68734 4.49617C10.1717 5.38809 10.1439 8.16005 8.62529 10.6875C7.10663 13.215 4.67217 14.5409 3.18778 13.649C1.70339 12.7571 1.73117 9.98511 3.24983 7.45763C4.76849 4.93016 7.20295 3.60426 8.68734 4.49617Z" fill="#0179EF"/>
<path d="M29.5347 16.1912C31.0191 17.0831 30.9913 19.8551 29.4727 22.3826C27.954 24.91 25.5196 26.236 24.0352 25.3441C22.5508 24.4521 22.5786 21.6802 24.0972 19.1527C25.6159 16.6252 28.0503 15.2993 29.5347 16.1912Z" fill="#0179EF"/>
<path d="M29.4307 13.6241C27.9542 14.5289 25.5083 13.2243 23.9676 10.7102C22.427 8.19604 22.3749 5.42441 23.8515 4.51958C25.3281 3.61475 27.7741 4.91935 29.3146 7.43348C30.8553 9.9476 30.9073 12.7192 29.4307 13.6241Z" fill="#0179EF"/>
<path d="M8.75276 25.4886C7.2762 26.3934 4.83027 25.0888 3.28961 22.5747C1.74896 20.0605 1.69698 17.289 3.17354 16.3841C4.65008 15.4793 7.09601 16.7838 8.63667 19.298C10.1773 21.8122 10.2293 24.5837 8.75276 25.4886Z" fill="#0179EF"/>
</svg>
