<svg width="200" height="66" viewBox="0 0 200 66" fill="none" xmlns="http://www.w3.org/2000/svg">
<circle cx="65" cy="33" r="6" fill="#0179EF"/>
<circle cx="135" cy="33" r="6" fill="#0179EF"/>
<path d="M66 34H135" stroke="#0179EF" stroke-width="2" stroke-dasharray="4 4"/>
<path d="M184.792 65H149.208C141.387 65 135 58.5869 135 50.7342V15.2658C135 7.41308 141.387 1 149.208 1H184.792C192.613 1 199 7.41308 199 15.2658V50.7342C199 58.5869 192.613 65 184.792 65Z" fill="white" stroke="#0179EF" stroke-width="2" stroke-miterlimit="10"/>
<path fill-rule="evenodd" clip-rule="evenodd" d="M153.067 36.1744C153.067 36.4085 153.258 36.5984 153.494 36.5984H157.706C157.942 36.5984 158.133 36.4085 158.133 36.1744V34.0844H160.239C160.475 34.0844 160.667 33.9279 160.667 33.6938V31.9948C160.667 31.7607 160.475 31.5708 160.239 31.5708H153.494C153.258 31.5708 153.067 31.7607 153.067 31.9948V36.1744ZM153.067 26.9669C153.067 26.7328 152.875 26.543 152.639 26.543H148.428C148.191 26.543 148 26.7328 148 26.9669V31.1465C148 31.3806 148.191 31.5704 148.428 31.5704H150.103C150.339 31.5704 150.533 31.3806 150.533 31.1465V29.0565H152.639C152.875 29.0565 153.067 28.898 153.067 28.664V26.9669ZM155.6 42.0505C155.6 41.8164 155.408 41.6266 155.172 41.6266L153.492 41.6267C153.256 41.6267 153.067 41.8165 153.067 42.0506V43.7105C153.067 43.9446 153.256 44.1402 153.492 44.1402L155.172 44.1401C155.408 44.1401 155.6 43.9445 155.6 43.7104V42.0505ZM185.572 26.543H181.361C181.125 26.543 180.933 26.7328 180.933 26.9669V28.6326C180.933 28.8667 181.125 29.0565 181.361 29.0565H183.467V31.1465C183.467 31.3806 183.658 31.5704 183.894 31.5704H185.572C185.809 31.5704 186 31.3806 186 31.1465V26.9669C186 26.7328 185.809 26.543 185.572 26.543ZM180.506 31.5708H173.761C173.525 31.5708 173.333 31.7607 173.333 31.9948V33.6604C173.333 33.8946 173.525 34.0844 173.761 34.0844H175.867V36.1744C175.867 36.4085 176.011 36.5984 176.247 36.5984H180.506C180.742 36.5984 180.933 36.4085 180.933 36.1744V31.9948C180.933 31.7607 180.742 31.5708 180.506 31.5708ZM177.972 44.1402H175.867V42.0649C175.867 41.8308 175.628 41.6262 175.392 41.6262H173.333V37.0227C173.333 36.7886 173.099 36.5988 172.863 36.5988H170.8V32.034C170.8 31.7998 170.57 31.5704 170.334 31.5704H163.603C163.367 31.5704 163.2 31.7998 163.2 32.034V36.5984H161.074C160.838 36.5984 160.667 36.8153 160.667 37.0494V41.6262H158.545C158.309 41.6262 158.133 41.8308 158.133 42.0649V44.1402H156.016C155.78 44.1402 155.6 44.3386 155.6 44.5727V46.2325C155.6 46.4666 155.78 46.6542 156.016 46.6542H160.219C160.455 46.6542 160.667 46.4666 160.667 46.2325V44.1402H162.772C163.008 44.1402 163.2 43.9589 163.2 43.7248V39.1123H170.8V43.7162C170.8 43.9504 170.953 44.1402 171.189 44.1402H173.333V46.2302C173.333 46.4643 173.482 46.6542 173.718 46.6542H177.972C178.208 46.6542 178.4 46.4643 178.4 46.2302V44.5727C178.4 44.3386 178.208 44.1402 177.972 44.1402ZM180.501 41.6267H178.828C178.591 41.6267 178.4 41.8165 178.4 42.0506V43.7158C178.4 43.9499 178.591 44.1402 178.828 44.1402H180.501C180.737 44.1402 180.933 43.9499 180.933 43.7158V42.0506C180.933 41.8165 180.737 41.6267 180.501 41.6267Z" fill="#002366"/>
<path fill-rule="evenodd" clip-rule="evenodd" d="M158.551 26.5419H175.429C175.665 26.5419 175.856 26.3925 175.856 26.1582V24.4524C175.856 24.218 175.665 24.0281 175.429 24.0281H173.323V21.9384C173.323 21.7042 173.131 21.5142 172.895 21.5142L170.79 21.5143V19.4244C170.79 19.1901 170.598 19.0001 170.362 19.0001L163.617 19C163.381 19 163.19 19.19 163.19 19.4242V21.5142H161.084C160.848 21.5142 160.656 21.7042 160.656 21.9384V24.0281H158.551C158.315 24.0281 158.123 24.218 158.123 24.4524V26.1582C158.123 26.3925 158.315 26.5419 158.551 26.5419Z" fill="#2BD4AB"/>
<path d="M50.7923 65H15.2077C7.38696 65 1 58.5869 1 50.7342V15.2658C1 7.41308 7.38696 1 15.2077 1H50.7923C58.613 1 65 7.41308 65 15.2658V50.7342C65 58.5869 58.613 65 50.7923 65Z" fill="white" stroke="#0179EF" stroke-width="2" stroke-miterlimit="10"/>
<path fill-rule="evenodd" clip-rule="evenodd" d="M16.5285 11.6855C16.1828 11.6855 15.8451 11.8079 15.5911 12.0349C15.3359 12.263 15.1846 12.5803 15.1846 12.9199V53.0812C15.1846 53.4207 15.3359 53.7381 15.5911 53.9662C15.8451 54.1932 16.1828 54.3155 16.5285 54.3155H44.6416C46.1962 54.3142 47.6928 53.7622 48.8017 52.7715C49.9117 51.7797 50.5438 50.4266 50.5453 49.007V16.9938C50.5438 15.5742 49.9117 14.2214 48.8017 13.2296C47.6928 12.2389 46.1959 11.6869 44.6414 11.6855H16.5285ZM17.8779 51.8468V14.1543H44.6414C45.505 14.1543 46.3272 14.4611 46.9283 14.9982C47.5282 15.5342 47.8574 16.2531 47.8574 16.9941V49.007C47.8574 49.748 47.5282 50.4669 46.9283 51.0029C46.3272 51.54 45.505 51.8468 44.6414 51.8468H17.8779Z" fill="#0179EF"/>
<path d="M32.4905 40.3276C38.296 40.3276 43.0191 35.604 43.0191 29.7986C43.0191 23.9932 38.296 19.2695 32.4905 19.2695C26.6851 19.2695 21.9619 23.9932 21.9619 29.7986C21.9619 35.604 26.6851 40.3276 32.4905 40.3276ZM32.4929 38.5775C32.4927 38.5775 32.4925 38.5775 32.4924 38.5775C32.0924 38.5149 31.3286 37.0626 30.879 34.388H34.1017C33.6525 37.0624 32.8896 38.5148 32.4929 38.5775ZM40.8141 27.028C41.434 28.8849 41.4213 30.8278 40.7712 32.6862C40.438 32.5902 40.9379 32.6653 36.0836 32.638C36.2395 30.8705 36.2526 28.988 36.0928 27.0848C40.8311 27.0581 40.492 27.1387 40.8141 27.028ZM40.0362 25.3348H35.8905C35.6628 23.8015 35.3099 22.4078 34.8221 21.3437C37.0321 21.9542 38.8907 23.4058 40.0362 25.3348ZM35.873 34.388H39.9598C38.8088 36.2544 36.9838 37.6563 34.8221 38.2534C35.2967 37.2181 35.6448 35.8723 35.873 34.388ZM32.4882 21.0196C32.4883 21.0196 32.4885 21.0196 32.4887 21.0196C32.8947 21.0832 33.6769 22.5784 34.1233 25.3348H30.8573C31.3032 22.5786 32.0848 21.0833 32.4882 21.0196ZM30.6422 27.0848H34.3384C34.504 28.9434 34.4915 30.8981 34.3286 32.638H30.6521C30.487 30.8781 30.4785 28.92 30.6422 27.0848ZM30.1587 21.3438C29.6708 22.4079 29.3179 23.8016 29.0901 25.3348H24.9449C26.0903 23.406 27.9488 21.9544 30.1587 21.3438ZM24.2099 32.6861C23.5581 30.8224 23.5486 28.8809 24.1669 27.0281C24.4878 27.1384 24.2062 27.0585 28.8877 27.0848C28.7293 28.9707 28.7398 30.8547 28.8969 32.638C24.0527 32.6651 24.544 32.5896 24.2099 32.6861ZM29.1077 34.388C29.3359 35.8723 29.684 37.2181 30.1587 38.2534C27.9971 37.6562 26.1722 36.2542 25.0213 34.388H29.1077Z" fill="#0179EF"/>
<path d="M41.0525 44.3652H23.6379C22.4806 44.3652 22.4796 46.1152 23.6379 46.1152H41.0525C42.2099 46.1152 42.2108 44.3652 41.0525 44.3652Z" fill="#0179EF"/>
</svg>
