<svg width="28" height="28" viewBox="0 0 28 28" fill="none" xmlns="http://www.w3.org/2000/svg">
<path d="M3.41663 27.3334C2.63885 27.3334 1.98607 27.0695 1.45829 26.5417C0.930515 26.014 0.666626 25.3612 0.666626 24.5834C0.666626 23.8056 0.930515 23.1529 1.45829 22.6251C1.98607 22.0973 2.63885 21.8334 3.41663 21.8334C4.1944 21.8334 4.84718 22.0973 5.37496 22.6251C5.90274 23.1529 6.16663 23.8056 6.16663 24.5834C6.16663 25.3612 5.90274 26.014 5.37496 26.5417C4.84718 27.0695 4.1944 27.3334 3.41663 27.3334ZM14 27.3334C13.2222 27.3334 12.5694 27.0695 12.0416 26.5417C11.5138 26.014 11.25 25.3612 11.25 24.5834C11.25 23.8056 11.5138 23.1529 12.0416 22.6251C12.5694 22.0973 13.2222 21.8334 14 21.8334C14.7777 21.8334 15.4305 22.0973 15.9583 22.6251C16.4861 23.1529 16.75 23.8056 16.75 24.5834C16.75 25.3612 16.4861 26.014 15.9583 26.5417C15.4305 27.0695 14.7777 27.3334 14 27.3334ZM24.5833 27.3334C23.8055 27.3334 23.1527 27.0695 22.625 26.5417C22.0972 26.014 21.8333 25.3612 21.8333 24.5834C21.8333 23.8056 22.0972 23.1529 22.625 22.6251C23.1527 22.0973 23.8055 21.8334 24.5833 21.8334C25.3611 21.8334 26.0138 22.0973 26.5416 22.6251C27.0694 23.1529 27.3333 23.8056 27.3333 24.5834C27.3333 25.3612 27.0694 26.014 26.5416 26.5417C26.0138 27.0695 25.3611 27.3334 24.5833 27.3334ZM3.41663 16.7501C2.63885 16.7501 1.98607 16.4862 1.45829 15.9584C0.930515 15.4306 0.666626 14.7779 0.666626 14.0001C0.666626 13.2223 0.930515 12.5695 1.45829 12.0417C1.98607 11.514 2.63885 11.2501 3.41663 11.2501C4.1944 11.2501 4.84718 11.514 5.37496 12.0417C5.90274 12.5695 6.16663 13.2223 6.16663 14.0001C6.16663 14.7779 5.90274 15.4306 5.37496 15.9584C4.84718 16.4862 4.1944 16.7501 3.41663 16.7501ZM14 16.7501C13.2222 16.7501 12.5694 16.4862 12.0416 15.9584C11.5138 15.4306 11.25 14.7779 11.25 14.0001C11.25 13.2223 11.5138 12.5695 12.0416 12.0417C12.5694 11.514 13.2222 11.2501 14 11.2501C14.7777 11.2501 15.4305 11.514 15.9583 12.0417C16.4861 12.5695 16.75 13.2223 16.75 14.0001C16.75 14.7779 16.4861 15.4306 15.9583 15.9584C15.4305 16.4862 14.7777 16.7501 14 16.7501ZM24.5833 16.7501C23.8055 16.7501 23.1527 16.4862 22.625 15.9584C22.0972 15.4306 21.8333 14.7779 21.8333 14.0001C21.8333 13.2223 22.0972 12.5695 22.625 12.0417C23.1527 11.514 23.8055 11.2501 24.5833 11.2501C25.3611 11.2501 26.0138 11.514 26.5416 12.0417C27.0694 12.5695 27.3333 13.2223 27.3333 14.0001C27.3333 14.7779 27.0694 15.4306 26.5416 15.9584C26.0138 16.4862 25.3611 16.7501 24.5833 16.7501ZM3.41663 6.16675C2.63885 6.16675 1.98607 5.90286 1.45829 5.37508C0.930515 4.8473 0.666626 4.19453 0.666626 3.41675C0.666626 2.63897 0.930515 1.98619 1.45829 1.45841C1.98607 0.930637 2.63885 0.666748 3.41663 0.666748C4.1944 0.666748 4.84718 0.930637 5.37496 1.45841C5.90274 1.98619 6.16663 2.63897 6.16663 3.41675C6.16663 4.19453 5.90274 4.8473 5.37496 5.37508C4.84718 5.90286 4.1944 6.16675 3.41663 6.16675ZM14 6.16675C13.2222 6.16675 12.5694 5.90286 12.0416 5.37508C11.5138 4.8473 11.25 4.19453 11.25 3.41675C11.25 2.63897 11.5138 1.98619 12.0416 1.45841C12.5694 0.930637 13.2222 0.666748 14 0.666748C14.7777 0.666748 15.4305 0.930637 15.9583 1.45841C16.4861 1.98619 16.75 2.63897 16.75 3.41675C16.75 4.19453 16.4861 4.8473 15.9583 5.37508C15.4305 5.90286 14.7777 6.16675 14 6.16675ZM24.5833 6.16675C23.8055 6.16675 23.1527 5.90286 22.625 5.37508C22.0972 4.8473 21.8333 4.19453 21.8333 3.41675C21.8333 2.63897 22.0972 1.98619 22.625 1.45841C23.1527 0.930637 23.8055 0.666748 24.5833 0.666748C25.3611 0.666748 26.0138 0.930637 26.5416 1.45841C27.0694 1.98619 27.3333 2.63897 27.3333 3.41675C27.3333 4.19453 27.0694 4.8473 26.5416 5.37508C26.0138 5.90286 25.3611 6.16675 24.5833 6.16675Z" fill="#0179EF"/>
</svg>
