<svg xmlns="http://www.w3.org/2000/svg" xmlns:xlink="http://www.w3.org/1999/xlink" width="800" height="180.132" viewBox="0 0 800 180.132">
  <defs>
    <clipPath id="clip-path">
      <rect id="Rectángulo_2" data-name="Rectángulo 2" width="800" height="180.132"/>
    </clipPath>
    <clipPath id="clip-path-2">
      <rect id="Rectángulo_1" data-name="Rectángulo 1" width="782.257" height="161.295" fill="none"/>
    </clipPath>
  </defs>
  <g id="Tamaño_personalizado_1" data-name="Tamaño personalizado – 1" clip-path="url(#clip-path)">
    <g id="Grupo_2" data-name="Grupo 2" transform="translate(8.872 9.417)">
      <g id="Grupo_1" data-name="Grupo 1" clip-path="url(#clip-path-2)">
        <path id="Trazado_1" data-name="Trazado 1" d="M857.408,87.805l10.816-30.368L850.447,7.522H809.122l28.609,80.233a10.575,10.575,0,0,0,19.674.05" transform="translate(-188.672 -1.755)" fill="#0078ef"/>
        <path id="Trazado_2" data-name="Trazado 2" d="M924.476,6.7A9.39,9.39,0,0,0,916.4.246a9.515,9.515,0,0,0-8.562,6.6l-.339.93L892.614,50.3,879.128,88.164a15.966,15.966,0,0,1-2.678,4.625h34.837a10.625,10.625,0,0,0,9.88-6.721l.348-.956,14.88-42.5.434-1.221Z" transform="translate(-204.365 -0.055)" fill="#0078ef"/>
        <path id="Trazado_3" data-name="Trazado 3" d="M960.939,46.151h41.309L988.187,6.726A10.62,10.62,0,0,0,978.306.005H943.477a15.83,15.83,0,0,1,2.649,4.585Z" transform="translate(-219.991 0.006)" fill="#0078ef"/>
        <path id="Trazado_4" data-name="Trazado 4" d="M42.185,180.012q-17.854,0-28.837-8.1A33.769,33.769,0,0,1,0,149.035l16.824-2.543a10.018,10.018,0,0,1,9.9,4.795,16.506,16.506,0,0,0,4.212,4.485,21.367,21.367,0,0,0,13,3.764,17.027,17.027,0,0,0,9.976-2.5,8.063,8.063,0,0,0,3.5-6.956,6.887,6.887,0,0,0-1.4-4.5,14.617,14.617,0,0,0-6.257-3.37q-4.858-1.661-15.1-4.376a85.626,85.626,0,0,1-18.466-6.652,24.712,24.712,0,0,1-9.976-8.795A23.7,23.7,0,0,1,3.147,110,27.041,27.041,0,0,1,7.791,94.2,29.725,29.725,0,0,1,20.874,83.869a50.149,50.149,0,0,1,19.921-3.632,52.98,52.98,0,0,1,19.693,3.412A34.278,34.278,0,0,1,74.36,93.363a29.03,29.03,0,0,1,6.509,14.877l-16.689,3a9.77,9.77,0,0,1-9.706-4.326,11.841,11.841,0,0,0-2.485-2.607,19.542,19.542,0,0,0-10.678-3.587,19.176,19.176,0,0,0-10.546,1.751,6.866,6.866,0,0,0-3.984,6.3,5.513,5.513,0,0,0,1.706,4.114,19.7,19.7,0,0,0,7.089,3.412q5.383,1.751,16.411,4.551a72,72,0,0,1,17.285,6.519,24.567,24.567,0,0,1,9.5,8.927,24.935,24.935,0,0,1,2.975,12.559,27.55,27.55,0,0,1-10.5,22.842q-10.5,8.315-29.057,8.315m82.437-2.625a5.849,5.849,0,0,0,5.547-3.993l19.316-57.623,20.662,61.616h13.875a5.851,5.851,0,0,0,5.594-4.139l27.6-90.383H193.947l-17.155,56.371-16.14-52.246a5.849,5.849,0,0,0-5.589-4.125H139.6L122.18,139.233l-15.6-51.494a5.852,5.852,0,0,0-5.563-4.146l-18.848.037,28.456,93.748Zm206.829,0a5.852,5.852,0,0,0,5.852-5.852V129.074a29.934,29.934,0,0,1,1.489-9.759,20.993,20.993,0,0,1,11.465-12.646,26.16,26.16,0,0,1,9.407-2.405,24.556,24.556,0,0,1,9.147.829V82.862a44.38,44.38,0,0,0-8.578-.217,39.382,39.382,0,0,0-8.315,1.486,30.493,30.493,0,0,0-7.438,3.282,25.793,25.793,0,0,0-7.529,6.652,34.818,34.818,0,0,0-4.9,8.927l2.275,2.975v-23.1H319.171a5.852,5.852,0,0,0-5.852,5.852v88.665Zm64.938,0a5.852,5.852,0,0,0,5.852-5.852V114.195h-2.975V88.714a5.849,5.849,0,0,0-5.852-5.852H378.26v94.517Zm56.887,0a5.849,5.849,0,0,0,5.849-5.852V115.246a43.129,43.129,0,0,0-3.412-17.33,28.31,28.31,0,0,0-10.546-12.6,32.421,32.421,0,0,0-18.249-4.726,35.942,35.942,0,0,0-17.547,4.289A33.489,33.489,0,0,0,396.9,96.515a30.508,30.508,0,0,0-4.638,16.628l9.979,7a19.338,19.338,0,0,1,4.5-13.261,16.707,16.707,0,0,1,24.156.087,21.86,21.86,0,0,1,4.421,14.57v55.836Zm56.887,0a5.852,5.852,0,0,0,5.852-5.852V115.246a37.026,37.026,0,0,0-8.27-25.076q-8.27-9.581-24.461-9.581a35.788,35.788,0,0,0-17.2,4.156A31.672,31.672,0,0,0,449.15,113.5l9.976,6.652a21.329,21.329,0,0,1,2.058-9.584,15.682,15.682,0,0,1,5.732-6.477,15.894,15.894,0,0,1,8.665-2.321,15.16,15.16,0,0,1,12.209,5.208,21.859,21.859,0,0,1,4.419,14.57v55.836ZM265.232,81.374c9.3,0,37.144,1.489,37.144,1.489v88.673a5.849,5.849,0,0,1-5.852,5.849H280.381v-5.407c-6.657,4.57-12.212,7.77-21.8,7.77-26.546,0-43.221-20.662-43.221-49.176a49.24,49.24,0,0,1,49.876-49.2M281.642,127.3v-21.29s-11.279-.856-15.046-.977c-19.054-.617-30.217,11.168-30.217,24.93,0,11.714,4.554,26.975,23.841,26.975,17.6,0,21.412-12.527,21.412-26.352Z" transform="translate(0 -18.714)" fill="#0078ef"/>
        <path id="Trazado_5" data-name="Trazado 5" d="M772.894,85.481l-30.05,42.45-1.282,1.809,1.285,1.807,30.919,43.51H757.341a7.947,7.947,0,0,1-6.623-3.534l-16.408-24.538-2.588-3.87-2.6,3.86-17.24,25.552a5.73,5.73,0,0,1-4.768,2.527H689.469l30.766-43.515,1.277-1.807-1.279-1.8L690.216,85.481h17.64a5.73,5.73,0,0,1,4.768,2.527l16.53,24.49,2.617,3.876,2.583-3.9,15.526-23.433a7.947,7.947,0,0,1,6.622-3.56Zm6.045-3.126H756.494a11.08,11.08,0,0,0-9.236,4.961L731.731,110.75,715.2,86.26a8.863,8.863,0,0,0-7.348-3.9H684.168l33.542,47.383-34.252,48.448H707.14a8.864,8.864,0,0,0,7.349-3.907l17.24-25.552,16.408,24.538a11.081,11.081,0,0,0,9.211,4.922h22.474l-34.437-48.448Z" transform="translate(-159.365 -19.203)" fill="#0078ef"/>
      </g>
    </g>
  </g>
</svg>
