<svg xmlns="http://www.w3.org/2000/svg" width="128" height="30" viewBox="0 0 128 30" fill="none">
<path d="M105.695 16.3695L107.648 10.8575L104.464 1.8418H97.0322L102.17 16.3695C102.553 17.3523 103.657 17.8223 104.633 17.4377C105.143 17.2668 105.525 16.8823 105.695 16.3695Z" fill="#0179EF"/>
<path d="M114.952 2.01207C114.74 1.37114 114.188 0.901127 113.509 0.858398C112.787 0.901127 112.192 1.37114 111.98 2.0548L111.937 2.22571L109.262 9.91687L106.842 16.7534C106.714 17.0525 106.587 17.3517 106.375 17.608H112.659C113.424 17.608 114.146 17.138 114.443 16.4116L114.485 16.2407L117.161 8.54955L117.246 8.33591L114.952 2.01207Z" fill="#0179EF"/>
<path d="M118.689 9.14825H126.121L123.573 2.01257C123.275 1.28618 122.596 0.816166 121.789 0.773438H115.547C115.759 1.02981 115.929 1.28618 116.014 1.58528L118.689 9.14825Z" fill="#0179EF"/>
<path d="M7.60121 30C5.47797 30 3.73691 29.5299 2.4205 28.5472C1.10409 27.5644 0.212324 26.0689 0 24.4025L3.01501 23.9325C3.73691 23.847 4.41635 24.1889 4.79853 24.7871C5.01086 25.0862 5.26565 25.3853 5.5629 25.5989C6.24234 26.0689 7.04917 26.3253 7.89847 26.2826C8.53544 26.3253 9.17241 26.1544 9.68199 25.8125C10.1066 25.5134 10.319 25.0434 10.319 24.5307C10.319 24.2316 10.234 23.9752 10.0642 23.7616C9.72446 23.4625 9.34227 23.2488 8.96009 23.1634C8.36558 22.9497 7.47382 22.6934 6.24234 22.3943C5.09579 22.1379 3.9917 21.7106 2.93008 21.1979C2.20817 20.856 1.5712 20.3006 1.14655 19.6169C0.764368 18.9332 0.552043 18.1641 0.594508 17.395C0.594508 16.3695 0.891762 15.3868 1.44381 14.5322C2.03831 13.6776 2.84515 13.0367 3.77937 12.6521C4.92593 12.1821 6.11494 11.9685 7.34642 12.0112C8.53544 11.9685 9.76692 12.1821 10.871 12.6521C11.8477 13.0367 12.697 13.6349 13.3764 14.404C14.0134 15.1731 14.4381 16.1132 14.5655 17.0959L11.5504 17.6514C10.871 17.7796 10.1916 17.4377 9.80939 16.8823C9.68199 16.7114 9.51213 16.5404 9.34227 16.4122C8.79023 16.0277 8.11079 15.7713 7.43135 15.7713C6.79438 15.6859 6.11494 15.814 5.52043 16.0704C5.09579 16.2841 4.79853 16.7114 4.79853 17.2241C4.79853 17.5232 4.88346 17.7796 5.09579 17.9505C5.47797 18.2496 5.90262 18.4632 6.36973 18.5914C7.00671 18.8051 7.9834 19.0614 9.29981 19.4033C10.3614 19.6596 11.4231 20.0442 12.3997 20.5997C13.0792 20.9842 13.6737 21.5397 14.0983 22.2233C14.4805 22.907 14.6504 23.7188 14.6504 24.488C14.6928 26.0689 14.0134 27.6072 12.7819 28.5899C11.5504 29.4872 9.80939 30 7.60121 30Z" fill="#0179EF"/>
<path d="M19.8736 29.487L14.7778 12.5237H18.175C18.6421 12.5237 19.0243 12.8228 19.1517 13.2928L21.9544 22.6077L25.0543 12.3955H27.857C28.3241 12.3955 28.7063 12.6946 28.8337 13.1646L31.7213 22.6077L34.8213 12.3955H39.0677L34.0994 28.7606C33.972 29.1879 33.5473 29.487 33.0802 29.5297H30.5748L26.8803 18.3775L23.3982 28.8033C23.2708 29.2306 22.8462 29.5297 22.4215 29.5297L19.8736 29.487Z" fill="#0179EF"/>
<path d="M56.3085 29.4874V13.4642C56.3085 12.866 56.7756 12.396 57.3701 12.396H60.0878V16.5834L59.6632 16.0279C59.8755 15.4297 60.1728 14.917 60.555 14.4042C60.9371 13.9342 61.4043 13.5069 61.9138 13.2078C62.3385 12.9515 62.8056 12.7378 63.2727 12.6096C63.7398 12.4814 64.2494 12.396 64.759 12.3533C65.2686 12.3105 65.7781 12.3105 66.2877 12.396V16.4125C65.7357 16.2416 65.1836 16.1988 64.6316 16.2843C64.0371 16.327 63.485 16.4552 62.933 16.7116C61.9563 17.1389 61.1919 17.9934 60.8522 18.9762C60.6824 19.5317 60.555 20.1299 60.5974 20.7281V28.4192C60.5974 29.0174 60.1303 29.4874 59.5358 29.4874H56.3085Z" fill="#0179EF"/>
<path d="M67.9862 29.4875V12.396H70.704C71.2985 12.396 71.7231 12.8661 71.7231 13.4643V18.0789H72.2752V28.462C72.2752 29.0602 71.808 29.5302 71.2135 29.5302L67.9862 29.4875ZM78.2627 29.4875V19.4035C78.3052 18.4635 78.0504 17.5235 77.4559 16.7544C76.3093 15.558 74.3984 15.5152 73.2094 16.6689C73.1669 16.7116 73.1245 16.7544 73.1245 16.7544C72.5724 17.438 72.2752 18.2926 72.3176 19.1472L70.5341 17.8653C70.5341 16.7971 70.8314 15.7716 71.3834 14.8743C71.9354 13.977 72.6998 13.2506 73.634 12.7806C74.6107 12.2679 75.6723 11.9688 76.7764 12.0115C77.923 11.9688 79.0695 12.2679 80.0462 12.8661C80.8955 13.4215 81.5325 14.2334 81.9571 15.1307C82.3818 16.1134 82.5941 17.1816 82.5517 18.2499V28.462C82.5517 29.0602 82.0845 29.5302 81.49 29.5302L78.2627 29.4875ZM88.4967 29.4875V19.4035C88.5392 18.4635 88.2844 17.5235 87.6899 16.7544C87.1379 16.1134 86.331 15.7716 85.4817 15.8143C84.9297 15.8143 84.3777 15.9425 83.9105 16.2416C83.4434 16.5407 83.1037 16.9253 82.8914 17.3953C82.6366 17.9508 82.5092 18.549 82.5092 19.1472L80.7257 17.9508C80.6832 15.7716 81.8722 13.7634 83.7831 12.7379C84.7174 12.2251 85.779 11.9688 86.8831 11.9688C88.8365 11.9688 90.2803 12.567 91.2994 13.7206C92.3186 14.8743 92.7857 16.3698 92.7857 18.2499V28.462C92.7857 29.0175 92.3186 29.4875 91.7241 29.4875H88.4967Z" fill="#0179EF"/>
<path d="M47.688 12.139C42.8045 12.0963 38.7704 16.0273 38.7279 20.9411C38.7279 20.9838 38.7279 21.0266 38.7279 21.0693C38.7279 26.2395 41.7429 29.9569 46.499 29.9569C48.24 29.9569 49.2167 29.4014 50.4057 28.5468V29.5296H53.2934C53.8879 29.5296 54.355 29.0596 54.355 28.4614V12.3954C54.355 12.3954 49.3441 12.139 47.688 12.139ZM50.6181 21.0266C50.6181 23.5048 49.9386 25.8122 46.7538 25.8122C43.2716 25.8122 42.4648 23.0348 42.4648 20.9411C42.4648 18.4629 44.4607 16.3264 47.9003 16.4119C48.5798 16.4119 50.6181 16.5828 50.6181 16.5828V21.0266Z" fill="#0179EF"/>
</svg>
