<svg xmlns="http://www.w3.org/2000/svg" xmlns:xlink="http://www.w3.org/1999/xlink" width="302" height="68" viewBox="0 0 302 68">
  <defs>
    <clipPath id="clip-path">
      <rect id="Rectángulo_1" data-name="Rectángulo 1" width="295.302" height="60.889" fill="none"/>
    </clipPath>
    <clipPath id="clip-Tamaño_personalizado_1">
      <rect width="302" height="68"/>
    </clipPath>
  </defs>
  <g id="Tamaño_personalizado_1" data-name="Tamaño personalizado – 1" clip-path="url(#clip-Tamaño_personalizado_1)">
    <rect width="302" height="68" fill="#fff"/>
    <g id="Grupo_2" data-name="Grupo 2" transform="translate(3.349 3.555)">
      <g id="Grupo_1" data-name="Grupo 1" clip-path="url(#clip-path)">
        <path id="Trazado_1" data-name="Trazado 1" d="M827.35,37.829l4.083-11.464L824.722,7.522h-15.6l10.8,30.288a3.992,3.992,0,0,0,7.427.019" transform="translate(-574.902 -5.345)" fill="#0078ef"/>
        <path id="Trazado_2" data-name="Trazado 2" d="M894.58,2.681A3.545,3.545,0,0,0,891.532.246,3.592,3.592,0,0,0,888.3,2.738l-.128.351-5.62,16.052-5.091,14.294a6.028,6.028,0,0,1-1.011,1.746l13.151,0a4.011,4.011,0,0,0,3.73-2.538l.131-.36,5.617-16.043.164-.461Z" transform="translate(-622.738 -0.174)" fill="#0078ef"/>
        <path id="Trazado_3" data-name="Trazado 3" d="M950.069,17.425h15.594L960.355,2.542a4.009,4.009,0,0,0-3.73-2.537l-.255,0H943.477a5.974,5.974,0,0,1,1,1.731Z" transform="translate(-670.361 -0.001)" fill="#0078ef"/>
        <path id="Trazado_4" data-name="Trazado 4" d="M15.925,117.894q-6.74,0-10.886-3.056A12.748,12.748,0,0,1,0,106.2l6.351-.96a3.782,3.782,0,0,1,3.738,1.81,6.231,6.231,0,0,0,1.59,1.693,8.066,8.066,0,0,0,4.906,1.421,6.428,6.428,0,0,0,3.766-.942,3.044,3.044,0,0,0,1.321-2.626,2.6,2.6,0,0,0-.529-1.7,5.518,5.518,0,0,0-2.362-1.272q-1.834-.627-5.7-1.652a32.324,32.324,0,0,1-6.971-2.511,9.329,9.329,0,0,1-3.766-3.32,8.945,8.945,0,0,1-1.156-4.675A10.208,10.208,0,0,1,2.941,85.5,11.221,11.221,0,0,1,7.88,81.6,18.931,18.931,0,0,1,15.4,80.229a20,20,0,0,1,7.434,1.288,12.94,12.94,0,0,1,5.237,3.667A10.959,10.959,0,0,1,30.528,90.8l-6.3,1.133A3.688,3.688,0,0,1,20.564,90.3a4.47,4.47,0,0,0-.938-.984,7.377,7.377,0,0,0-4.031-1.354,7.239,7.239,0,0,0-3.981.661A2.592,2.592,0,0,0,10.11,91a2.081,2.081,0,0,0,.644,1.553,7.437,7.437,0,0,0,2.676,1.288q2.032.661,6.195,1.718a27.179,27.179,0,0,1,6.525,2.461,9.274,9.274,0,0,1,3.585,3.37,9.413,9.413,0,0,1,1.123,4.741,10.4,10.4,0,0,1-3.965,8.623q-3.965,3.139-10.969,3.139m31.12-.991a2.208,2.208,0,0,0,2.094-1.507l7.292-21.753,7.8,23.26h5.238a2.209,2.209,0,0,0,2.112-1.563L82,81.22H73.215L66.739,102.5,60.646,82.777a2.208,2.208,0,0,0-2.11-1.557H52.7L46.123,102.5,40.235,83.061a2.209,2.209,0,0,0-2.1-1.565l-7.115.014L41.762,116.9Zm78.078,0a2.209,2.209,0,0,0,2.209-2.209V98.665a11.3,11.3,0,0,1,.562-3.684,7.925,7.925,0,0,1,4.328-4.774,9.875,9.875,0,0,1,3.551-.908,9.27,9.27,0,0,1,3.453.313V81.22a16.755,16.755,0,0,0-3.238-.082,14.867,14.867,0,0,0-3.139.561,11.511,11.511,0,0,0-2.808,1.239,9.737,9.737,0,0,0-2.842,2.511,13.144,13.144,0,0,0-1.85,3.37l.859,1.123V81.22h-5.72a2.209,2.209,0,0,0-2.209,2.209V116.9Zm24.514,0a2.209,2.209,0,0,0,2.209-2.209V93.048h-1.123V83.429a2.208,2.208,0,0,0-2.209-2.209h-5.72V116.9Zm21.475,0a2.208,2.208,0,0,0,2.208-2.209V93.445a16.281,16.281,0,0,0-1.288-6.542,10.687,10.687,0,0,0-3.981-4.758,12.239,12.239,0,0,0-6.889-1.784,13.568,13.568,0,0,0-6.624,1.619,12.642,12.642,0,0,0-4.708,4.394,11.517,11.517,0,0,0-1.751,6.277l3.767,2.644a7.3,7.3,0,0,1,1.7-5.006,6.307,6.307,0,0,1,9.119.033,8.252,8.252,0,0,1,1.669,5.5V116.9Zm21.475,0a2.209,2.209,0,0,0,2.209-2.209V93.445a13.977,13.977,0,0,0-3.122-9.466q-3.122-3.617-9.234-3.617a13.51,13.51,0,0,0-6.492,1.569,11.956,11.956,0,0,0-6.393,10.853l3.766,2.511a8.052,8.052,0,0,1,.777-3.618,5.92,5.92,0,0,1,2.164-2.445,6,6,0,0,1,3.271-.876,5.723,5.723,0,0,1,4.609,1.966,8.252,8.252,0,0,1,1.668,5.5V116.9ZM100.125,80.658c3.512,0,14.022.562,14.022.562v33.474a2.208,2.208,0,0,1-2.209,2.208h-6.094v-2.041c-2.513,1.725-4.61,2.933-8.231,2.933-10.021,0-16.316-7.8-16.316-18.564a18.588,18.588,0,0,1,18.828-18.572m6.195,17.337V89.958s-4.258-.323-5.68-.369C93.447,89.356,89.233,93.805,89.233,99c0,4.422,1.719,10.183,9,10.183,6.644,0,8.083-4.729,8.083-9.948Z" transform="translate(0 -57.004)" fill="#0078ef"/>
        <path id="Trazado_5" data-name="Trazado 5" d="M717.22,83.535,705.876,99.56l-.484.683.485.682,11.672,16.425h-6.2a3,3,0,0,1-2.5-1.334l-6.194-9.263-.977-1.461-.983,1.457-6.508,9.646a2.163,2.163,0,0,1-1.8.954h-6.66l11.614-16.427.482-.682-.483-.681L686.009,83.535h6.659a2.163,2.163,0,0,1,1.8.954l6.24,9.245.988,1.463.975-1.472,5.861-8.846a3,3,0,0,1,2.5-1.344Zm2.282-1.18h-8.473a4.183,4.183,0,0,0-3.487,1.873l-5.861,8.846-6.24-9.245a3.346,3.346,0,0,0-2.774-1.474h-8.941l12.662,17.887-12.93,18.289h8.94a3.346,3.346,0,0,0,2.774-1.475l6.508-9.646,6.194,9.263a4.183,4.183,0,0,0,3.477,1.858h8.484l-13-18.289Z" transform="translate(-485.613 -58.515)" fill="#0078ef"/>
      </g>
    </g>
  </g>
</svg>
