<svg width="40" height="40" viewBox="0 0 40 40" fill="none" xmlns="http://www.w3.org/2000/svg">
<g clip-path="url(#clip0_1831_2683)">
<path d="M9.41663 33.3334C8.63885 33.3334 7.98607 33.0695 7.45829 32.5417C6.93051 32.014 6.66663 31.3612 6.66663 30.5834C6.66663 29.8056 6.93051 29.1529 7.45829 28.6251C7.98607 28.0973 8.63885 27.8334 9.41663 27.8334C10.1944 27.8334 10.8472 28.0973 11.375 28.6251C11.9027 29.1529 12.1666 29.8056 12.1666 30.5834C12.1666 31.3612 11.9027 32.014 11.375 32.5417C10.8472 33.0695 10.1944 33.3334 9.41663 33.3334ZM20 33.3334C19.2222 33.3334 18.5694 33.0695 18.0416 32.5417C17.5138 32.014 17.25 31.3612 17.25 30.5834C17.25 29.8056 17.5138 29.1529 18.0416 28.6251C18.5694 28.0973 19.2222 27.8334 20 27.8334C20.7777 27.8334 21.4305 28.0973 21.9583 28.6251C22.4861 29.1529 22.75 29.8056 22.75 30.5834C22.75 31.3612 22.4861 32.014 21.9583 32.5417C21.4305 33.0695 20.7777 33.3334 20 33.3334ZM30.5833 33.3334C29.8055 33.3334 29.1527 33.0695 28.625 32.5417C28.0972 32.014 27.8333 31.3612 27.8333 30.5834C27.8333 29.8056 28.0972 29.1529 28.625 28.6251C29.1527 28.0973 29.8055 27.8334 30.5833 27.8334C31.3611 27.8334 32.0138 28.0973 32.5416 28.6251C33.0694 29.1529 33.3333 29.8056 33.3333 30.5834C33.3333 31.3612 33.0694 32.014 32.5416 32.5417C32.0138 33.0695 31.3611 33.3334 30.5833 33.3334ZM9.41663 22.7501C8.63885 22.7501 7.98607 22.4862 7.45829 21.9584C6.93051 21.4306 6.66663 20.7779 6.66663 20.0001C6.66663 19.2223 6.93051 18.5695 7.45829 18.0417C7.98607 17.514 8.63885 17.2501 9.41663 17.2501C10.1944 17.2501 10.8472 17.514 11.375 18.0417C11.9027 18.5695 12.1666 19.2223 12.1666 20.0001C12.1666 20.7779 11.9027 21.4306 11.375 21.9584C10.8472 22.4862 10.1944 22.7501 9.41663 22.7501ZM20 22.7501C19.2222 22.7501 18.5694 22.4862 18.0416 21.9584C17.5138 21.4306 17.25 20.7779 17.25 20.0001C17.25 19.2223 17.5138 18.5695 18.0416 18.0417C18.5694 17.514 19.2222 17.2501 20 17.2501C20.7777 17.2501 21.4305 17.514 21.9583 18.0417C22.4861 18.5695 22.75 19.2223 22.75 20.0001C22.75 20.7779 22.4861 21.4306 21.9583 21.9584C21.4305 22.4862 20.7777 22.7501 20 22.7501ZM30.5833 22.7501C29.8055 22.7501 29.1527 22.4862 28.625 21.9584C28.0972 21.4306 27.8333 20.7779 27.8333 20.0001C27.8333 19.2223 28.0972 18.5695 28.625 18.0417C29.1527 17.514 29.8055 17.2501 30.5833 17.2501C31.3611 17.2501 32.0138 17.514 32.5416 18.0417C33.0694 18.5695 33.3333 19.2223 33.3333 20.0001C33.3333 20.7779 33.0694 21.4306 32.5416 21.9584C32.0138 22.4862 31.3611 22.7501 30.5833 22.7501ZM9.41663 12.1667C8.63885 12.1667 7.98607 11.9029 7.45829 11.3751C6.93051 10.8473 6.66663 10.1945 6.66663 9.41675C6.66663 8.63897 6.93051 7.98619 7.45829 7.45841C7.98607 6.93064 8.63885 6.66675 9.41663 6.66675C10.1944 6.66675 10.8472 6.93064 11.375 7.45841C11.9027 7.98619 12.1666 8.63897 12.1666 9.41675C12.1666 10.1945 11.9027 10.8473 11.375 11.3751C10.8472 11.9029 10.1944 12.1667 9.41663 12.1667ZM20 12.1667C19.2222 12.1667 18.5694 11.9029 18.0416 11.3751C17.5138 10.8473 17.25 10.1945 17.25 9.41675C17.25 8.63897 17.5138 7.98619 18.0416 7.45841C18.5694 6.93064 19.2222 6.66675 20 6.66675C20.7777 6.66675 21.4305 6.93064 21.9583 7.45841C22.4861 7.98619 22.75 8.63897 22.75 9.41675C22.75 10.1945 22.4861 10.8473 21.9583 11.3751C21.4305 11.9029 20.7777 12.1667 20 12.1667ZM30.5833 12.1667C29.8055 12.1667 29.1527 11.9029 28.625 11.3751C28.0972 10.8473 27.8333 10.1945 27.8333 9.41675C27.8333 8.63897 28.0972 7.98619 28.625 7.45841C29.1527 6.93064 29.8055 6.66675 30.5833 6.66675C31.3611 6.66675 32.0138 6.93064 32.5416 7.45841C33.0694 7.98619 33.3333 8.63897 33.3333 9.41675C33.3333 10.1945 33.0694 10.8473 32.5416 11.3751C32.0138 11.9029 31.3611 12.1667 30.5833 12.1667Z" fill="#0179EF"/>
</g>
<defs>
<clipPath id="clip0_1831_2683">
<rect width="40" height="40" fill="white"/>
</clipPath>
</defs>
</svg>
