<svg xmlns="http://www.w3.org/2000/svg" xmlns:xlink="http://www.w3.org/1999/xlink" width="784" height="213" viewBox="0 0 784 213">
  <defs>
    <clipPath id="clip-path">
      <rect id="Rectángulo_1" data-name="Rectángulo 1" width="778.402" height="204.172" fill="#fff"/>
    </clipPath>
    <clipPath id="clip-Tamaño_personalizado_2">
      <rect width="784" height="213"/>
    </clipPath>
  </defs>
  <g id="Tamaño_personalizado_2" data-name="Tamaño personalizado – 2" clip-path="url(#clip-Tamaño_personalizado_2)">
    <rect width="784" height="213" fill="rgba(255,255,255,0)"/>
    <g id="Grupo_2" data-name="Grupo 2" transform="translate(2.724 4.414)">
      <g id="Grupo_1" data-name="Grupo 1" clip-path="url(#clip-path)">
        <path id="Trazado_1" data-name="Trazado 1" d="M651.969,109.156,665.662,70.71l-22.5-63.189h-52.3L627.063,109.09a13.388,13.388,0,0,0,24.906.065" transform="translate(-17.278 -0.22)" fill="#fff"/>
        <path id="Trazado_2" data-name="Trazado 2" d="M718.976,8.415c-1.587-4.266-5.47-8.072-10.221-8.169-4.993-.1-9.187,3.863-10.834,8.359l-.431,1.178L678.645,63.613l-17.072,47.933a20.214,20.214,0,0,1-3.393,5.856l44.1-.013a13.445,13.445,0,0,0,12.507-8.51l.441-1.207,18.837-53.8.549-1.544Z" transform="translate(-19.246 -0.007)" fill="#fff"/>
        <path id="Trazado_3" data-name="Trazado 3" d="M747.313,58.432h52.295l-17.8-49.91A13.446,13.446,0,0,0,769.3.015L768.444,0H725.206a20.04,20.04,0,0,1,3.365,5.806Z" transform="translate(-21.206)" fill="#fff"/>
        <path id="Trazado_4" data-name="Trazado 4" d="M54.869,205.443q-16.418,0-28.757-8.263A55.567,55.567,0,0,1,6.887,174.7Q0,160.49,0,142.64,0,124.46,7,110.3A54.794,54.794,0,0,1,26.664,87.99q12.668-8.153,29.748-8.153,16.967,0,28.537,8.263a51.187,51.187,0,0,1,17.519,22.478q5.95,14.212,5.95,32.062T102.413,174.7a50.67,50.67,0,0,1-17.9,22.478q-11.9,8.262-29.639,8.263m4.849-26.664q10.024,0,16.031-4.518a24.949,24.949,0,0,0,8.648-12.67,61.465,61.465,0,0,0,2.645-18.951A61.478,61.478,0,0,0,84.4,123.689a25.554,25.554,0,0,0-8.428-12.67Q70.184,106.5,60.819,106.5q-10.026,0-16.471,4.9a28.749,28.749,0,0,0-9.532,13.111,51.15,51.15,0,0,0-3.085,18.125,53.189,53.189,0,0,0,2.975,18.235,28.49,28.49,0,0,0,9.146,13.057q6.168,4.849,15.866,4.848m27.325,23.358V120.6H83.3V54.483A11.006,11.006,0,0,1,94.3,43.477h19.182V191.13a11.006,11.006,0,0,1-11.006,11.007Z" transform="translate(0 -1.271)" fill="#fff"/>
        <path id="Trazado_5" data-name="Trazado 5" d="M204.026,205.344q-23.8,0-41.042-10.357a68.968,68.968,0,0,1-26.554-28.978q-9.312-18.62-9.311-43.3t9.311-43.3a68.977,68.977,0,0,1,26.554-28.977q17.242-10.356,41.042-10.357t41.042,10.357a69,69,0,0,1,26.554,28.977q9.309,18.621,9.311,43.3t-9.311,43.3a68.993,68.993,0,0,1-26.554,28.978q-17.244,10.358-41.042,10.357m0-28.207q15.094.223,25.121-6.5a40.648,40.648,0,0,0,15.04-19.062q5.012-12.338,5.013-28.866T244.188,94.06a40.792,40.792,0,0,0-15.04-18.84q-10.027-6.72-25.121-6.942t-25.121,6.5a40.641,40.641,0,0,0-15.04,19.061q-5.013,12.342-5.013,28.868t5.013,28.646a40.751,40.751,0,0,0,15.04,18.841q10.026,6.722,25.121,6.941" transform="translate(-3.717 -1.172)" fill="#fff"/>
        <path id="Trazado_6" data-name="Trazado 6" d="M333.588,202.138V71.463H283.566V54.483a11.006,11.006,0,0,1,11.006-11.006H413.58V60.456a11.007,11.007,0,0,1-11.006,11.007H363.557V191.13a11.007,11.007,0,0,1-11.007,11.007Z" transform="translate(-8.292 -1.271)" fill="#fff"/>
        <path id="Trazado_7" data-name="Trazado 7" d="M485.05,205.344q-23.8,0-41.043-10.357a68.969,68.969,0,0,1-26.554-28.978q-9.311-18.62-9.311-43.3t9.311-43.3a68.986,68.986,0,0,1,26.554-28.978q17.244-10.355,41.043-10.357,27.324,0,45.89,13.552t26.169,36.691l-20.761,5.759A11.042,11.042,0,0,1,523.572,90.3a40.28,40.28,0,0,0-11.528-14.031q-10.47-7.987-26.994-7.987-15.1,0-25.178,6.721A40.919,40.919,0,0,0,444.724,93.95q-5.069,12.23-5.069,28.758t5.069,28.757a40.912,40.912,0,0,0,15.149,18.952q10.082,6.722,25.178,6.72,16.527,0,26.994-8.043a40.71,40.71,0,0,0,11.528-14.027,11,11,0,0,1,12.725-5.737l20.812,5.772q-7.6,23.138-26.169,36.69t-45.89,13.553" transform="translate(-11.935 -1.172)" fill="#fff"/>
      </g>
    </g>
  </g>
</svg>
