<svg version="1.1" id="Layer_1" xmlns="http://www.w3.org/2000/svg" xmlns:xlink="http://www.w3.org/1999/xlink" x="0px" y="0px"
	 width="100%" viewBox="0 0 400 400" enable-background="new 0 0 400 400" xml:space="preserve">
<path fill="#F7931D" opacity="1.000000" stroke="none" 
	d="
M140.825455,238.193451 
	C131.764633,229.563400 123.023537,221.110916 114.147324,212.802780 
	C111.642380,210.458176 110.744919,207.849228 110.537994,204.457016 
	C109.664154,190.132278 110.745995,175.827179 110.715164,161.513977 
	C110.705246,156.909271 109.364227,154.909134 104.439163,154.964798 
	C95.123344,155.070068 85.801788,154.587799 76.481377,154.418045 
	C73.872505,154.370514 71.342285,154.206741 70.191093,151.413452 
	C69.013420,148.555908 70.253456,146.303513 72.294197,144.262924 
	C85.250244,131.307724 98.149246,118.295372 111.124825,105.359810 
	C114.971100,101.525391 118.371536,101.575996 122.364502,105.491066 
	C136.636368,119.484489 150.930695,133.456848 165.031265,147.621597 
	C167.923294,150.526779 169.755859,150.643692 172.731476,147.772018 
	C183.155746,137.711929 193.865005,127.947823 204.366913,117.967018 
	C206.689819,115.759361 209.121796,114.692596 212.368134,114.707047 
	C250.347519,114.876099 288.327362,114.938385 326.306946,115.068672 
	C328.561096,115.076401 331.410736,114.625076 332.069305,117.687164 
	C332.780975,120.996239 332.513885,123.963844 329.327606,126.548180 
	C307.863586,143.957169 286.566254,161.571579 265.208893,179.112122 
	C249.641663,191.897278 234.115158,204.732971 218.450974,217.398300 
	C215.294281,219.950653 214.127258,222.777695 214.139236,226.803925 
	C214.202240,247.958084 214.039948,269.113220 213.870499,290.267365 
	C213.844757,293.479980 214.678802,297.367462 210.682083,298.956909 
	C206.947037,300.442352 204.438843,297.782837 201.981247,295.479645 
	C181.686920,276.460144 161.390060,257.443329 140.825455,238.193451 
M159.188644,175.689209 
	C149.196716,184.989685 139.231110,194.318741 129.193253,203.569382 
	C126.850227,205.728668 126.014412,207.411407 128.916626,209.972855 
	C139.649292,219.445450 150.149063,229.181610 160.857971,238.681595 
	C167.316620,244.411179 167.418869,244.299042 174.146744,238.781128 
	C213.022842,206.896652 251.903137,175.017258 290.769012,143.120285 
	C297.141266,137.890625 303.448975,132.582321 309.953186,127.171722 
	C307.972443,125.740379 306.262573,126.223145 304.679382,126.223534 
	C276.036682,126.230659 247.393753,126.354118 218.751572,126.254440 
	C214.449890,126.239471 211.255035,127.475060 208.093872,130.446320 
	C192.083847,145.494705 175.864136,160.320038 159.188644,175.689209 
M132.917313,184.415192 
	C140.410431,177.324615 147.846588,170.172348 155.425446,163.174622 
	C158.349380,160.474899 158.586960,158.351730 155.566360,155.422455 
	C146.368515,146.502731 137.407364,137.339325 128.305481,128.319794 
	C127.205200,127.229477 126.246986,125.583687 123.725098,126.253532 
	C123.725098,147.968491 123.725098,169.760147 123.725098,192.058334 
	C127.519051,190.239517 129.700928,187.240189 132.917313,184.415192 
M195.568787,237.125763 
	C189.483826,242.397629 182.858063,247.073654 177.109970,253.230347 
	C185.264130,261.655548 192.859070,269.937012 202.077576,278.093994 
	C202.077576,262.199768 202.077576,247.770172 202.077576,233.165009 
	C199.157181,233.625824 197.797729,235.425766 195.568787,237.125763 
M110.642632,130.046234 
	C110.477074,128.479950 110.957016,126.642555 109.749184,126.160866 
	C103.763741,131.985992 98.071281,137.525986 92.341415,143.102386 
	C93.919106,143.260223 95.708969,143.551483 97.505516,143.601074 
	C110.604942,143.962708 110.605362,143.947372 110.642632,130.046234 
z"/>
</svg>