<svg xmlns="http://www.w3.org/2000/svg" width="36" height="36" viewBox="0 0 36 36" fill="none">
  <path
    d="M26.44 10.5264L36.2192 5.0791L36.2272 15.6628L28.6515 19.8822C23.4842 22.7607 20.5065 26.5363 19.303 29.8889C18.0999 33.2405 18.2769 35.1624 18.2383 36.0001C18.2383 30.6644 18.2557 29.0686 18.2557 24.576C18.2557 23.469 18.383 22.2511 18.5324 21.6682C18.5324 21.6682 19.8185 14.2149 26.44 10.5264Z"
    fill="#9573F5" />
  <path
    d="M18.2339 24.806L18.2389 35.9998L8.9869 30.8604L8.98287 22.1889C8.98018 16.2743 7.12904 11.8363 4.78465 9.15446C2.44093 6.47362 0.67608 5.66338 -0.0371094 5.22217C4.5805 7.7002 5.80206 8.36875 9.73972 10.4841C10.7151 11.0079 11.985 12.0052 12.4216 12.4192C12.4216 12.4192 18.2305 17.2265 18.2339 24.806Z"
    fill="#6837F1" />
  <path
    d="M26.4244 10.5263C30.3718 8.35749 33.2391 6.73166 36.2188 5.07896C35.4679 5.45806 33.8662 6.56109 30.3327 7.16213C26.7975 7.76349 21.8283 7.63389 16.7078 4.53837L9.2008 0L-0.0371094 5.22368L10.0631 10.6448C12.5787 12.1548 18.8594 14.6825 26.4244 10.5263Z"
    fill="#D2C3FB" />
</svg>