<svg width="500" height="500" viewBox="0 0 500 500" fill="none" xmlns="http://www.w3.org/2000/svg">
<path d="M250 487.5C381.168 487.5 487.5 381.168 487.5 250C487.5 118.832 381.168 12.5 250 12.5C118.832 12.5 12.5 118.832 12.5 250C12.5 381.168 118.832 487.5 250 487.5Z" fill="#F6F6F6"/>
<path d="M248.807 375.502L284.283 175.983C318.098 175.983 328.764 179.691 330.304 194.826C330.304 194.826 352.988 186.368 364.429 169.19C319.783 148.502 274.924 147.569 274.924 147.569L248.748 179.451L248.807 179.447L222.631 147.564C222.631 147.564 177.771 148.498 133.131 169.186C144.562 186.364 167.255 194.822 167.255 194.822C168.804 179.686 179.457 175.978 213.045 175.954L248.807 375.502Z" fill="#E82127"/>
<path d="M248.792 138.36C284.882 138.084 326.191 143.943 368.479 162.374C374.131 152.201 375.584 147.705 375.584 147.705C329.357 129.416 286.066 123.157 248.787 123C211.51 123.157 168.221 129.417 122 147.705C122 147.705 124.062 153.243 129.1 162.374C171.38 143.943 212.696 138.084 248.787 138.36H248.792" fill="#E82127"/>
</svg>
