<svg xmlns="http://www.w3.org/2000/svg" xmlns:xlink="http://www.w3.org/1999/xlink" width="32" height="32" viewBox="0 0 32 32">
  <defs>
    <clipPath id="clip-path">
      <rect id="Rectángulo_99" data-name="Rectángulo 99" width="19.814" height="21" fill="#fff"/>
    </clipPath>
  </defs>
  <g id="Grupo_89" data-name="Grupo 89" transform="translate(-790 -472)">
    <circle id="Elipse_16" data-name="Elipse 16" cx="16" cy="16" r="16" transform="translate(790 472)"/>
    <g id="Grupo_88" data-name="Grupo 88" transform="translate(796.093 477.5)">
      <g id="Grupo_87" data-name="Grupo 87" clip-path="url(#clip-path)">
        <path id="Trazado_260" data-name="Trazado 260" d="M9.954,0a10.427,10.427,0,0,1,9.839,10.194A9.966,9.966,0,0,1,7.531,20.712,10.143,10.143,0,0,1,.191,8.853,12.179,12.179,0,0,1,.978,6.385l-.795-.6A10.692,10.692,0,0,1,7.612.136,9.866,9.866,0,0,1,8.632,0ZM2.61,5.478l.16.1A8.079,8.079,0,0,1,10.784,4.3a7.234,7.234,0,0,1,4.252,8.7,5.393,5.393,0,0,1-6.564,3.969,4.58,4.58,0,0,1-2.417-7.09c.048-.075.333-.419.333-.447,0-.048-.111-.167-.156-.16C3.344,11.135,3.512,15.3,5.9,17.535c3.455,3.242,9.02,1.472,11.167-2.453A9.031,9.031,0,0,0,12.43,2.331a8.219,8.219,0,0,0-9.6,2.732c-.046.068-.254.349-.216.415m10.7,4.285c.119,0,.256,0,.228-.153a5.567,5.567,0,0,0-1.524-2.473A6.1,6.1,0,0,0,5.726,5.892a6.241,6.241,0,0,0-3.581,8.035l.247-.084A6.193,6.193,0,0,1,6.843,7.162,5.935,5.935,0,0,1,11.778,8.23a7.061,7.061,0,0,1,1.533,1.533m-3.917.047a2.752,2.752,0,0,0-2.1,4.056,2.679,2.679,0,0,0,4.564.267l-.7-.539a2.255,2.255,0,0,0-1.76-3.784" transform="translate(0)" fill="#fff"/>
      </g>
    </g>
  </g>
</svg>
