<svg width="600" height="600" viewBox="0 0 600 600" fill="none" xmlns="http://www.w3.org/2000/svg">
<rect width="600" height="600" rx="300" fill="#E63330"/>
<g clip-path="url(#clip0_3071_14841)">
<g clip-path="url(#clip1_3071_14841)">
<path d="M297.891 326.201L272.482 256.815C269.362 248.302 261.275 242.637 252.224 242.637H221.241C209.326 242.637 199.659 252.322 199.659 264.258V346.619C199.659 353.209 204.996 358.555 211.574 358.555H213.565C220.143 358.555 225.48 353.209 225.48 346.619V275.722C225.48 271.733 228.712 268.494 232.694 268.494H244.044C247.062 268.494 249.761 270.375 250.807 273.203L276.402 342.249C280.035 352.037 289.353 358.534 299.78 358.534H299.965C310.309 358.534 319.586 352.14 323.271 342.455L349.645 273.141C350.712 270.334 353.391 268.484 356.388 268.484H367.338C371.319 268.484 374.552 271.722 374.552 275.711V346.608C374.552 353.199 379.889 358.545 386.467 358.545H388.458C395.036 358.545 400.372 353.199 400.372 346.608V264.248C400.372 252.312 390.705 242.627 378.79 242.627H348.485C339.537 242.627 331.511 248.158 328.32 256.537L301.76 326.211C301.083 327.99 298.569 327.969 297.912 326.191L297.891 326.201Z" fill="white"/>
<path d="M154.114 437.173C153.365 436.454 152.985 435.703 152.975 434.901C152.965 434.099 153.313 433.328 154.032 432.578L168.912 416.94C169.641 416.169 170.421 415.789 171.232 415.799C172.042 415.81 172.853 416.19 173.633 416.94C174.29 417.568 174.69 418.195 174.834 418.812C174.978 419.428 174.926 420.189 174.7 421.073L170.4 437.728L169.415 436.783L185.784 431.652C186.677 431.395 187.436 431.323 188.062 431.437C188.688 431.55 189.324 431.92 189.981 432.547C190.73 433.267 191.12 434.017 191.131 434.809C191.141 435.6 190.792 436.382 190.063 437.153L175.183 452.79C174.464 453.541 173.715 453.941 172.925 453.972C172.135 454.013 171.365 453.664 170.595 452.924C169.846 452.204 169.467 451.454 169.456 450.652C169.456 449.85 169.795 449.079 170.513 448.328L179.739 438.633L180.335 439.199L168.297 442.766C167.64 442.931 167.065 442.972 166.583 442.9C166.101 442.828 165.608 442.561 165.126 442.098C164.654 441.646 164.366 441.183 164.264 440.689C164.161 440.196 164.181 439.63 164.335 438.983L167.311 426.707L167.958 427.324L158.701 437.05C157.983 437.8 157.234 438.191 156.444 438.232C155.653 438.273 154.873 437.924 154.114 437.184V437.173Z" fill="white"/>
<path d="M187.344 465.713C186.656 465.292 186.174 464.788 185.907 464.181C185.64 463.575 185.62 462.958 185.846 462.32C186.071 461.683 186.564 461.107 187.303 460.583L206.371 447.752C207.294 447.125 208.167 446.796 208.998 446.755C209.829 446.714 210.619 446.92 211.368 447.372C212.118 447.824 212.661 448.431 212.98 449.171C213.298 449.911 213.411 450.847 213.308 451.968L210.794 474.843C210.722 475.768 210.455 476.488 210.003 477.002C209.552 477.516 209.008 477.793 208.372 477.834C207.725 477.865 207.079 477.69 206.412 477.279C205.529 476.745 204.965 476.128 204.729 475.439C204.493 474.75 204.451 473.845 204.616 472.735L205.375 467.42L206.678 470.535L192.978 462.228L196.365 461.961L192.013 465.096C191.08 465.744 190.279 466.135 189.612 466.279C188.945 466.423 188.185 466.237 187.323 465.713H187.344ZM207.263 454.034L197.832 460.922L197.873 458.763L207.551 464.634L205.652 465.672L207.335 454.085L207.274 454.044L207.263 454.034Z" fill="white"/>
<path d="M228.209 486.902C227.142 486.491 226.433 485.874 226.085 485.062C225.736 484.25 225.766 483.304 226.177 482.235L232.765 465.127L227.07 462.927C226.177 462.578 225.582 462.084 225.294 461.426C225.007 460.768 225.028 460.007 225.366 459.133C225.715 458.239 226.208 457.653 226.854 457.375C227.501 457.098 228.27 457.129 229.174 457.478L247.225 464.459C248.118 464.809 248.713 465.302 249.011 465.939C249.309 466.577 249.278 467.348 248.939 468.253C248.6 469.127 248.108 469.702 247.451 469.99C246.794 470.278 246.025 470.257 245.132 469.908L239.436 467.708L232.848 484.815C232.437 485.884 231.842 486.604 231.052 486.984C230.272 487.365 229.317 487.334 228.209 486.902Z" fill="white"/>
<path d="M263.265 496.844C262.147 496.638 261.336 496.155 260.843 495.425C260.351 494.695 260.207 493.76 260.412 492.629L263.758 474.596L257.754 473.475C256.81 473.301 256.143 472.92 255.733 472.324C255.333 471.738 255.209 470.977 255.384 470.062C255.558 469.116 255.938 468.448 256.523 468.057C257.108 467.667 257.878 467.554 258.812 467.728L277.838 471.275C278.782 471.45 279.46 471.83 279.86 472.406C280.27 472.982 280.383 473.743 280.209 474.689C280.034 475.604 279.655 476.272 279.07 476.673C278.485 477.074 277.715 477.187 276.771 477.012L270.767 475.891L267.422 493.924C267.216 495.045 266.755 495.867 266.057 496.381C265.359 496.895 264.415 497.05 263.245 496.823L263.265 496.844Z" fill="white"/>
<path d="M292.698 499.784C291.477 499.764 290.564 499.435 289.938 498.787C289.312 498.139 289.014 497.224 289.035 496.032L289.363 475.984C289.384 474.791 289.712 473.876 290.359 473.259C291.005 472.632 291.939 472.334 293.15 472.355L306.327 472.571C307.261 472.581 307.959 472.828 308.41 473.301C308.862 473.774 309.088 474.452 309.077 475.336C309.067 476.241 308.821 476.94 308.349 477.413C307.877 477.886 307.168 478.112 306.235 478.102L296.167 477.937L296.085 483.15L305.29 483.294C306.194 483.304 306.881 483.551 307.353 484.024C307.825 484.497 308.051 485.185 308.041 486.1C308.031 487.005 307.774 487.694 307.292 488.157C306.809 488.619 306.111 488.835 305.198 488.825L295.993 488.681L295.9 494.325L305.968 494.49C306.902 494.51 307.599 494.757 308.051 495.24C308.513 495.723 308.728 496.412 308.718 497.296C308.708 498.201 308.462 498.89 307.989 499.352C307.517 499.815 306.809 500.031 305.886 500.021L292.709 499.805L292.698 499.784Z" fill="white"/>
<path d="M327.046 498.561C325.928 498.756 325.004 498.592 324.276 498.078C323.547 497.564 323.095 496.741 322.9 495.61L319.37 475.357C319.165 474.205 319.329 473.27 319.842 472.55C320.355 471.83 321.176 471.368 322.305 471.172L331.726 469.527C334.784 468.993 337.288 469.322 339.218 470.525C341.147 471.728 342.348 473.66 342.81 476.313C343.107 478.03 342.994 479.582 342.461 480.98C341.927 482.379 341.014 483.54 339.71 484.466C338.417 485.391 336.734 486.039 334.661 486.398L334.846 485.658L336.683 485.34C337.781 485.144 338.797 485.237 339.731 485.617C340.665 485.997 341.506 486.666 342.255 487.642L344.77 490.758C345.303 491.426 345.622 492.115 345.724 492.824C345.817 493.533 345.642 494.161 345.201 494.695C344.759 495.23 344.041 495.59 343.035 495.764C342.04 495.939 341.198 495.877 340.501 495.579C339.803 495.281 339.136 494.736 338.499 493.955L333.902 488.156C333.502 487.653 333.04 487.324 332.527 487.19C332.014 487.056 331.459 487.046 330.844 487.149L328.74 487.519L329.94 494.387C330.135 495.507 329.992 496.443 329.52 497.173C329.037 497.903 328.216 498.365 327.046 498.571V498.561ZM327.878 482.523L332.547 481.7C333.902 481.464 334.887 481.011 335.503 480.353C336.118 479.695 336.334 478.801 336.139 477.67C335.954 476.601 335.451 475.85 334.641 475.418C333.83 474.997 332.752 474.904 331.398 475.141L326.728 475.963L327.867 482.523H327.878Z" fill="white"/>
<path d="M364.361 489.318C363.222 489.75 362.247 489.771 361.426 489.401C360.605 489.03 359.989 488.28 359.579 487.159L352.57 468.376C352.149 467.255 352.128 466.289 352.508 465.467C352.877 464.644 353.637 464.027 354.776 463.595L367.122 458.979C367.994 458.65 368.733 458.63 369.328 458.897C369.923 459.164 370.385 459.72 370.693 460.552C371.011 461.406 371.032 462.136 370.765 462.752C370.498 463.369 369.923 463.832 369.051 464.161L359.62 467.687L361.447 472.571L370.077 469.342C370.929 469.024 371.658 469.003 372.273 469.27C372.889 469.538 373.351 470.103 373.669 470.946C373.987 471.8 373.998 472.53 373.72 473.136C373.433 473.743 372.869 474.205 372.017 474.524L363.386 477.752L365.357 483.037L374.788 479.51C375.66 479.181 376.399 479.161 377.004 479.449C377.61 479.736 378.062 480.292 378.369 481.114C378.688 481.967 378.708 482.687 378.431 483.294C378.154 483.89 377.579 484.363 376.707 484.682L364.361 489.298V489.318Z" fill="white"/>
<path d="M403.574 471.306C401.87 472.344 400.228 473.044 398.669 473.403C397.098 473.763 395.6 473.784 394.184 473.465C392.768 473.146 391.434 472.478 390.192 471.45C388.95 470.432 387.811 469.065 386.774 467.358L380.299 456.676C379.683 455.658 379.478 454.723 379.693 453.88C379.909 453.037 380.504 452.317 381.479 451.721C382.474 451.114 383.388 450.909 384.229 451.114C385.071 451.32 385.789 451.926 386.415 452.955L392.932 463.698C393.968 465.405 395.128 466.464 396.401 466.865C397.673 467.276 399.038 467.039 400.475 466.155C401.891 465.292 402.712 464.202 402.938 462.876C403.164 461.549 402.763 460.038 401.727 458.332L395.21 447.588C394.594 446.57 394.379 445.635 394.584 444.802C394.789 443.969 395.374 443.249 396.349 442.653C397.324 442.057 398.227 441.872 399.048 442.077C399.869 442.293 400.598 442.9 401.214 443.928L407.689 454.61C409.075 456.892 409.844 459.051 409.988 461.066C410.132 463.081 409.67 464.952 408.582 466.659C407.494 468.366 405.822 469.908 403.564 471.285L403.574 471.306Z" fill="white"/>
<path d="M429.415 452.913C428.665 453.633 427.886 453.972 427.095 453.942C426.295 453.911 425.546 453.52 424.827 452.77L409.947 437.132C409.218 436.361 408.869 435.57 408.92 434.757C408.962 433.945 409.382 433.154 410.172 432.403C410.829 431.776 411.466 431.406 412.092 431.293C412.718 431.18 413.467 431.262 414.339 431.539L430.738 436.639L429.753 437.585L425.423 420.96C425.207 420.056 425.166 419.295 425.31 418.668C425.453 418.051 425.854 417.424 426.51 416.797C427.26 416.077 428.029 415.727 428.819 415.748C429.61 415.768 430.369 416.159 431.098 416.93L445.978 432.568C446.697 433.318 447.046 434.089 447.046 434.881C447.046 435.672 446.656 436.433 445.896 437.163C445.147 437.883 444.377 438.222 443.577 438.191C442.776 438.16 442.027 437.77 441.309 437.019L432.083 427.324L432.678 426.759L435.654 438.973C435.788 439.641 435.808 440.206 435.705 440.7C435.603 441.193 435.316 441.656 434.833 442.129C434.361 442.581 433.879 442.838 433.386 442.92C432.894 443.003 432.319 442.951 431.683 442.766L419.593 439.199L420.24 438.582L429.497 448.308C430.215 449.058 430.564 449.829 430.564 450.621C430.564 451.412 430.174 452.173 429.415 452.903V452.913Z" fill="white"/>
<path d="M454.147 414.401L446.717 408.89C443.197 406.279 442.325 401.354 444.767 397.725C464.143 368.918 474.344 335.423 474.344 300.365C474.344 204.053 396.134 125.702 299.995 125.702C203.856 125.702 125.656 204.053 125.656 300.365C125.656 335.423 135.857 368.918 155.233 397.725C157.675 401.365 156.803 406.289 153.283 408.89L145.853 414.401C142.097 417.187 136.77 416.272 134.153 412.386C111.781 379.251 100 340.707 100 300.365C100 189.886 189.725 100 300.005 100C410.286 100 500.01 189.886 500.01 300.365C500.01 340.707 488.229 379.261 465.857 412.386C463.24 416.262 457.914 417.187 454.158 414.401H454.147Z" fill="white"/>
</g>
</g>
<defs>
<clipPath id="clip0_3071_14841">
<rect width="400" height="400" fill="white" transform="translate(100 100)"/>
</clipPath>
<clipPath id="clip1_3071_14841">
<rect width="400" height="400" fill="white" transform="translate(100 100)"/>
</clipPath>
</defs>
</svg>
