<svg width="20" height="20" viewBox="0 0 20 20" fill="none" xmlns="http://www.w3.org/2000/svg">
<path fill-rule="evenodd" clip-rule="evenodd" d="M8.59402 0.318782C9.03302 0.108924 9.51344 0 10 0C10.4866 0 10.967 0.108924 11.406 0.318782C11.793 0.503782 12.146 0.805782 12.637 1.22378L12.715 1.28978C12.953 1.49278 13.028 1.55478 13.104 1.60578C13.297 1.73578 13.514 1.82478 13.741 1.86978C13.831 1.88778 13.928 1.89678 14.24 1.92078L14.341 1.92878C14.983 1.97978 15.447 2.01678 15.851 2.15878C16.3099 2.32141 16.7268 2.58446 17.0711 2.92875C17.4153 3.27303 17.6784 3.68985 17.841 4.14878C17.983 4.55278 18.019 5.01678 18.071 5.65878L18.079 5.75978C18.103 6.07178 18.112 6.16978 18.13 6.25878C18.175 6.48678 18.265 6.70378 18.394 6.89678C18.445 6.97178 18.507 7.04678 18.71 7.28478L18.776 7.36278C19.195 7.85278 19.496 8.20678 19.681 8.59278C20.106 9.48278 20.106 10.5168 19.681 11.4058C19.497 11.7928 19.195 12.1458 18.776 12.6368L18.71 12.7148C18.5982 12.8391 18.4928 12.9689 18.394 13.1038C18.264 13.2968 18.175 13.5138 18.13 13.7408C18.112 13.8308 18.104 13.9278 18.079 14.2398L18.07 14.3408C18.02 14.9828 17.983 15.4468 17.84 15.8508C17.6781 16.31 17.4154 16.727 17.0713 17.0714C16.7271 17.4158 16.3101 17.6787 15.851 17.8408C15.447 17.9828 14.983 18.0188 14.341 18.0708L14.24 18.0788C14.0729 18.0874 13.9064 18.1044 13.741 18.1298C13.5137 18.1759 13.2974 18.2656 13.104 18.3938C12.9688 18.4925 12.8386 18.598 12.714 18.7098L12.637 18.7758C12.147 19.1948 11.793 19.4958 11.407 19.6808C10.9679 19.8908 10.4873 19.9998 10.0005 19.9998C9.51375 19.9998 9.03316 19.8908 8.59402 19.6808C8.20702 19.4968 7.85402 19.1948 7.36302 18.7758L7.28502 18.7098C7.16104 18.598 7.03155 18.4926 6.89702 18.3938C6.70338 18.2654 6.48673 18.1758 6.25902 18.1298C6.09365 18.1044 5.9271 18.0874 5.76002 18.0788L5.65902 18.0698C5.01702 18.0198 4.55302 17.9828 4.14902 17.8398C3.68984 17.6779 3.27276 17.4152 2.9284 17.071C2.58404 16.7268 2.32114 16.3099 2.15902 15.8508C2.01702 15.4468 1.98002 14.9828 1.92902 14.3408L1.92102 14.2398C1.91238 14.0727 1.89536 13.9062 1.87002 13.7408C1.82389 13.5134 1.73425 13.2971 1.60602 13.1038C1.50728 12.9686 1.40182 12.8384 1.29002 12.7138L1.22402 12.6368C0.806021 12.1468 0.504021 11.7928 0.319021 11.4068C0.109008 10.9676 0 10.4871 0 10.0003C0 9.51351 0.109008 9.03292 0.319021 8.59378C0.504021 8.20678 0.806021 7.85378 1.22402 7.36278L1.29002 7.28478C1.40176 7.1608 1.50723 7.03131 1.60602 6.89678C1.73602 6.70378 1.82502 6.48678 1.87002 6.25878C1.88802 6.16878 1.89702 6.07178 1.92102 5.75978L1.92902 5.65878C1.98002 5.01678 2.01702 4.55278 2.15902 4.14878C2.32101 3.6895 2.58385 3.27235 2.92822 2.92798C3.27259 2.58361 3.68974 2.32078 4.14902 2.15878C4.55302 2.01678 5.01702 1.97978 5.65902 1.92878L5.76002 1.92078C5.9271 1.91214 6.09365 1.89512 6.25902 1.86978C6.48702 1.82478 6.70402 1.73478 6.89702 1.60578C6.97202 1.55478 7.04702 1.49278 7.28502 1.28978L7.36302 1.22378C7.85302 0.805782 8.20802 0.503782 8.59402 0.318782ZM10.756 1.67678C10.5196 1.56413 10.2609 1.50567 9.99902 1.50567C9.7371 1.50567 9.47848 1.56413 9.24202 1.67678C9.05702 1.76478 8.86202 1.92378 8.26102 2.43478L8.23102 2.45978C8.03402 2.62778 7.89102 2.75078 7.73402 2.85578C7.37502 3.09578 6.97302 3.26278 6.54902 3.34578C6.36402 3.38278 6.17602 3.39778 5.91702 3.41878L5.87902 3.42178C5.09202 3.48478 4.84302 3.51078 4.64902 3.57878C4.14902 3.75578 3.75502 4.14878 3.57902 4.64978C3.50902 4.84378 3.48402 5.09278 3.42102 5.87978L3.41802 5.91778C3.39802 6.17678 3.38202 6.36478 3.34602 6.54978C3.26202 6.97378 3.09602 7.37578 2.85602 7.73478C2.75002 7.89178 2.62702 8.03478 2.45902 8.23278L2.43402 8.26178C1.92302 8.86178 1.76402 9.05778 1.67602 9.24178C1.56321 9.47837 1.50467 9.73717 1.50467 9.99928C1.50467 10.2614 1.56321 10.5202 1.67602 10.7568C1.76402 10.9418 1.92302 11.1368 2.43402 11.7378L2.45902 11.7678C2.62702 11.9648 2.75002 12.1078 2.85502 12.2648C3.09502 12.6238 3.26202 13.0258 3.34502 13.4498C3.38202 13.6348 3.39702 13.8228 3.41802 14.0818L3.42102 14.1198C3.48402 14.9068 3.51002 15.1558 3.57802 15.3498C3.75502 15.8498 4.14802 16.2438 4.64902 16.4198C4.84302 16.4898 5.09202 16.5148 5.87902 16.5778L5.91702 16.5808C6.17602 16.6008 6.36402 16.6168 6.54902 16.6528C6.97302 16.7368 7.37502 16.9028 7.73402 17.1428C7.89102 17.2488 8.03402 17.3718 8.23202 17.5398L8.26102 17.5648C8.86102 18.0758 9.05702 18.2348 9.24102 18.3228C9.47761 18.4356 9.73641 18.4941 9.99852 18.4941C10.2606 18.4941 10.5194 18.4356 10.756 18.3228C10.941 18.2348 11.136 18.0758 11.737 17.5648L11.767 17.5398C11.964 17.3718 12.107 17.2488 12.264 17.1438C12.623 16.9038 13.025 16.7368 13.449 16.6538C13.6582 16.6183 13.8692 16.5939 14.081 16.5808L14.119 16.5778C14.906 16.5148 15.155 16.4888 15.349 16.4208C15.849 16.2438 16.243 15.8508 16.419 15.3498C16.489 15.1558 16.514 14.9058 16.577 14.1198L16.58 14.0818C16.5928 13.8697 16.6168 13.6584 16.652 13.4488C16.736 13.0258 16.902 12.6238 17.142 12.2648C17.248 12.1078 17.371 11.9648 17.539 11.7668L17.564 11.7378C18.075 11.1378 18.234 10.9418 18.322 10.7578C18.4348 10.5212 18.4934 10.2624 18.4934 10.0003C18.4934 9.73817 18.4348 9.47937 18.322 9.24278C18.234 9.05778 18.075 8.86278 17.564 8.26178L17.539 8.23178C17.371 8.03478 17.248 7.89178 17.143 7.73478C16.9038 7.37562 16.7373 6.97302 16.653 6.54978C16.6175 6.34055 16.5932 6.12959 16.58 5.91778L16.577 5.87978C16.514 5.09278 16.488 4.84378 16.42 4.64978C16.243 4.14978 15.85 3.75578 15.349 3.57978C15.155 3.50978 14.905 3.48478 14.119 3.42178L14.081 3.41878C13.8689 3.40601 13.6576 3.38197 13.448 3.34678C13.0251 3.26238 12.6229 3.09591 12.264 2.85678C12.107 2.75078 11.964 2.62778 11.766 2.45978L11.737 2.43478C11.137 1.92378 10.941 1.76478 10.757 1.67678M14.044 6.95878C14.1143 7.0285 14.1701 7.11145 14.2082 7.20285C14.2463 7.29424 14.2659 7.39227 14.2659 7.49128C14.2659 7.59029 14.2463 7.68832 14.2082 7.77971C14.1701 7.87111 14.1143 7.95406 14.044 8.02378L9.02702 13.0408C8.88584 13.1817 8.69451 13.2609 8.49502 13.2609C8.29553 13.2609 8.1042 13.1817 7.96302 13.0408L5.95602 11.0338C5.88136 10.965 5.82137 10.8819 5.77965 10.7894C5.73793 10.6968 5.71535 10.5968 5.71326 10.4954C5.71117 10.3939 5.72962 10.293 5.76749 10.1989C5.80536 10.1047 5.86188 10.0192 5.93365 9.94741C6.00542 9.87564 6.09095 9.81912 6.18512 9.78125C6.27928 9.74338 6.38013 9.72493 6.4816 9.72702C6.58308 9.72911 6.68308 9.75169 6.77561 9.79341C6.86813 9.83513 6.95127 9.89512 7.02002 9.96978L8.49502 11.4438L12.98 6.95978C13.1212 6.81884 13.3125 6.73968 13.512 6.73968C13.7115 6.73968 13.9028 6.81884 14.044 6.95978" fill="#2E3338"/>
</svg>
